<svg xmlns="http://www.w3.org/2000/svg" viewBox="0 -18.2 303.91 186.21">
  <g>
    <path class="slds-illustration__fill-secondary" d="M54.79,146H30.54l4.22-14,7.45-24.65,1.73-5.71c.47-1.54-1.95-2.2-2.41-.66l-4.7,15.54-7.45,24.64-1.72,5.71a1.26,1.26,0,0,0,1.2,1.59H56.61a1.26,1.26,0,0,0,1.2-1.59l-4.69-15.53-7.45-24.65L43.94,101c-.47-1.54-2.88-.88-2.41.66l4.7,15.54,7.45,24.65Z"/>
    <path class="slds-illustration__fill-secondary" d="M194,87.16h6a1.25,1.25,0,0,0,0-2.5h-6a1.26,1.26,0,0,0-1.25,1.25A1.27,1.27,0,0,0,194,87.16Z"/>
    <path class="slds-illustration__fill-secondary" d="M205.55,87.16h42.89a1.25,1.25,0,0,0,0-2.5H205.55a1.25,1.25,0,0,0,0,2.5Z"/>
    <path class="slds-illustration__fill-secondary" d="M265.45,84.36a7.59,7.59,0,0,0-3.35-.59,10,10,0,0,0-.91-4.51,8.25,8.25,0,0,0-4.65-4.07,7.42,7.42,0,0,0-3.53-.31,9.55,9.55,0,0,0-16.92-3.74c-1.61,2.11-1.91,4.4-2,6.88H222.2a1.25,1.25,0,0,0,0,2.5h14.41V79.3s0,0,0,0c0-2.22-.1-4.29,1.16-6.22a7.08,7.08,0,0,1,12.88,2.59,8.65,8.65,0,0,0-4.45,5.88c-.33,1.57,2.08,2.24,2.41.66.71-3.41,4.08-6,7.55-4.46a5.8,5.8,0,0,1,3,3.12,9.87,9.87,0,0,1,.42,4.08h0v1.35h1.25a9.18,9.18,0,0,1,3.35.25,3.14,3.14,0,0,1,1.57,4.58c-.87,1.35-2.3,1.53-3.74,1.53H212a1.25,1.25,0,0,0,0,2.5h23.83c8.92,0,17.85.08,26.77,0,3.16,0,6.06-2.17,6.17-5.51A5.7,5.7,0,0,0,265.45,84.36Z"/>
    <path class="slds-illustration__fill-secondary" d="M1.21,155H290.48c3.9,0,7.81.07,11.71,0h.51a1.25,1.25,0,0,0,0-2.5H13.43c-3.9,0-7.81-.08-11.71,0H1.21a1.25,1.25,0,0,0,0,2.5Z"/>
    <path class="slds-illustration__fill-primary" d="M33.35,168H245.62c2.86,0,5.74.06,8.6,0h.37a1.25,1.25,0,0,0,0-2.5H42.32c-2.86,0-5.73-.07-8.6,0h-.37a1.25,1.25,0,0,0,0,2.5Z"/>
    <path class="slds-illustration__fill-primary" d="M261.17,168h6.18a1.25,1.25,0,0,0,0-2.5h-6.18a1.26,1.26,0,0,0-1.25,1.25,1.28,1.28,0,0,0,1.25,1.25Z"/>
    <path class="slds-illustration__fill-primary" d="M110.91,134.75c-.14,5.61-2.36,10.26-4.6,14.13a19.38,19.38,0,0,1-3.52,4.83,9.72,9.72,0,0,1-4.69,2c-10.83,2.28-21.83,3.4-32.59.3-.05,3.27-.09,8.07-.14,11.34,10.66.66,15.45.52,23.27.52,5.75,0,9.44-.32,14-2.53s8.89-6.38,11.89-12.92A122.8,122.8,0,0,0,110.91,134.75Z"/>
    <path fill="#FFFFFF" d="M120.21,27.64c-3.16-.05-6-.11-9.19.07a1.43,1.43,0,0,0-1.27,1,11.41,11.41,0,0,0-.13,3.37c.09,2.76.11,6.64,2.36,7.86a11.93,11.93,0,0,0-1.58,2c-1,2.14-.78,5-.6,7.32s.26,4.8.56,7.18a56.87,56.87,0,0,1,.58,10.42c-.31,5.8-.42,11.68-.59,17.45-.13,4.27,0,8.32,0,12.59.06,4.43.23,8.82.24,13.24,0,4,.06,8,0,12a60,60,0,0,1-1.19,10.91c-.74,3.75-.59,7.6-.89,11.46s-.24,7.48-.68,11.22a5.34,5.34,0,0,0,5.14,6.14c3.73.06,7.48-.07,11.21-.07,19.41,0,38.74.12,57.86,0,6.28-.05,12.45.44,18.72,0a5.9,5.9,0,0,0,1.91-.43c2-1,2.93-3.12,3.59-5,.45-1.27,0-2.75.13-4.09a35,35,0,0,0-.09-4.46,44.88,44.88,0,0,0-.74-7c-.31-2-.61-4-.87-6-.2-1.43-.35-2.85-.54-4.28-.32-2.39-.68-4.84-1.07-7.26a40.29,40.29,0,0,1-.8-4.71c-.1-2.71-.12-5.39-.12-8,0-2.22.18-4.41.18-6.63V97.55l-.26-7.31a52.46,52.46,0,0,0-.3-7.31c-.28-2-.22-4.13-.42-6.19-.07-.73-.21-2-.22-2.7,0-2.54.14-5.36.14-8a59.81,59.81,0,0,1,.41-9.18c.43-2.71.54-5.42.74-8.16a31,31,0,0,0-.49-8.13,5.49,5.49,0,0,0-1.2-2.89c.9-1.45.78-4.37,1-6.38.14-1.36.28-3.11-1.05-3.63-3,0-5.83-.08-8.85,0-4.08.05-8,.06-12.14,0C159.52,27.66,140.17,27.93,120.21,27.64Z"/>
    <path class="slds-illustration__fill-primary" d="M193.94,90.76c.43,5.08,1.19,11.12,1.86,16.18,5.78,3.1,11.56,6.26,17.35,9.35,5.15,2.75,10.46,5.65,15.19,11A42.83,42.83,0,0,1,238.08,150c.61-3.67,0-8-.4-12-.78-7.57-2.56-13-6-18.33a47.9,47.9,0,0,0-14.08-14.38c-5.84-4-11.68-8-17.58-11.53A36.5,36.5,0,0,0,193.94,90.76Z"/>
    <path class="slds-illustration__fill-secondary" d="M238,153.6l-.41-3.52A42.7,42.7,0,0,0,228,127.66c-4.77-5.45-10.23-8.36-15.05-10.93q-4.8-2.57-9.59-5.17c-2.59-1.4-5.17-2.8-7.76-4.18l-.22-.12,0-.26c-.68-5.18-1.43-11.15-1.86-16.2l-.07-.78.74.27a38.11,38.11,0,0,1,6.2,3.08c4.94,2.94,9.91,6.32,14.72,9.59l2.88,2a48.12,48.12,0,0,1,14.22,14.52c3.46,5.4,5.27,10.95,6.05,18.55l.15,1.49c.39,3.6.79,7.33.25,10.62Zm-41.74-47,7.53,4.06c3.2,1.73,6.4,3.46,9.59,5.16,4.9,2.62,10.44,5.58,15.33,11.16a42.3,42.3,0,0,1,9.11,18.51c0-1.94-.27-3.95-.48-5.92l-.16-1.5c-.76-7.44-2.52-12.85-5.89-18.11a47.27,47.27,0,0,0-13.94-14.23l-2.88-2c-4.8-3.27-9.76-6.64-14.67-9.56a40.87,40.87,0,0,0-5.29-2.72C194.93,96.28,195.63,101.78,196.26,106.62Z"/>
    <path stroke-miterlimit="10" stroke-width="0.25" class="slds-illustration__stroke-secondary slds-illustration__fill-secondary" d="M200.23,146.27a97.06,97.06,0,0,0,1.4,14.06,27.69,27.69,0,0,0,25.73,6.61c3.91-1,6.7-3.72,8.88-8.27,3.72-7.76,2.9-18.13,1.14-27.31a22.51,22.51,0,0,0-2.27-6.46,57.87,57.87,0,0,1,2,12.68c.19,4.24-.31,8.58-2,11.94a13.22,13.22,0,0,1-6.39,6.27,22.54,22.54,0,0,1-8,1.72,21.06,21.06,0,0,1-5.43-.18,14.41,14.41,0,0,1-3.64-1.25,21.55,21.55,0,0,1-2.79-1.71A36.45,36.45,0,0,1,200.23,146.27Z"/>
    <path class="slds-illustration__fill-primary" d="M118.05,17a5.7,5.7,0,0,1,.87-2.59,1.69,1.69,0,0,1,1.45-.53,1.12,1.12,0,0,1,.71.22,2.53,2.53,0,0,1,.49.67,26.18,26.18,0,0,1,1.59,3.08c1.22,2.89,2.27,7.57,3.56,10.37-.11-.22-1.23,0-1.43,0h-4.55l-1.51,0a5.15,5.15,0,0,1-1.92-1.11,8.8,8.8,0,0,1,0-2.22c0-.82.07-1.63.12-2.45C117.6,20.61,117.77,18.79,118.05,17Z"/>
    <path stroke-miterlimit="10" stroke-width="0.25" class="slds-illustration__stroke-secondary slds-illustration__fill-secondary" d="M126.29,27.18c-1.05-1.78-1.51-4.29-2.18-6.54a25.13,25.13,0,0,0-2.21-5.32c-.49-.87-1.29-1.58-1.93-1.56s-1.12.85-1.39,1.76a40.41,40.41,0,0,0-1,6.46c-.14,1.44-.3,3.66-.39,5.18l-.67,0c.09-1.46.17-3.12.27-4.46s.17-2.67.34-4.05a19.23,19.23,0,0,1,.85-4.83,5,5,0,0,1,1.59-2.2,5,5,0,0,1,2.59-.83c1.13,0,2.38,0,3.56,0h3.45c1,0,2,.1,3,.08,1.29,0,2.56-.09,3.86-.09a2.77,2.77,0,0,1,2.32,1.55,23.33,23.33,0,0,1,2.06,5.28c.54,1.82.71,3.23,1.09,4.81a38.54,38.54,0,0,1,.79,3.79c.07.53.16.86.21,1.28C137.17,27.57,131.73,27.24,126.29,27.18Z"/>
    <path stroke-miterlimit="10" stroke-width="0.5" class="slds-illustration__fill-primary slds-illustration__stroke-secondary" d="M149,11.3a20.92,20.92,0,0,1,.25-2.37c.11-.82.24-1.63.41-2.42a9.58,9.58,0,0,1,1.72-4A6,6,0,0,1,153.56.82a11.17,11.17,0,0,1,6.17-.26,7.74,7.74,0,0,1,2.24.77A11.36,11.36,0,0,1,164.52,4a9,9,0,0,1,1.1,3.2c.13.49.18,1,.3,1.5a15.11,15.11,0,0,1,.51,3.53,7.64,7.64,0,0,0-1.4-.72c-.36-.19-.7-.48-1.06-.66a21.82,21.82,0,0,0-2.48-.91,15.87,15.87,0,0,0-2.67-.62,7.89,7.89,0,0,0-2.06,0c-.69.07-1.38.05-2.06.16s-1.61.29-2.41.46a12.31,12.31,0,0,0-1.5.55,9.08,9.08,0,0,0-1.49.69A2.73,2.73,0,0,0,149,11.3Z"/>
    <path stroke-miterlimit="10" stroke-width="0.25" class="slds-illustration__stroke-secondary slds-illustration__fill-secondary" d="M151.48,2.55c-1.18,1.56-1.87,4.18-2.21,6.64a54.17,54.17,0,0,0-.36,7.56c0,3.57.24,7.05.23,10.62-2.55-.11-5.14,0-7.7.13a9.45,9.45,0,0,0,.26-1.58,21.64,21.64,0,0,0,.4-4.28,18.37,18.37,0,0,1,.27-3.08,9.17,9.17,0,0,1,1-3.16A27.68,27.68,0,0,1,145.32,12a10.56,10.56,0,0,0,1.29-1.78c.43-.84,1.29-1.82,1.72-2.66A25,25,0,0,1,151.48,2.55Z"/>
    <path stroke-miterlimit="10" stroke-width="0.25" class="slds-illustration__stroke-secondary slds-illustration__fill-secondary" d="M166.52,27.65c-.21-3.59-.27-7.2-.18-10.81,0-1.21.07-2.43,0-3.64a24,24,0,0,0-2-9.46A103.51,103.51,0,0,1,172.07,16a12.77,12.77,0,0,1,.77,2.6c.13.76.27,1.52.39,2.29.05.35.06.71.13,1.05s.1.39.13.6a3.6,3.6,0,0,1,0,.66l.06,4a27,27,0,0,1-4.11.34c-.45.05-.88-.09-1.33,0A5.58,5.58,0,0,1,166.52,27.65Z"/>
    <path stroke-miterlimit="10" stroke-width="0.25" class="slds-illustration__fill-primary slds-illustration__stroke-primary" d="M188.3,27.13l.57-1.56a12,12,0,0,0,.41-1.28c.14-.63.2-1.32.37-1.94a10.31,10.31,0,0,1,.47-1.22c.32-.78.61-1.58.9-2.39a10.55,10.55,0,0,0,.42-1.31,4.65,4.65,0,0,1,.48-1.54c.25-.33.63-.44.74-.93.15-.69.77-.76,1.19-1a1.29,1.29,0,0,1,2,1c0,.2,0,.4.07.6a7.86,7.86,0,0,0,.16,1c.1.48.21.95.33,1.42.06.27.13.53.18.81s.05.42.06.62c.22,2.53.31,5.08.28,7.62C194,27.17,191.2,27.18,188.3,27.13Z"/>
    <path class="slds-illustration__fill-secondary" d="M171.55,27.07l2.8-10.7a18.27,18.27,0,0,1,.77-2.47A6.53,6.53,0,0,1,177,11.36c1-.82,2.24-.57,3.38-.54s2.54,0,3.8,0,2.55,0,3.82,0,2.2,0,3.38,0c.89,0,1.81.17,2.7.28a3.15,3.15,0,0,1,2.39,2.5,20.66,20.66,0,0,1,.73,3.56,22.57,22.57,0,0,1,.29,2.27c.12,1.65.24,3,.34,4.53.07,1.11.15,2.2.15,3.36h-1.18c-.05-1.87-.14-3.73-.26-5.59-.08-1.22-.23-2.4-.35-3.61a15,15,0,0,0-.65-3.24,1.4,1.4,0,0,0-1.21-1,2.84,2.84,0,0,0-1.6,1.26,11.49,11.49,0,0,0-1.62,3.58c-.42,1.3-.78,2.64-1.24,3.92-.28.78-.53,1.52-.78,2.44-.21.75-.4,1.53-.61,2.27A107.65,107.65,0,0,1,171.55,27.07Z"/>
    <path class="slds-illustration__fill-secondary" d="M113.35,43.26s.55,0,.5,0l-.06-.06c-1.52-1.58-1.54-4.85-1.63-7.26a11.63,11.63,0,0,1,.14-3.35,1.41,1.41,0,0,1,1.26-1c3.14-.17,6-.12,9.13-.07,19.84.29,39.08,0,59.15,0,4.16.08,8,.07,12.07,0,3-.08,5.85,0,8.8,0,1.32.52,1.18,2.26,1,3.6-.19,2-.08,4.91-1,6.35A5.52,5.52,0,0,1,204,44.34a31,31,0,0,1,.48,8.08c-.2,2.72-.31,5.41-.73,8.11a60.31,60.31,0,0,0-.41,9.12c0,2.66-.18,5.45-.14,8,0,.73.16,2,.23,2.68.19,2,.13,4.12.41,6.15a51.82,51.82,0,0,1,.3,7.27l.26,7.25v6.33c0,2.2-.18,4.38-.18,6.58,0,2.65,0,5.31.12,8a37.51,37.51,0,0,0,.8,4.68c.38,2.4.74,4.84,1.06,7.21.19,1.43.33,2.84.53,4.26.27,2,.56,4,.86,5.93a44.39,44.39,0,0,1,.74,7,32.8,32.8,0,0,1,.09,4.43c-.18,1.33.32,2.8-.13,4.06-.66,1.85-1.55,4-3.57,5a5.53,5.53,0,0,1-1.89.42c-6.24.44-12.37,0-18.62,0-19,.13-38.21,0-57.51,0-3.71,0-7.44.14-11.15.08a5.3,5.3,0,0,1-5.1-6.1c.44-3.72.39-7.42.68-11.15s.14-7.66.88-11.39a60.13,60.13,0,0,0,1.18-10.84c.06-3.94,0-8,0-11.89,0-4.39-.18-8.75-.24-13.15-.06-4.24-.15-8.26,0-12.51.17-5.73.28-11.58.59-17.34a56.28,56.28,0,0,0-.58-10.36c-.3-2.36-.37-4.75-.55-7.13s-.37-5.14.6-7.27a3.45,3.45,0,0,1,.54-.84s-.32-.25-.27-.3Z"/>
    <path class="slds-illustration__fill-primary" d="M196.57,166c-2,0-4.09,0-6.1-.1-2.25,0-4.59-.11-6.9-.09-13,.08-26.33.06-39.22,0-8.13,0-16.26-.11-24.45,0-2.23,0-4.54.07-6.82,0a6.22,6.22,0,0,1-4.64-2.14,6.72,6.72,0,0,1-1.57-5.24c.26-2.23.36-4.52.45-6.73.06-1.52.12-3.1.24-4.67.1-1.29.15-2.6.2-3.87a49.78,49.78,0,0,1,.73-7.94,62.85,62.85,0,0,0,1.19-11c0-3.12,0-6.34,0-9.44v-2.75c0-2.63-.07-5.3-.14-7.88,0-1.87-.09-3.74-.11-5.61l0-1.93c-.06-3.71-.11-7.22,0-10.95l.11-4.08c.12-4.51.25-9.19.49-13.76a57.13,57.13,0,0,0-.58-10.45c-.21-1.65-.31-3.32-.41-4.94-.05-.81-.1-1.62-.16-2.43-.18-2.31-.43-5.48.7-8a5.54,5.54,0,0,1,1.08-1.52c-1.77-1.8-1.88-5.16-2-7.71l0-.93a10.68,10.68,0,0,1,.2-3.23A2.45,2.45,0,0,1,111,27c3-.17,5.82-.13,8.78-.08h.66c14.19.2,27.79.13,42.18.06,6.12,0,12.27-.06,18.5-.07,3.86.07,7.67.08,12.38,0,2.29-.07,4.54,0,6.72,0l2.33,0h.18l.18.07c2.08.81,1.83,3.36,1.7,4.73,0,.5-.08,1.05-.11,1.62a15,15,0,0,1-.72,4.69,7.17,7.17,0,0,1,1,2.86,32.67,32.67,0,0,1,.51,8.56c-.05.61-.09,1.23-.13,1.84-.14,2.14-.28,4.36-.63,6.56a53.71,53.71,0,0,0-.41,8.22v1c0,1.24,0,2.51-.08,3.77-.05,1.54-.09,3-.07,4.4,0,.55.1,1.42.17,2.12l.05.56c.09.91.13,1.83.17,2.72.05,1.23.1,2.39.26,3.54a48.47,48.47,0,0,1,.31,6.87v.74l.27,7.41v6.53c0,1.15-.05,2.3-.09,3.42s-.09,2.23-.09,3.34c0,2.4,0,5.25.11,8.18a16.78,16.78,0,0,0,.46,2.9c.13.59.25,1.18.35,1.78.41,2.61.78,5.11,1.09,7.43.1.7.18,1.39.26,2.08s.18,1.52.29,2.29c.27,2,.57,4.05.88,6.07l.06.35a43.92,43.92,0,0,1,.71,7c0,.54,0,1.08.08,1.63a14.89,14.89,0,0,1,0,3.06,7.23,7.23,0,0,0,0,1.54,6.55,6.55,0,0,1-.2,2.83c-.8,2.26-1.86,4.5-4.16,5.64a6.72,6.72,0,0,1-2.31.54C200.68,166,198.62,166,196.57,166Zm-12.21-2.19c2.07,0,4.15.05,6.16.09,3.95.1,8,.19,12.08-.09a4.57,4.57,0,0,0,1.56-.33c1.75-.87,2.55-2.79,3.17-4.52a5.06,5.06,0,0,0,.09-2,9.16,9.16,0,0,1,0-2,13.05,13.05,0,0,0,0-2.65c0-.59-.09-1.18-.09-1.77a42.19,42.19,0,0,0-.69-6.66l-.05-.35c-.32-2-.62-4.11-.89-6.11-.11-.78-.2-1.55-.29-2.32s-.17-1.37-.26-2.06c-.31-2.3-.67-4.79-1.09-7.37-.09-.57-.21-1.12-.33-1.67a19.11,19.11,0,0,1-.49-3.26c-.11-3-.12-5.83-.12-8.25,0-1.15,0-2.31.09-3.42s.09-2.23.09-3.34v-6.5L203,91.09a46.3,46.3,0,0,0-.29-6.59,36.63,36.63,0,0,1-.28-3.73c0-.87-.08-1.76-.16-2.62l-.05-.55c-.08-.74-.17-1.66-.18-2.28,0-1.45,0-3,.07-4.5,0-1.24.08-2.49.08-3.71v-1a54.63,54.63,0,0,1,.44-8.54c.33-2.11.46-4.18.61-6.38,0-.62.08-1.24.13-1.86a31.29,31.29,0,0,0-.48-8,4.82,4.82,0,0,0-1-2.5l-.47-.55.38-.62c.56-.89.66-2.73.74-4.36,0-.61.07-1.19.12-1.72.11-1.13.17-2.25-.32-2.6l-2.09,0c-2.17,0-4.4,0-6.67,0-4.74.06-8.57.05-12.44,0q-9.3,0-18.47.07c-14.4.07-28,.14-42.22-.06h-.66c-2.92,0-5.67-.09-8.64.08a.45.45,0,0,0-.38.27,8.9,8.9,0,0,0-.13,2.62l0,.95c.08,2.47.19,5.84,1.87,6.74l1,.54-.68.93a10.55,10.55,0,0,1-.72.86,4.12,4.12,0,0,0-.78,1.06c-.92,2-.69,4.88-.53,7,.06.81.11,1.63.16,2.45.1,1.59.2,3.23.4,4.82a59.77,59.77,0,0,1,.6,10.81c-.24,4.55-.37,9.2-.49,13.71l-.11,4.07c-.11,3.69-.06,7.18,0,10.87l0,1.93c0,1.87.07,3.73.11,5.59.07,2.59.13,5.27.14,7.93v2.74c0,3.11,0,6.34,0,9.48a63.88,63.88,0,0,1-1.23,11.3,48.75,48.75,0,0,0-.69,7.63c-.05,1.29-.1,2.62-.2,3.95-.12,1.53-.18,3.09-.25,4.6-.09,2.25-.18,4.58-.46,6.89a4.75,4.75,0,0,0,1.1,3.69,4.22,4.22,0,0,0,3.17,1.45c2.24,0,4.54,0,6.76,0,8.19-.11,16.34,0,24.47,0,12.89,0,26.22.05,39.21,0Z"/>
    <path class="slds-illustration__fill-primary" d="M113.5,41.8a1,1,0,0,1-.21-2c3.94-.88,8.63-.74,13.17-.61,2.48.08,5,.15,7.47.07a1,1,0,0,1,1,1,1,1,0,0,1-1,1c-2.49.09-5.09,0-7.6-.07-4.62-.13-9-.26-12.68.56A.78.78,0,0,1,113.5,41.8Z"/>
    <path class="slds-illustration__fill-primary" d="M140.36,41.39a1,1,0,0,1-1-.76,1,1,0,0,1,.72-1.21,19.35,19.35,0,0,1,4.88-.37c10.63.07,21.4,0,32-.32h0a1,1,0,0,1,0,2c-10.61.28-21.4.39-32.06.32a18.66,18.66,0,0,0-4.37.31A1,1,0,0,1,140.36,41.39Z"/>
    <path class="slds-illustration__fill-primary" d="M183.93,40.69a1,1,0,0,1-.19-2,49.12,49.12,0,0,1,10.81-.52l2,.05c1,0,2,0,3,0l.87,0a6.35,6.35,0,0,0,2-.12A1,1,0,1,1,203.2,40a6.74,6.74,0,0,1-2.86.3l-.75,0c-1,0-2.08,0-3.11,0l-2-.05a47.32,47.32,0,0,0-10.37.48Z"/>
    <path class="slds-illustration__fill-primary" d="M174.16,27.31a8.69,8.69,0,0,0-.12-2.16c0-.26-.16-.57-.39-.62a.4.4,0,0,0-.38.21,1.35,1.35,0,0,0-.17.45,8,8,0,0,0-.18,2.07A3.7,3.7,0,0,1,174.16,27.31Z"/>
    <path class="slds-illustration__fill-primary" d="M198.52,159.92c-.57,0-1.13,0-1.66-.1-10.8-1-21.84-.95-32.52-.87l-25.94.18a178.36,178.36,0,0,1-19.31-.59c-.57-.06-1.17-.07-1.75-.08a16.37,16.37,0,0,1-2.31-.14,1.43,1.43,0,0,0-.39,0,1.47,1.47,0,0,1-1.52-.43,5.09,5.09,0,0,1-1.39-2.21,3.87,3.87,0,0,1,.23-2.21,5.84,5.84,0,0,0,.32-1.91c0-.27,0-.54.06-.82s.06-.68.08-1c0-.63.1-1.29.2-1.89.06-.35.12-.7.17-1.05.09-.56.18-1.13.3-1.69a17.3,17.3,0,0,0,.24-2.82l0-.39c0-.42,0-.84.06-1.26,0-.71.09-1.46.08-2.17v-.11a22.35,22.35,0,0,1,.13-3.57c.1-.74.15-1.51.19-2.25s.08-1.3.15-1.94c.13-1.12.18-2.26.24-3.35l0-.65c0-.6.1-1.23.16-1.86.08-.78.16-1.58.18-2.32a31.86,31.86,0,0,1,.59-5.93,22,22,0,0,0,.36-3.5c0-.62.06-1.24.12-1.89a33.34,33.34,0,0,0,.1-3.61V106a23.77,23.77,0,0,0-.38-4.86,23.56,23.56,0,0,1-.34-3c-.06-.84-.12-1.7-.26-2.6l0-.18a20.16,20.16,0,0,1-.27-2.33,9.63,9.63,0,0,0-.47-2.24c-.14-.48-.28-1-.39-1.45a10.19,10.19,0,0,1,0-3.12c0-.38.11-.74.18-1.1a4.37,4.37,0,0,0,.09-2.14,8.18,8.18,0,0,1-.19-3l.06-.68a12.38,12.38,0,0,0,0-3.16,4,4,0,0,1,.1-1.61c.05-.23.1-.46.13-.7a11.77,11.77,0,0,0-.09-2,10.87,10.87,0,0,1-.09-2.2,18.06,18.06,0,0,0,0-2.44c0-.61,0-1.23,0-1.86l0-.82a21.12,21.12,0,0,0-.11-3.65c-.15-1-.23-2-.3-3-.06-.72-.11-1.44-.19-2.17a14.76,14.76,0,0,0-.29-1.57,16.33,16.33,0,0,1-.43-3c0-.41-.07-.81-.11-1.2a14.88,14.88,0,0,1-.13-1.76,21.89,21.89,0,0,1,.28-3.39,17.35,17.35,0,0,1,.44-1.85l.06-.23a3.66,3.66,0,0,1,1.24-2l.61.79a2.7,2.7,0,0,0-.88,1.44l-.07.23a16.15,16.15,0,0,0-.41,1.73,21.23,21.23,0,0,0-.27,3.25,15.46,15.46,0,0,0,.12,1.63q.08.62.12,1.26a14.94,14.94,0,0,0,.41,2.82,15.13,15.13,0,0,1,.3,1.68c.08.73.14,1.47.2,2.2.07,1,.14,2,.29,2.94a22.52,22.52,0,0,1,.12,3.83l0,.81c0,.61,0,1.21,0,1.8a18.39,18.39,0,0,1,0,2.57,11.58,11.58,0,0,0,.09,2,11.07,11.07,0,0,1,.09,2.22,6.67,6.67,0,0,1-.14.82,3,3,0,0,0-.09,1.23,14,14,0,0,1,0,3.42l-.06.66a7.27,7.27,0,0,0,.15,2.67,5.35,5.35,0,0,1-.06,2.61c-.07.33-.13.67-.17,1a9.47,9.47,0,0,0,0,2.81c.1.46.23.92.37,1.36a10.79,10.79,0,0,1,.51,2.49,21.45,21.45,0,0,0,.26,2.22l0,.18a26.32,26.32,0,0,1,.26,2.68,22.87,22.87,0,0,0,.33,2.92,24.55,24.55,0,0,1,.4,5.06v1.45a36,36,0,0,1-.1,3.72c-.06.63-.09,1.24-.12,1.84a22.54,22.54,0,0,1-.38,3.65,31.66,31.66,0,0,0-.57,5.75c0,.78-.1,1.6-.18,2.41-.07.61-.13,1.22-.16,1.8l0,.65c-.06,1.11-.11,2.26-.25,3.41-.07.63-.1,1.26-.14,1.88,0,.77-.09,1.56-.2,2.34a21.48,21.48,0,0,0-.12,3.42v.1c0,.75,0,1.52-.08,2.25,0,.41,0,.82-.06,1.23l0,.39a16.74,16.74,0,0,1-.27,3c-.11.54-.2,1.09-.28,1.63,0,.36-.11.72-.17,1.07a16.64,16.64,0,0,0-.19,1.79c0,.37,0,.73-.09,1.07s0,.52,0,.77a6.69,6.69,0,0,1-.4,2.23,3,3,0,0,0-.18,1.62,4.1,4.1,0,0,0,1.12,1.7c.23.24.32.22.63.17a2.08,2.08,0,0,1,.73,0,15.43,15.43,0,0,0,2.17.13c.6,0,1.23,0,1.84.08a176.15,176.15,0,0,0,19.2.59l25.94-.18c10.71-.08,21.78-.16,32.62.87a7,7,0,0,0,3.38-.22c1.25-.53,2-1.78,2.85-3.24a5.08,5.08,0,0,0,.72-5l-.1-.39a26.82,26.82,0,0,1-.75-5.8c0-.92,0-1.84,0-2.75s0-2,0-3a52,52,0,0,0-.62-5.86l-.08-.57c-.74-5.25-1.19-9.61-1.43-13.7a120,120,0,0,1-.1-12.44,11,11,0,0,0,0-1.27c0-.33-.05-.66-.06-1,0-1.85-.11-3.72-.21-5.54l-.08-1.75c-.06-1.19-.12-2.43-.07-3.65,0-.42.05-.83.08-1.24a22.39,22.39,0,0,0,.08-2.3,20.29,20.29,0,0,0-.25-2.2l-.07-.5a51.25,51.25,0,0,1-.32-11.61,22.29,22.29,0,0,0-.41-5.32,22.24,22.24,0,0,1-.39-5.76,39,39,0,0,1,.7-4.08,27.56,27.56,0,0,0,.77-6.06,7.71,7.71,0,0,1,.29-2.08l.82-3.16a4.72,4.72,0,0,0,.1-.87,4.84,4.84,0,0,1,.09-.91,10.91,10.91,0,0,0,0-3.37,10.13,10.13,0,0,0-.5-2.45,6.22,6.22,0,0,0-.73-1.18l-.17-.24.82-.57.17.23a7.7,7.7,0,0,1,.85,1.4,11.15,11.15,0,0,1,.55,2.7,11.66,11.66,0,0,1,0,3.68,3.84,3.84,0,0,0-.08.76,5,5,0,0,1-.12,1.07l-.82,3.17a6.83,6.83,0,0,0-.26,1.8,28.64,28.64,0,0,1-.79,6.28c-.27,1.31-.55,2.65-.69,4a21.88,21.88,0,0,0,.39,5.51,23,23,0,0,1,.42,5.55,49.88,49.88,0,0,0,.31,11.39l.07.49a21.75,21.75,0,0,1,.26,2.31,24.06,24.06,0,0,1-.08,2.41c0,.4-.06.8-.08,1.21,0,1.18,0,2.39.07,3.57l.08,1.74c.09,1.82.19,3.71.21,5.57,0,.3,0,.61,0,.92a12.73,12.73,0,0,1,.05,1.38,120.92,120.92,0,0,0,.09,12.34c.24,4.07.7,8.4,1.43,13.62l.09.57a55.42,55.42,0,0,1,.62,6c0,1,0,2.06,0,3.06s0,1.81,0,2.71a26,26,0,0,0,.72,5.58l.1.38a7.71,7.71,0,0,1,.36,2.63,7.84,7.84,0,0,1-1.18,3.11c-.7,1.25-1.66,3-3.32,3.67A5.44,5.44,0,0,1,198.52,159.92Z"/>
    <path class="slds-illustration__fill-primary" d="M115.57,100.25c1.32.08,1.64.42,2.88,1.32.07-.64,1.13-1.46,1.47-1.5a5.2,5.2,0,0,1,2.09.76,5.41,5.41,0,0,0,1.74.74c1,.18,1.59,0,2.6.14l1.29.15c1.62.18,3.25-.09,4.87.1.53.06,1.31,0,2.2,0,.12,2.35,0,3.39.22,5.61-1.92-.18-3.85.08-5.84,0-1.38-.08-2.29-.37-3.42-.37s-1.8-.24-2.79-.32a31.53,31.53,0,0,1-3.75-.72,5.1,5.1,0,0,1-3.26-1.89c-.16-2-.29-2.14-.32-4.16"/>
    <path class="slds-illustration__fill-primary" d="M182.08,101.73c5.36-.4,11.44-.61,16.8-1a9.89,9.89,0,0,1,2.37,0c0,1.52,0,3.36,0,4.88a80,80,0,0,0-13.66.47c-1.66.18-4,.37-5.62.56Z"/>
    <path class="slds-illustration__fill-primary" d="M177.67,106.88c-9.24.41-19.24-.22-28.28.09-3.65.12-7,.14-10.12.27l.3-5.44c12.17.17,25.58.19,37.75-.07Z"/>
    <path class="slds-illustration__fill-secondary" d="M114.79,91.42c6.25,1.43,12.55,1.64,18.83,1.85"/>
    <path class="slds-illustration__fill-primary" d="M132.67,93.74h0l-2-.07a.51.51,0,0,1-.49-.52.5.5,0,0,1,.52-.48l2,.07a.49.49,0,0,1,.48.51A.5.5,0,0,1,132.67,93.74Zm-4-.16h0l-2-.1a.5.5,0,0,1-.47-.53.51.51,0,0,1,.53-.47l2,.1a.5.5,0,0,1,0,1Zm-4-.24h0l-2-.18a.5.5,0,1,1,.1-1l2,.17a.5.5,0,0,1,0,1Zm-4-.4h-.06l-2-.28a.5.5,0,0,1-.42-.57.51.51,0,0,1,.57-.42l2,.28a.5.5,0,0,1-.06,1Zm-4-.61h-.09c-.66-.13-1.32-.26-2-.41a.5.5,0,0,1,.23-1c.64.15,1.29.28,1.93.4a.51.51,0,0,1,.4.59A.49.49,0,0,1,116.75,92.33Z"/>
    <path class="slds-illustration__fill-primary" d="M167.77,94.35a.5.5,0,0,1-.5-.5.5.5,0,0,1,.5-.5l2,0h0a.5.5,0,0,1,0,1l-2,0Zm-2,0h0l-2,0a.5.5,0,0,1-.49-.51.5.5,0,0,1,.51-.49l2,0a.51.51,0,0,1,.5.51A.5.5,0,0,1,165.77,94.34Zm6-.06a.5.5,0,0,1,0-1l.95,0c.34,0,.68,0,1,0a.49.49,0,0,1,.54.46.49.49,0,0,1-.45.53c-.36,0-.71,0-1.07.06l-1,0Zm-31.9,0a.5.5,0,0,1-.47-.33.49.49,0,0,1,.29-.64,10.69,10.69,0,0,1,2-.54.51.51,0,0,1,.58.41.51.51,0,0,1-.41.58,9.74,9.74,0,0,0-1.84.49Zm21.9,0h0l-2-.06a.5.5,0,0,1-.48-.52.53.53,0,0,1,.52-.48l2,.06a.5.5,0,0,1,0,1Zm-4-.14h0l-2-.08a.51.51,0,0,1-.48-.53.52.52,0,0,1,.52-.47l2,.08a.5.5,0,0,1,0,1Zm-4-.18-2-.09a.5.5,0,0,1-.47-.53.49.49,0,0,1,.52-.47l1.95.09,0,.51Zm22-.13a.5.5,0,0,1-.47-.35.5.5,0,0,1,.31-.63l.16.48-.15-.48a.52.52,0,0,1,.65.28.48.48,0,0,1-.24.63l-.1,0A.41.41,0,0,1,175.72,93.82Zm-25.94-.06h0l-2-.1a.5.5,0,0,1-.48-.52.52.52,0,0,1,.53-.48l2,.1a.5.5,0,0,1,.48.53A.51.51,0,0,1,149.78,93.76Zm-4-.19h0c-.66,0-1.31,0-2,0a.54.54,0,0,1-.52-.49.5.5,0,0,1,.49-.51c.68,0,1.35,0,2,0a.5.5,0,0,1,0,1Z"/>
    <path class="slds-illustration__fill-primary" d="M182.1,92.79a.49.49,0,0,1-.5-.45.5.5,0,0,1,.45-.55l2-.17a.52.52,0,0,1,.54.46.5.5,0,0,1-.46.54l-2,.17Zm4-.33a.49.49,0,0,1-.49-.46.5.5,0,0,1,.45-.54c.66,0,1.33-.1,2-.17a.5.5,0,0,1,.09,1l-2,.17Zm4-.37a.51.51,0,0,1-.5-.44.5.5,0,0,1,.44-.56l2-.25a.52.52,0,0,1,.56.44.51.51,0,0,1-.44.56l-2,.24Zm4-.5a.49.49,0,0,1-.49-.44.5.5,0,0,1,.43-.56l2-.25a.51.51,0,0,1,.57.43.5.5,0,0,1-.44.56l-2,.26ZM198,91a.5.5,0,0,1-.12-1,7.4,7.4,0,0,0,1.6-.62.5.5,0,0,1,.48.88,8.49,8.49,0,0,1-1.83.71Z"/>
    <path class="slds-illustration__fill-primary" d="M182.06,95.85a.5.5,0,0,1,0-1l2-.14a.51.51,0,0,1,.53.46.5.5,0,0,1-.47.53c-.66,0-1.33.09-2,.15Zm4-.26a.51.51,0,0,1-.5-.48.5.5,0,0,1,.48-.52c.67,0,1.33-.07,2-.09a.48.48,0,0,1,.52.48.5.5,0,0,1-.48.52c-.66,0-1.33,0-2,.09Zm14,0h0l-2-.08a.5.5,0,0,1-.48-.51.51.51,0,0,1,.5-.49h0l2,.08a.5.5,0,0,1,0,1Zm-10-.1a.51.51,0,0,1-.5-.49.49.49,0,0,1,.49-.51l2,0h0a.5.5,0,0,1,0,1l-2,0Zm6,0h0l-2,0a.5.5,0,0,1-.5-.5.51.51,0,0,1,.5-.5h0l2,0a.5.5,0,0,1,.49.51A.49.49,0,0,1,196.05,95.41Z"/>
    <path class="slds-illustration__fill-primary" d="M182.05,99.59a.5.5,0,1,1,0-1l2,0h0a.5.5,0,0,1,0,1l-2,0Zm4,0a.5.5,0,0,1-.5-.49.51.51,0,0,1,.5-.51h2a.49.49,0,0,1,.5.49.51.51,0,0,1-.49.51h-2Zm4,0a.5.5,0,0,1,0-1l2,0h0a.5.5,0,0,1,0,1l-2,0Zm4,0a.5.5,0,0,1,0-1l2,0h0a.5.5,0,0,1,0,1l-2,0Zm4,0a.5.5,0,0,1-.5-.49.51.51,0,0,1,.5-.51l2,0a.52.52,0,0,1,.5.5.49.49,0,0,1-.49.5l-2,0Z"/>
    <path class="slds-illustration__fill-primary" d="M172,97.76a.5.5,0,0,1-.5-.5.5.5,0,0,1,.5-.5c.74,0,1.38,0,1.95-.08a.5.5,0,0,1,.09,1c-.6,0-1.27.08-2,.08Zm-2,0-2-.07a.5.5,0,0,1-.48-.52.53.53,0,0,1,.52-.48l1.92.06a.53.53,0,0,1,.52.51A.47.47,0,0,1,170,97.73Zm-4-.16h0l-2-.09a.5.5,0,0,1-.48-.52.52.52,0,0,1,.53-.48c.66,0,1.33.07,2,.09a.51.51,0,0,1,.48.53A.5.5,0,0,1,166,97.57Zm-4-.19h0l-2-.1a.5.5,0,0,1-.47-.52.48.48,0,0,1,.52-.48l2,.1a.51.51,0,0,1,.48.53A.5.5,0,0,1,162,97.38Zm-4-.2h0l-2-.1a.5.5,0,0,1-.48-.52.51.51,0,0,1,.53-.47l2,.09a.5.5,0,0,1,.47.53A.5.5,0,0,1,158,97.18ZM154,97h0l-2-.07a.5.5,0,0,1-.48-.52.54.54,0,0,1,.51-.48l2,.07a.5.5,0,0,1,0,1Zm-14,0a.5.5,0,0,1,0-1l2-.08a.52.52,0,0,1,.52.48.5.5,0,0,1-.48.52l-2,.08Zm10-.09h0l-2,0a.5.5,0,0,1-.49-.5.48.48,0,0,1,.51-.5l2,0a.5.5,0,0,1,.49.51A.51.51,0,0,1,150,96.87Zm-6,0a.49.49,0,0,1-.5-.49.51.51,0,0,1,.49-.51h2a.5.5,0,0,1,0,1h-2Z"/>
    <path class="slds-illustration__fill-primary" d="M139.77,100.57a.51.51,0,0,1-.5-.42.5.5,0,0,1,.42-.57c.66-.11,1.33-.21,2-.3a.49.49,0,0,1,.56.43.5.5,0,0,1-.43.56l-2,.29Zm20.77-.14-.87,0a.5.5,0,0,1,.05-1l.89,0,1.07,0a.52.52,0,0,1,.52.48.51.51,0,0,1-.49.52Zm13.11-.05h-.09l-.68-.14a9.91,9.91,0,0,0-1.24-.23.49.49,0,0,1-.45-.54.51.51,0,0,1,.55-.45,10,10,0,0,1,1.35.24l.65.14a.5.5,0,0,1-.09,1Zm2,0a.51.51,0,0,1-.48-.36.5.5,0,0,1,.33-.62l.22-.08a.49.49,0,0,1,.66.25.51.51,0,0,1-.25.66l-.33.12A.4.4,0,0,1,175.63,100.37Zm-11.94-.05a.5.5,0,0,1,0-1l2-.09a.51.51,0,0,1,.52.48.5.5,0,0,1-.48.52l-2,.09Zm-6-.08h0l-2-.18a.5.5,0,0,1-.46-.54.52.52,0,0,1,.55-.45l2,.18a.5.5,0,0,1-.05,1Zm10-.1a.5.5,0,0,1-.5-.47.51.51,0,0,1,.48-.53l2-.09a.51.51,0,0,1,.52.48.5.5,0,0,1-.48.52l-2,.09Zm-24-.1a.5.5,0,0,1,0-1c.67-.07,1.34-.13,2-.17a.48.48,0,0,1,.53.46.5.5,0,0,1-.46.54c-.66,0-1.32.09-2,.16Zm10-.14h0c-.66-.05-1.32-.08-2-.11a.5.5,0,0,1-.48-.52.51.51,0,0,1,.52-.48c.67,0,1.34.06,2,.11a.5.5,0,0,1,0,1Zm-6-.12a.5.5,0,0,1,0-1c.61,0,1.21,0,1.82,0h.19a.5.5,0,0,1,0,1h-.19c-.6,0-1.19,0-1.79,0Z"/>
    <path class="slds-illustration__fill-secondary" d="M115.25,95.46a36.92,36.92,0,0,0,4.82,0,11.49,11.49,0,0,1,1.88.19c.31.06.84.12,1.15.17a2.54,2.54,0,0,0,1,0,40.5,40.5,0,0,1,9.53,0"/>
    <path class="slds-illustration__fill-primary" d="M123.71,96.39a2.81,2.81,0,0,1-.56-.06.51.51,0,0,1-.42-.57.49.49,0,0,1,.57-.42h0a1.78,1.78,0,0,0,.66,0c.39-.07.78-.12,1.18-.16a.5.5,0,0,1,.55.45.5.5,0,0,1-.45.55c-.37,0-.75.08-1.13.15Zm9.48-.07h0c-.66-.06-1.33-.11-2-.15a.5.5,0,0,1-.47-.53.49.49,0,0,1,.53-.46l2,.14a.5.5,0,0,1,0,1Zm-4-.24h0c-.66,0-1.31,0-2,0a.48.48,0,0,1-.51-.49.5.5,0,0,1,.48-.51c.68,0,1.35,0,2,0a.5.5,0,0,1,.48.52A.49.49,0,0,1,129.2,96.08Zm-12.47,0a9.63,9.63,0,0,1-1.56-.11.5.5,0,0,1-.42-.57.51.51,0,0,1,.57-.42,9.87,9.87,0,0,0,1.91.09.5.5,0,0,1,.51.49.49.49,0,0,1-.48.51Zm4.51,0h-.07a10.36,10.36,0,0,0-1.12-.08h-.8c-.25.05-.5-.21-.51-.49a.5.5,0,0,1,.49-.51h.85a10,10,0,0,1,1.22.09.5.5,0,0,1-.06,1Z"/>
    <path class="slds-illustration__fill-secondary" d="M115.86,98.45c1.08.41,1.56,1,2.66.7.68-.16,1.35-.57,2-.67a6.54,6.54,0,0,1,2.22.3,21.7,21.7,0,0,0,3.69.21,28.33,28.33,0,0,1,7.08,1"/>
    <path class="slds-illustration__fill-primary" d="M133.45,100.5h-.13c-.63-.18-1.28-.33-1.92-.46a.5.5,0,0,1-.39-.59.51.51,0,0,1,.59-.39c.67.14,1.33.29,2,.47a.51.51,0,0,1,.35.62A.49.49,0,0,1,133.45,100.5Zm-3.92-.79h-.06c-.65-.09-1.31-.15-2-.18A.52.52,0,0,1,127,99a.49.49,0,0,1,.53-.47c.67,0,1.35.1,2,.19a.5.5,0,0,1,.43.56A.51.51,0,0,1,129.53,99.71Zm-11.83,0h-.07a4.33,4.33,0,0,1-1.19-.43c-.23-.11-.47-.23-.76-.34A.5.5,0,0,1,116,98a8.57,8.57,0,0,1,.84.38,3.44,3.44,0,0,0,.91.34.5.5,0,0,1,.42.57A.51.51,0,0,1,117.7,99.69Zm7.84-.21h0c-.69,0-1.37,0-2.05-.09a.5.5,0,0,1-.44-.55.51.51,0,0,1,.55-.45c.63.07,1.28.08,2,.09a.49.49,0,0,1,.49.5A.5.5,0,0,1,125.54,99.48Zm-5.91-.22a.5.5,0,0,1-.18-1,4.51,4.51,0,0,1,1-.31,3.59,3.59,0,0,1,1.18,0,.5.5,0,0,1,.4.58.49.49,0,0,1-.57.41,2.78,2.78,0,0,0-.86,0,4.42,4.42,0,0,0-.83.25A.39.39,0,0,1,119.63,99.26Z"/>
    <path class="slds-illustration__fill-secondary" d="M116.38,106.47a9.15,9.15,0,0,0,2.72,1.84,8.47,8.47,0,0,0,2.65.51l5.38.48a34.26,34.26,0,0,0,6.79.16"/>
    <path class="slds-illustration__fill-primary" d="M131.71,110.07a.5.5,0,0,1,0-1c.7,0,1.34,0,2-.09a.51.51,0,0,1,.55.45.5.5,0,0,1-.45.55c-.65.06-1.32.09-2,.09Zm-2-.06h0c-.67,0-1.34-.1-2-.16a.48.48,0,0,1-.45-.54.5.5,0,0,1,.54-.45q1,.09,2,.15a.5.5,0,0,1,0,1Zm-4-.33h0l-2-.18a.51.51,0,0,1-.45-.54.52.52,0,0,1,.54-.46l2,.18a.5.5,0,0,1,0,1Zm-4-.36h0a11.44,11.44,0,0,1-2.06-.31.5.5,0,0,1,.26-1,12.32,12.32,0,0,0,1.89.28.48.48,0,0,1,.45.54A.49.49,0,0,1,121.74,109.32ZM118,108.21a.5.5,0,0,1-.27-.08,14,14,0,0,1-1.62-1.29.48.48,0,0,1,0-.7.49.49,0,0,1,.7,0,14.74,14.74,0,0,0,1.51,1.2.5.5,0,0,1,.15.69A.51.51,0,0,1,118,108.21Z"/>
    <path class="slds-illustration__fill-primary" d="M144,110.05h-.53a.5.5,0,0,1-.5-.5.5.5,0,0,1,.5-.5h2v1Zm-2.53,0h0l-2,0a.5.5,0,0,1,0-1h0l2,0a.5.5,0,0,1,.5.5A.5.5,0,0,1,141.46,110.05Zm6,0a.49.49,0,0,1-.5-.49.51.51,0,0,1,.5-.51h2v1Zm17.68,0h-1.68a.5.5,0,0,1,0-1h2a.5.5,0,0,1,0,1Zm-13.68,0a.49.49,0,0,1-.5-.49.5.5,0,0,1,.5-.51h2a.5.5,0,0,1,0,1Zm10,0h-2a.5.5,0,0,1-.5-.5.5.5,0,0,1,.5-.5h2a.5.5,0,0,1,.5.51A.49.49,0,0,1,161.46,110Zm-6,0a.5.5,0,0,1-.5-.5.5.5,0,0,1,.5-.5h2a.5.5,0,0,1,.5.5.5.5,0,0,1-.5.5Zm12,0a.5.5,0,0,1,0-1c.66,0,1.32-.06,2-.11a.5.5,0,0,1,.07,1c-.67.05-1.34.09-2,.11Zm4-.29a.5.5,0,0,1,0-1l2-.22a.5.5,0,0,1,.56.43.51.51,0,0,1-.43.56l-2,.23Zm4-.49a.51.51,0,0,1-.5-.43.49.49,0,0,1,.43-.56l1.93-.27a.5.5,0,1,1,.13,1l-1.92.27Z"/>
    <path class="slds-illustration__fill-primary" d="M181.65,109.49a.51.51,0,0,1-.5-.49.49.49,0,0,1,.48-.51l2-.07a.5.5,0,1,1,0,1l-2,.07Zm4-.14a.5.5,0,0,1-.5-.48.51.51,0,0,1,.49-.52l2-.07a.51.51,0,0,1,.51.49.49.49,0,0,1-.48.51l-2,.07Zm4-.13a.51.51,0,0,1-.5-.49.5.5,0,0,1,.48-.51l2-.07a.5.5,0,0,1,0,1l-2,.07Zm4-.15a.5.5,0,0,1,0-1,4.25,4.25,0,0,0,1.33-.28,1.77,1.77,0,0,1,.63-.13.49.49,0,0,1,.53.47.5.5,0,0,1-.47.52,1.13,1.13,0,0,0-.31.06,5,5,0,0,1-1.63.36Zm3.85-.87a.5.5,0,0,1-.46-.3.51.51,0,0,1,.26-.66,9.5,9.5,0,0,1,2-.6.5.5,0,0,1,.58.4.48.48,0,0,1-.39.58,7.62,7.62,0,0,0-1.81.54A.48.48,0,0,1,197.49,108.2Z"/>
    <polygon class="slds-illustration__fill-primary" points="167.44 126.66 173.16 134.25 182.65 133.84 177.21 141.62 180.53 150.53 171.44 147.75 164 153.66 163.84 144.16 155.92 138.91 164.9 135.82 167.44 126.66"/>
    <path fill="#FFFFFF" d="M166,149.35l0-1.55a.52.52,0,0,1,.49-.51.42.42,0,0,1,.35.14l.51-.4a.5.5,0,1,1,.62.78Zm10.08-2.65a.48.48,0,0,1-.47-.33l-.7-1.87a.5.5,0,1,1,.93-.35l.7,1.87a.5.5,0,0,1-.29.65Zm-6.89,0a.5.5,0,0,1-.31-.89l1.57-1.24a.5.5,0,1,1,.62.78l-1.56,1.25A.55.55,0,0,1,169.23,146.67Zm5.38-.18a.39.39,0,0,1-.15,0l-1.91-.58a.5.5,0,0,1-.34-.63.51.51,0,0,1,.63-.33l1.91.59a.49.49,0,0,1,.33.62A.48.48,0,0,1,174.61,146.49Zm-8.13-.2a.5.5,0,0,1-.5-.49l0-2a.51.51,0,0,1,.49-.51.53.53,0,0,1,.51.49l0,2a.5.5,0,0,1-.49.51Zm8.24-3.34a.49.49,0,0,1-.47-.32l-.54-1.44.57-.81a.5.5,0,0,1,.82.57l-.27.38.36.95a.5.5,0,0,1-.47.67Zm-9.1-.23a.53.53,0,0,1-.27-.08l-1.67-1.11a.5.5,0,0,1,.55-.83l1.67,1.1a.51.51,0,0,1,.14.7A.5.5,0,0,1,165.62,142.72Zm-3.33-2.21a.48.48,0,0,1-.28-.08l-1.36-.9,2.27-.78a.5.5,0,0,1,.32.94l-.47.17a.55.55,0,0,1-.06.43A.52.52,0,0,1,162.29,140.51Zm13.55-1a.52.52,0,0,1-.29-.09.51.51,0,0,1-.12-.7l1.07-1.53a.41.41,0,0,1-.16,0l-2,.09a.51.51,0,0,1-.52-.48.5.5,0,0,1,.48-.52l2-.09a.52.52,0,0,1,.52.48.46.46,0,0,1,0,.21.48.48,0,0,1,.49,0,.5.5,0,0,1,.13.69l-1.15,1.64A.5.5,0,0,1,175.84,139.53ZM165,139.07a.5.5,0,0,1-.47-.34.5.5,0,0,1,.31-.63l1.89-.65a.5.5,0,1,1,.33.94l-1.89.65A.51.51,0,0,1,165,139.07Zm6.69-1.62L170.55,136a.5.5,0,0,1,.8-.61l.79,1h.16a.5.5,0,0,1,.52.47.51.51,0,0,1-.48.53Zm-4.13-.83-.13,0a.51.51,0,0,1-.35-.62l.54-1.93a.49.49,0,0,1,.61-.34.5.5,0,0,1,.35.61l-.54,1.93A.5.5,0,0,1,167.53,136.62Zm2.22-2a.49.49,0,0,1-.4-.2l-1.21-1.6a.5.5,0,0,1,.8-.6l1.21,1.6a.51.51,0,0,1-.1.7A.57.57,0,0,1,169.75,134.58Z"/>
    <path fill="#FFFFFF" d="M128,56.55a1.91,1.91,0,0,0-2.06.5,3.19,3.19,0,0,0-.78,2.06,10.57,10.57,0,0,0,.24,2.23A38,38,0,0,1,126,66.1a39.94,39.94,0,0,1-.78,9.25,2.75,2.75,0,0,0,.67,2.66,2.7,2.7,0,0,0,1.49.35c3.82.14,7.64.18,11.46.1a4,4,0,0,0,1.47-.21,2.55,2.55,0,0,0,1.62-1.83,12.82,12.82,0,0,0-.19-2.89c-.06-1-.06-2-.12-2.88s-.16-1.85-.15-2.79c.07-3.31,1-6.53.63-9.84a2,2,0,0,0-.6-1.3,1.5,1.5,0,0,0-1.28-.36,3.39,3.39,0,0,0-.84.17,2.36,2.36,0,0,1-.88,0A102,102,0,0,0,128,56.55Z"/>
    <path class="slds-illustration__fill-secondary" d="M129.07,56.74a1.7,1.7,0,0,0-1.92.5,3.31,3.31,0,0,0-.73,2.06,11.17,11.17,0,0,0,.22,2.23,42.49,42.49,0,0,1,.56,4.77,42.84,42.84,0,0,1-.73,9.25,2.86,2.86,0,0,0,.62,2.66,2.48,2.48,0,0,0,1.39.34c3.58.15,7.16.18,10.74.11a3.57,3.57,0,0,0,1.38-.22,2.45,2.45,0,0,0,1.51-1.83,13.44,13.44,0,0,0-.17-2.89c-.06-1-.07-2-.12-2.87s-.15-1.85-.13-2.8c.05-3.31.94-6.52.59-9.83a2.18,2.18,0,0,0-.57-1.31,1.37,1.37,0,0,0-1.2-.36,3.59,3.59,0,0,0-.79.17,2,2,0,0,1-.82.05A89.62,89.62,0,0,0,129.07,56.74Z"/>
    <path class="slds-illustration__fill-primary" d="M135,79c-2.54,0-5.09,0-7.6-.14a3.26,3.26,0,0,1-1.76-.44,3.16,3.16,0,0,1-.87-3.16,38.66,38.66,0,0,0,.77-9.13,38.12,38.12,0,0,0-.58-4.71l0-.12a10.2,10.2,0,0,1-.23-2.22,3.7,3.7,0,0,1,.92-2.38,2.4,2.4,0,0,1,2.5-.65l1.1,0a91.34,91.34,0,0,1,9.35.06,1.9,1.9,0,0,0,.68,0,4,4,0,0,1,1-.19,2.05,2.05,0,0,1,1.64.48,2.55,2.55,0,0,1,.76,1.62,25,25,0,0,1-.27,6,38.7,38.7,0,0,0-.36,3.9c0,.66,0,1.31.09,2l.06.76q0,.67.06,1.38c0,.5,0,1,.06,1.49,0,.28.06.57.1.88a6.75,6.75,0,0,1,.08,2.14,3,3,0,0,1-1.91,2.2,4.56,4.56,0,0,1-1.66.25C137.55,79,136.25,79,135,79Zm-7.58-22.08a1.54,1.54,0,0,0-1.07.47,2.68,2.68,0,0,0-.64,1.74,9.23,9.23,0,0,0,.21,2l0,.13a38.06,38.06,0,0,1,.6,4.83,39.56,39.56,0,0,1-.79,9.36,1.62,1.62,0,0,0,1.68,2.42c3.79.14,7.63.17,11.44.1a3.67,3.67,0,0,0,1.29-.18,2,2,0,0,0,1.32-1.46,6.06,6.06,0,0,0-.09-1.82c0-.33-.09-.65-.1-.94,0-.5-.06-1-.07-1.53s0-.91-.06-1.35l-.06-.75c-.05-.67-.1-1.37-.09-2.08a37.56,37.56,0,0,1,.37-4,23.81,23.81,0,0,0,.27-5.76,1.55,1.55,0,0,0-.44-1c-.26-.23-.42-.26-.93-.23a3.08,3.08,0,0,0-.71.14,2.83,2.83,0,0,1-1.07.07A89.33,89.33,0,0,0,129.2,57l-1.3,0-.11,0A1,1,0,0,0,127.37,56.92Z"/>
    <path class="slds-illustration__fill-primary" d="M141.45,27.84a7.83,7.83,0,0,1,.12-2.16c.05-.26.15-.57.39-.61a.4.4,0,0,1,.38.2,1.2,1.2,0,0,1,.16.46,8.37,8.37,0,0,1,.19,2.06A3.69,3.69,0,0,0,141.45,27.84Z"/>
    <path class="slds-illustration__fill-primary" d="M127.87,61.42a18.55,18.55,0,0,0-.3,4.65c0,1.06.05,2.12.09,3.18,0,.24,0,3.07,0,3.07a17.54,17.54,0,0,0,4.85.36h5.94c.77,0,1.42,0,1.62-.53a5.7,5.7,0,0,0-.13-.91c0-.43-.07-.86-.1-1.3-.06-.86-.09-1.73-.11-2.6a41.93,41.93,0,0,1,.12-4.34c0-.41.34-1.31-.07-1.53-.25-.13-.72,0-1,0-1.87,0-3.74,0-5.61,0C132.72,61.46,127.93,61.21,127.87,61.42Z"/>
    <path class="slds-illustration__fill-primary" d="M142.23,25.38c.11-.22-.12-.45-.49-.47l-9.68-.36a3.34,3.34,0,0,0-1.24.12,1.2,1.2,0,0,0-.69,1,147.24,147.24,0,0,0-2.55,31.16,1.12,1.12,0,0,0,1.11,1.08c3.28,0,6.61,0,10,.16a1.1,1.1,0,0,0,1.14-1.15c-.14-3.77.15-6.93.1-10.46a66.79,66.79,0,0,1,.63-8.93C141,33.8,141.34,27.15,142.23,25.38Z"/>
    <path class="slds-illustration__fill-primary" d="M128.15,112.22a76.83,76.83,0,0,0,1.18,14.42,5.76,5.76,0,0,0,1.35,3,5.24,5.24,0,0,0,4,1.45,4.62,4.62,0,0,0,3.09-1.49,5.66,5.66,0,0,0,1.14-2.45,40.77,40.77,0,0,0,1.32-8.3c.07-1.43.07-2.87.07-4.31l-.1-36.64A1.35,1.35,0,0,0,139,76.55c-1.85-.11-3.71-.16-5.57-.15-1.16,0-5-.26-5.77.34s-.1,3.14-.09,4l.08,4.29.33,17.57Z"/>
    <path class="slds-illustration__fill-secondary" d="M135.6,28.55A1.38,1.38,0,1,0,137,29.93,1.38,1.38,0,0,0,135.6,28.55Z"/>
    <ellipse class="slds-illustration__fill-secondary" cx="134.57" cy="39.4" rx="1.38" ry="1.49"/>
    <path class="slds-illustration__fill-secondary" d="M134.11,48.31A1.76,1.76,0,1,0,135.49,50,1.56,1.56,0,0,0,134.11,48.31Z"/>
    <path class="slds-illustration__fill-secondary" d="M134.05,85a1.71,1.71,0,1,0-1.51-1.69A1.6,1.6,0,0,0,134.05,85Z"/>
    <path class="slds-illustration__fill-secondary" d="M134.12,101a1.7,1.7,0,1,0-1.5-1.69A1.6,1.6,0,0,0,134.12,101Z"/>
    <ellipse class="slds-illustration__fill-secondary" cx="134.3" cy="114.95" rx="1.58" ry="1.69"/>
    <path class="slds-illustration__fill-secondary" d="M133.41,64.08a1.76,1.76,0,1,0,1.38,1.71A1.56,1.56,0,0,0,133.41,64.08Z"/>
    <path fill="#FFFFFF" d="M132.65,58.74a1.66,1.66,0,0,1,.9.13.71.71,0,0,1,.35.24.79.79,0,0,1,.1.34,2.78,2.78,0,0,1-.16,1.28c-.05.12-.1.24-.14.37a1.84,1.84,0,0,0-.06.41,24.45,24.45,0,0,0,0,3.73c0,.2.53.41.4.55s-.93.13-1.1,0a1,1,0,0,1-.33-.52,9.18,9.18,0,0,1-.32-2.67,18.89,18.89,0,0,0-.31-2.71C131.83,59.31,132,58.85,132.65,58.74Z"/>
    <path class="slds-illustration__fill-secondary" d="M133.17,58.74a1.64,1.64,0,0,1,.9.13.58.58,0,0,1,.45.58,2.78,2.78,0,0,1-.16,1.28c-.05.12-.1.24-.14.37a2.7,2.7,0,0,0-.06.41,24.45,24.45,0,0,0,0,3.73.69.69,0,0,1-.12.55.45.45,0,0,1-.58,0,1,1,0,0,1-.33-.52,9.17,9.17,0,0,1-.31-2.67,20.44,20.44,0,0,0-.31-2.71C132.35,59.31,132.54,58.85,133.17,58.74Z"/>
    <path fill="#FFFFFF" d="M187.57,55.81a1.9,1.9,0,0,1,2.05.5,3.14,3.14,0,0,1,.78,2.06,9.89,9.89,0,0,1-.24,2.23,38.36,38.36,0,0,0-.59,4.77,40,40,0,0,0,.78,9.25,2.08,2.08,0,0,1-2.15,3c-3.82.14-7.65.18-11.47.1a4,4,0,0,1-1.47-.21,2.5,2.5,0,0,1-1.61-1.83,12.25,12.25,0,0,1,.18-2.89c.06-1,.07-2,.13-2.87s.16-1.86.14-2.8c-.06-3.31-1-6.53-.63-9.84a2.08,2.08,0,0,1,.6-1.3,1.51,1.51,0,0,1,1.29-.36,3.58,3.58,0,0,1,.84.17,2.31,2.31,0,0,0,.87,0C180.62,55.57,184.16,55.72,187.57,55.81Z"/>
    <path class="slds-illustration__fill-secondary" d="M187.49,56a1.6,1.6,0,0,1,1.85.5,3.33,3.33,0,0,1,.71,2.05,11.27,11.27,0,0,1-.22,2.24,42,42,0,0,0-.53,4.76,44.12,44.12,0,0,0,.7,9.25,2.94,2.94,0,0,1-.6,2.66,2.25,2.25,0,0,1-1.34.35q-5.19.21-10.36.1a3.16,3.16,0,0,1-1.33-.22,2.44,2.44,0,0,1-1.46-1.82,14.06,14.06,0,0,1,.16-2.89c.06-1,.07-2,.12-2.88s.15-1.85.13-2.8c-.06-3.31-.91-6.52-.57-9.83a2.15,2.15,0,0,1,.54-1.31,1.29,1.29,0,0,1,1.16-.35,3.32,3.32,0,0,1,.76.16A1.92,1.92,0,0,0,178,56,81.26,81.26,0,0,1,187.49,56Z"/>
    <path class="slds-illustration__fill-primary" d="M180.62,78.26c-1.3,0-2.6,0-3.9,0a4.42,4.42,0,0,1-1.65-.25,3,3,0,0,1-1.92-2.2,7.05,7.05,0,0,1,.08-2.14c0-.31.08-.6.1-.87,0-.5,0-1,.07-1.5s0-.93.06-1.38l0-.76c.05-.68.1-1.33.09-2a33.47,33.47,0,0,0-.36-3.89,25.56,25.56,0,0,1-.27-6,2.63,2.63,0,0,1,.77-1.63,2,2,0,0,1,1.64-.48,4.06,4.06,0,0,1,1,.19,1.88,1.88,0,0,0,.68,0,91.48,91.48,0,0,1,9.36,0l1.09,0A2.42,2.42,0,0,1,190,56a3.65,3.65,0,0,1,.92,2.39,9.44,9.44,0,0,1-.22,2.2l0,.14a36,36,0,0,0-.59,4.7,38.78,38.78,0,0,0,.77,9.14,2.56,2.56,0,0,1-2.63,3.59C185.69,78.21,183.15,78.26,180.62,78.26ZM175.1,56.11a.87.87,0,0,0-.7.24,1.55,1.55,0,0,0-.43,1,23.92,23.92,0,0,0,.27,5.77,39.89,39.89,0,0,1,.36,4c0,.71,0,1.41-.09,2.08l-.06.76c0,.43,0,.89,0,1.35s0,1-.07,1.52c0,.3-.06.62-.11.94a6.09,6.09,0,0,0-.08,1.83,2.05,2.05,0,0,0,1.31,1.46,3.63,3.63,0,0,0,1.29.17c3.79.08,7.63,0,11.44-.1a2.33,2.33,0,0,0,1.22-.26c.52-.36.61-1.34.46-2.15a39.68,39.68,0,0,1-.79-9.37,40,40,0,0,1,.6-4.83l0-.13a8.64,8.64,0,0,0,.21-2,2.63,2.63,0,0,0-.64-1.73,1.38,1.38,0,0,0-1.49-.39l-.1,0-1.31,0a89.32,89.32,0,0,0-9.25,0,2.82,2.82,0,0,1-1.07-.07,3.77,3.77,0,0,0-.7-.14Z"/>
    <path class="slds-illustration__fill-primary" d="M174.12,27.11A8.63,8.63,0,0,0,174,25c-.05-.27-.16-.58-.4-.62a.38.38,0,0,0-.37.2,1.28,1.28,0,0,0-.17.46,8.37,8.37,0,0,0-.19,2.06A3.75,3.75,0,0,1,174.12,27.11Z"/>
    <path class="slds-illustration__fill-primary" d="M187.69,60.68a18.09,18.09,0,0,1,.3,4.65q0,1.59-.09,3.18c0,.24,0,3.07,0,3.07A17.54,17.54,0,0,1,183,72l-5.93,0c-.77,0-1.43,0-1.63-.52a5.7,5.7,0,0,1,.13-.91c0-.44.07-.87.1-1.3.06-.87.1-1.74.11-2.61,0-1.44,0-2.89-.11-4.33,0-.42-.35-1.32.06-1.54.25-.13.72,0,1,0,1.86,0,3.73,0,5.6,0C182.85,60.73,187.64,60.47,187.69,60.68Z"/>
    <path class="slds-illustration__fill-primary" d="M173.34,24.64c-.12-.22.11-.45.48-.46l9.68-.37a3.19,3.19,0,0,1,1.25.13,1.18,1.18,0,0,1,.68,1A146.58,146.58,0,0,1,188,56.1a1.11,1.11,0,0,1-1.1,1.08c-3.29,0-6.61,0-10,.16a1.11,1.11,0,0,1-1.14-1.15c.14-3.77-.15-6.93-.1-10.46A66.89,66.89,0,0,0,175,36.8C174.57,33.06,174.23,26.41,173.34,24.64Z"/>
    <path class="slds-illustration__fill-primary" d="M187.42,111.48a75.94,75.94,0,0,1-1.19,14.42,5.76,5.76,0,0,1-1.35,3,5.23,5.23,0,0,1-4,1.45,4.64,4.64,0,0,1-3.1-1.48,5.87,5.87,0,0,1-1.14-2.46,40,40,0,0,1-1.31-8.3c-.08-1.43-.08-2.87-.07-4.31l.09-36.63a1.34,1.34,0,0,1,1.26-1.34c1.85-.11,3.7-.16,5.56-.16,1.17,0,5-.26,5.77.35s.11,3.14.09,4l-.08,4.29-.32,17.58Z"/>
    <path class="slds-illustration__fill-secondary" d="M181.34,29.19A1.38,1.38,0,1,0,180,30.57,1.38,1.38,0,0,0,181.34,29.19Z"/>
    <path class="slds-illustration__fill-secondary" d="M181,40.15a1.49,1.49,0,1,0-1.38-1.49A1.43,1.43,0,0,0,181,40.15Z"/>
    <path class="slds-illustration__fill-secondary" d="M181.45,47.57a1.76,1.76,0,1,0,1.38,1.72A1.55,1.55,0,0,0,181.45,47.57Z"/>
    <path class="slds-illustration__fill-secondary" d="M181.52,80.89a1.7,1.7,0,1,0,1.5,1.69A1.61,1.61,0,0,0,181.52,80.89Z"/>
    <ellipse class="slds-illustration__fill-secondary" cx="181.44" cy="98.54" rx="1.5" ry="1.69"/>
    <path class="slds-illustration__fill-secondary" d="M181.26,112.52a1.7,1.7,0,1,0,1.58,1.69A1.64,1.64,0,0,0,181.26,112.52Z"/>
    <path class="slds-illustration__fill-secondary" d="M180.78,65.06a1.41,1.41,0,1,0,1.37-1.72A1.55,1.55,0,0,0,180.78,65.06Z"/>
    <path fill="#FFFFFF" d="M181.84,58a1.64,1.64,0,0,0-.9.13.75.75,0,0,0-.35.25.61.61,0,0,0-.1.33,2.84,2.84,0,0,0,.16,1.29,3.84,3.84,0,0,1,.14.36,2.7,2.7,0,0,1,.06.41,24.56,24.56,0,0,1,.05,3.74.67.67,0,0,0,.12.54,1.14,1.14,0,0,0,.94,0c.17-.13-.1-.33,0-.53a9.14,9.14,0,0,0,.31-2.66,20.58,20.58,0,0,1,.31-2.72C182.66,58.57,182.47,58.11,181.84,58Z"/>
    <path class="slds-illustration__fill-secondary" d="M182.39,58a1.66,1.66,0,0,0-.9.13.81.81,0,0,0-.35.25.71.71,0,0,0-.1.33A2.84,2.84,0,0,0,181.2,60a3.84,3.84,0,0,1,.14.36,1.84,1.84,0,0,1,.06.41,24.56,24.56,0,0,1,0,3.74.71.71,0,0,0,.12.54.47.47,0,0,0,.58,0,1,1,0,0,0,.33-.53,9.15,9.15,0,0,0,.32-2.66,19,19,0,0,1,.31-2.72C183.21,58.57,183,58.11,182.39,58Z"/>
    <path class="slds-illustration__fill-secondary" d="M118.94,104.61a2.64,2.64,0,0,0,0,1.25,4,4,0,0,0,.15.93,1.19,1.19,0,0,0,.6.7,2.13,2.13,0,0,0,.57.11,4,4,0,0,0,2.39-.21,5.23,5.23,0,0,0,.68-.48,3.57,3.57,0,0,1,2.29-1c0-.92,0-1.84,0-2.76a5,5,0,0,1-2.06-.51c-.33-.11-.64-.28-1-.41s-.69-.28-1-.44a2.1,2.1,0,0,0-1.37-.25l-.26,0a.39.39,0,0,0-.19.1,2.37,2.37,0,0,0-.89,2.26,46.94,46.94,0,0,0,5.81.18V105A24.68,24.68,0,0,1,118.94,104.61Z"/>
    <path class="slds-illustration__fill-primary" d="M122.94,105.06c-.37,0-1-.06-1.2-.08a2.31,2.31,0,0,1,1.17-.84,5.48,5.48,0,0,1,1.34,0,1.72,1.72,0,0,1,1.4.93,2.48,2.48,0,0,1,.22.93c.09.92.12,1.84.14,2.76,0,2,.11,4,.18,5.93s.29,4,.17,6c-.06,1-.15,3-1.39,3.29a3.18,3.18,0,0,1-1.5.07c-1.13-.27-1.35-1.39-1.42-2.4-.21-3.08-.22-6.18-.23-9.27v-4.16c0-.23-.06-.54.16-.59a4.54,4.54,0,0,0,.69-.21,9.58,9.58,0,0,0,.08,1.42,11,11,0,0,1,2.22.11,10.57,10.57,0,0,0,0-2.81,2,2,0,0,0-.23-.82.86.86,0,0,0-.57-.45A1.76,1.76,0,0,0,122.94,105.06Z"/>
    <path class="slds-illustration__fill-secondary" d="M125.54,121.42a1.38,1.38,0,0,1-2.76,0c0-1.57.62-1.37,1.38-1.37S125.49,119.87,125.54,121.42Z"/>
    <path class="slds-illustration__fill-secondary" d="M20.79,21.6h6a1.25,1.25,0,0,0,0-2.5h-6a1.25,1.25,0,0,0-1.25,1.25,1.27,1.27,0,0,0,1.25,1.25Z"/>
    <path class="slds-illustration__fill-secondary" d="M32.32,21.6H75.21a1.25,1.25,0,0,0,0-2.5H32.32a1.25,1.25,0,0,0,0,2.5Z"/>
    <path class="slds-illustration__fill-secondary" d="M92.22,18.79a7.75,7.75,0,0,0-3.36-.58A10,10,0,0,0,88,13.7,8.23,8.23,0,0,0,83.3,9.63a7.25,7.25,0,0,0-3.52-.31A9.55,9.55,0,0,0,62.86,5.57c-1.61,2.11-1.91,4.4-2,6.89H49A1.25,1.25,0,0,0,49,15H63.38V13.71c0-2.22-.1-4.29,1.16-6.22a7.08,7.08,0,0,1,12.88,2.59A8.65,8.65,0,0,0,73,16c-.33,1.57,2.08,2.25,2.41.67.71-3.41,4.08-6,7.55-4.46a5.81,5.81,0,0,1,3,3.11,9.94,9.94,0,0,1,.42,4.09h0v1.35h1.25A9.19,9.19,0,0,1,91,21a3.14,3.14,0,0,1,1.57,4.58c-.88,1.35-2.3,1.53-3.75,1.53h-50a1.25,1.25,0,0,0,0,2.5H62.58c8.92,0,17.85.07,26.77,0,3.16,0,6.06-2.17,6.17-5.51A5.72,5.72,0,0,0,92.22,18.79Z"/>
    <path class="slds-illustration__fill-secondary" d="M41.48,102.24V134l-4.89-5.32-1-1.09a1.25,1.25,0,1,0-1.77,1.77l7,7.65.63.69V152.2a1.25,1.25,0,0,0,2.5,0v-50A1.25,1.25,0,0,0,41.48,102.24Z"/>
    <polygon fill="#FFFFFF" points="69.83 81.03 49.83 147.21 89.84 147.21 69.83 81.03"/>
    <path class="slds-illustration__fill-secondary" d="M88.15,146H51.44l6.36-20.8L68.58,89.52,71,81.37a1.25,1.25,0,0,0-2.41-.67l-6.77,22.38L51.09,138.72l-2.46,8.15a1.26,1.26,0,0,0,1.2,1.59h40a1.26,1.26,0,0,0,1.2-1.59L84.28,124.5,73.5,88.85,71,80.7a1.25,1.25,0,0,0-2.41.67l6.76,22.37,10.78,35.65Z"/>
    <path class="slds-illustration__fill-secondary" d="M80.16,111.4a1.26,1.26,0,0,0-1.76,0l-7.32,6.66V82.55a1.25,1.25,0,0,0-2.5,0v47.16l-8-8.7-1.44-1.57c-1.09-1.19-2.86.58-1.77,1.77l10.14,11,1.07,1.17V153a1.25,1.25,0,0,0,2.5,0v-31.6l7.9-7.19,1.18-1.08A1.26,1.26,0,0,0,80.16,111.4Z"/>
  </g>
</svg>
