<svg id="backpack-sm" xmlns="http://www.w3.org/2000/svg" viewBox="0 0 49.7 49.7">
  <g>
    <path fill="#ffffff" d="M15.76,9.46c-1,.14-2.36-.39-3.08.3-.08,1-.2,2.7.65,3.25-1.64,8.46.61,18.15-.75,27,.26,2.42-2,7.43,1.05,8.34,8.86-.18,17.73.29,26.49-.14,1.2-3.25-.75-8.67-.8-12.54,0-4.29,0-8.46-.44-12.73-.38-3.45.62-6.4.34-10.51a8.34,8.34,0,0,0,.31-2.93C31.59,9.43,23.66,9.55,15.76,9.46Z"/>
    <path fill="#8dd1f3" d="M39.2,5.31A1,1,0,0,0,38,4.19c-1.62.56-1.5,3.33-2.29,4.68C39.57,9.34,39.84,9.25,39.2,5.31Z"/>
    <path fill="#c2e8ff" d="M39.81,8.65c-.06-1.06-.11-2.09-.23-3.13S39,3.07,37.85,3.11c-.67,0-1.63,0-2.3,0-1,.21-2.49-.48-3.13.57A18.06,18.06,0,0,0,31,8.9c1.77,0,3.22-.15,5-.16.65-1.18.74-2.85,1.47-4a.74.74,0,0,1,1.39.11,26.08,26.08,0,0,1,.44,4c.15,0,.32,0,.47,0Z"/>
    <path fill="#8dd1f3" d="M13,32.91a23.29,23.29,0,0,1-1.31,7.16c-.49,1.49-1,3.08-2.35,3.46-3.11,1.16-6.26,1.73-9.34.16,0,1.65,0,4.08,0,5.74a49.44,49.44,0,0,0,6.67.26,5.2,5.2,0,0,0,4-1.28c1.3-1.11,1.62-3.28,2.48-6.59C12.94,38.74,13.48,35.74,13,32.91Z"/>
    <path fill="#8dd1f3" d="M49.55,40.33c-.3-5.06-3.07-8.78-7.11-11.33-2.48-1.71-5-3.53-7.9-4.42.16,2.16.39,4.42.69,6.64l.14.55c5.25,3.05,11.19,4.62,12,11.86l1.09,3.6,1.18-3.55A12.55,12.55,0,0,0,49.55,40.33Z"/>
    <path fill="#c2e8ff" d="M49.26,37.89a7.22,7.22,0,0,0-.76-2.18,15.08,15.08,0,0,0-5.24-6.15c3.23,4,4.76,10.22,3.47,13.34-.78,1.48-1.92,1.63-3.28,1.75a3.67,3.67,0,0,1-2.09-.31c-1.88-.87-3.63-3.47-4.88-5.2A54.76,54.76,0,0,0,37.12,47a8.89,8.89,0,0,0,8.53,2.37C50,47.86,50.15,43,49.26,37.89Z"/>
    <path fill="#8dd1f3" d="M13.5,5.31a1,1,0,0,1,1.17-1.12c1.62.56,1.5,3.33,2.29,4.68C13.13,9.34,12.86,9.25,13.5,5.31Z"/>
    <path fill="#c2e8ff" d="M21.65,8.77a18.18,18.18,0,0,0-1.37-5.08c-.64-1-2.12-.36-3.13-.57-.67,0-1.63,0-2.3,0-1.18,0-1.71,1.29-1.73,2.41S13,7.68,12.88,8.79c.15,0,.32,0,.47,0a26.37,26.37,0,0,1,.44-4,.74.74,0,0,1,1.39-.11c.72,1.15.82,2.82,1.47,4,1.79,0,3.24.2,5,.16Z"/>
    <path fill="#8dd1f3" d="M22.84,5.44c-.33-7.81,7.77-6.81,7.33.44A6.34,6.34,0,0,0,22.84,5.44Z"/>
    <path fill="#c2e8ff" d="M24.54.74l-.2-.16C23.39,2,22.55,3.39,21.67,4.85,21,6.14,21.42,7.71,21,9.06c.93,0,1.89-.09,2.82,0C23.88,6.43,23.21,3,24.54.74Z"/>
    <path fill="#c2e8ff" d="M31.77,7.5C31.71,5,30,2.79,28.77,1l-.21.13c1,2.17.41,5.51.68,8a13.66,13.66,0,0,0,2.55-.16Z"/>
    <path fill="#c2e8ff" d="M18.06,11.14c-.9.13-2.19-.37-2.86.29-.07.93-.19,2.59.61,3.12-1.53,8.1.56,17.38-.7,25.82.24,2.31-1.85,7.12,1,8,8.21-.18,16.44.27,24.56-.14,1.11-3.11-.69-8.3-.74-12,0-4.11,0-8.1-.41-12.19-.35-3.31.58-6.13.32-10.07a8.68,8.68,0,0,0,.29-2.81C32.74,11.11,25.38,11.23,18.06,11.14Z"/>
    <path fill="#8dd1f3" d="M41.76,46.1a27.62,27.62,0,0,0-.5-5.38c-.16-1.54-.44-3.19-.69-4.73-.09-2.14,0-4.14,0-6.23l-.08-2.14c0-2.47-.39-5-.23-7.48-.1-2.74.9-5.54-.07-8.17a9.07,9.07,0,0,0,.19-1.73c0-.42.15-1.52-.86-1.92l-.92,0c-1.76,0-3.83.05-5.45,0-6.76.06-13.4,0-20.12,0-1,0-1.27,1.18-1.16,2a5.51,5.51,0,0,0,.44,2.48c-1.08,2.48.2,5.26-.05,7.91-.23,4.29-.19,8.56-.09,12.86.24,3.84-.6,7.64-.68,11.49,0,1.27-.51,2.77.45,3.81a2.31,2.31,0,0,0,1.7.8c2.42,0,4.83-.05,7.24,0,4.28,0,8.66,0,13,0,2.1-.1,4.3.37,6.37-.21A3.24,3.24,0,0,0,41.76,46.1Zm-1.56.47A1.57,1.57,0,0,1,39.54,48c-8.57.21-17.27-.05-25.85.07-1.33-.16-.45-2.13-.6-3,0-3.64.88-7.12.68-10.75,0-2.78-.15-5.62-.08-8.41a59.69,59.69,0,0,0-.12-9.74c0-.85-.34-2,.21-2.67.23-.28.57-.75.77-1l-.8-.43c-.33-.35-.25-1.58-.29-2.13,6.6,0,13.09,0,19.7,0,1.11,0,2.21,0,3.58,0,.67,0,1.38,0,2.11,0a10.3,10.3,0,0,1-.19,1.75l-.3.49c.23.34.49.44.55.94a15.43,15.43,0,0,1-.08,4.55c-.22,1.76-.11,3.47-.17,5.23.07,1.53.28,3,.27,4.58L39,29.78c0,2.11-.11,4.1,0,6.26C39.46,39.55,40.24,43.05,40.2,46.57Z"/>
    <path fill="#8dd1f3" d="M19.62,11.86c-1.27.06-9.2-.6-6,1.81C14.62,13.14,23,14.36,19.62,11.86Z"/>
    <path fill="#8dd1f3" d="M32,11.71c-1.41.46-14.32-1.09-10.48,1.78C22.78,12.93,35.92,14.57,32,11.71Z"/>
    <path fill="#8dd1f3" d="M40.09,12c-.62-.94-2.1-.19-3.07-.43-1.09.15-3.76-.59-3.83,1.1a.8.8,0,0,0,.93.63C35.55,12.56,40.33,14.35,40.09,12Z"/>
    <path fill="#8dd1f3" d="M31.17,8.9a2.67,2.67,0,0,0,0-.63c0-.07,0-.16-.11-.18a.14.14,0,0,0-.11.06.57.57,0,0,0,0,.14,1.94,1.94,0,0,0-.06.59A1.43,1.43,0,0,1,31.17,8.9Z"/>
    <path fill="#8dd1f3" d="M13.64,28.59c.43.05.53.25.94.78a1.36,1.36,0,0,1,.47-.89c.23-.08.95.82,1.25.89a11.18,11.18,0,0,1,1.26.17c.81.06,1.45,0,2.3.06,0,1.39,0,2,.07,3.31-.62-.1-1.25.05-1.9,0s-1.31-.23-2-.41c-.89-.3-1.78-.34-2.27-1.54-.05-1.15-.1-1.26-.1-2.45"/>
    <path fill="#8dd1f3" d="M33.62,29.46c1.54-.23,3.28-.36,4.82-.6a1.38,1.38,0,0,1,.67,0c0,.9,0,2,0,2.89a11.26,11.26,0,0,0-3.91.27c-.47.11-1.13.22-1.61.33Z"/>
    <path fill="#8dd1f3" d="M32.17,32.5c-3.62.21-7.45-.16-11,.22l.09-3.22c3.48.1,7.33.11,10.81,0Z"/>
    <path fill="#ffffff" d="M17.94,17a.55.55,0,0,0-.59.15.92.92,0,0,0-.22.6,2.79,2.79,0,0,0,.07.64,12.87,12.87,0,0,1,.17,1.39,12,12,0,0,1-.23,2.68.81.81,0,0,0,.2.77.68.68,0,0,0,.42.1c1.1,0,2.19.05,3.29,0a1,1,0,0,0,.42-.06.74.74,0,0,0,.46-.53,4,4,0,0,0-.05-.84c0-.28,0-.57,0-.83s0-.54,0-.81A21.22,21.22,0,0,0,22,17.42a.64.64,0,0,0-.17-.38.44.44,0,0,0-.37-.1,1,1,0,0,0-.24,0A.7.7,0,0,1,21,17C19.93,16.92,18.92,17,17.94,17Z"/>
    <path fill="#c2e8ff" d="M18.92,17.05c-.8-.23-1,.81-.79,1.39a10,10,0,0,1-.05,4.07c-.12.48.13.92.65.87a30.3,30.3,0,0,0,3.93,0,.74.74,0,0,0,.49-.53c0-.82-.14-1.66-.14-2.49-.05-1,.55-2.27,0-3.23a.45.45,0,0,0-.39-.1C21.41,17.11,20.12,17,18.92,17.05Z"/>
    <path fill="#8dd1f3" d="M24.26,22.19h0c0-.6-.09-1.26-.11-1.86,0-1.45,1.23-4.85-1.45-4.22-1.52-.07-3-.05-4.52,0-1.26-.29-2,1-1.59,2.12a9,9,0,0,1-.08,4.53A1.18,1.18,0,0,0,17,24.08c1.31.41,2.66.14,4,.23C22.59,24.32,24.89,24.56,24.26,22.19Zm-1-1.15c.06.52,0,1,.13,1.55s.07.71-.35.82a41.39,41.39,0,0,1-5.57-.05c-.09,0-.12-.24-.07-.44a11.11,11.11,0,0,0,.33-3.21c0-.59-.29-1.57-.34-2.3A.45.45,0,0,1,18,17c1.7-.12,3.44.08,5.16-.07.26,0,.25,0,.31.2C23.67,18.36,23.07,19.73,23.27,21Z"/>
    <path fill="#8dd1f3" d="M21.8,9.05a2.15,2.15,0,0,1,0-.62c0-.08.05-.17.11-.18a.11.11,0,0,1,.11.06.29.29,0,0,1,.05.13,2.43,2.43,0,0,1,0,.6A1,1,0,0,0,21.8,9.05Z"/>
    <path fill="#8dd1f3" d="M18.51,18.58a16.17,16.17,0,0,0-.06,3.11,26.57,26.57,0,0,0,3.57.1c.26,0,.48,0,.54-.15A11.4,11.4,0,0,1,22.49,19c0-.12.11-.38,0-.44C21.32,18.61,19.58,18.54,18.51,18.58Z"/>
    <path fill="#8dd1f3" d="M23.71,7.77c0-.07,0-.14-.18-.14-.29,0-4-.16-4.19-.07a.36.36,0,0,0-.26.29,32.33,32.33,0,0,0-1,9c0,.17.19.31.42.31,1.26,0,2.53,0,3.82.05.25,0,.45-.15.44-.34A33.39,33.39,0,0,1,23.71,7.77Z"/>
    <path fill="#8dd1f3" d="M18.32,33.55c.14,1.59-.12,3.77,1,5.06a2.45,2.45,0,0,0,2.73,0c.95-1.23.94-2.9,1-4.37l0-10.64c0-.2-.21-.37-.48-.39a25,25,0,0,0-4.34.06c-.32.19,0,.91,0,1.15Z"/>
    <path fill="#ffffff" d="M20.1,17.63a1,1,0,0,1,.72.17c.17.27,0,.6-.11.86a7.32,7.32,0,0,0-.07,1.81c0,.09.31.18.24.24-1,.35-1-.7-1-1.39S19.24,17.77,20.1,17.63Z"/>
    <path fill="#c2e8ff" d="M20.4,17.63a1,1,0,0,1,.73.17.9.9,0,0,1-.12.86c-.2.63,0,1.59-.13,2.05-.72.24-.68-.93-.71-1.39S19.54,17.77,20.4,17.63Z"/>
    <path fill="#8dd1f3" d="M31.16,8.84a2.67,2.67,0,0,0,0-.63c0-.07,0-.16-.11-.17a.13.13,0,0,0-.11.05.58.58,0,0,0,0,.14,2.36,2.36,0,0,0-.05.6A1.1,1.1,0,0,1,31.16,8.84Z"/>
    <path fill="#c2e8ff" d="M17.24,36.21a.4.4,0,1,1-.79,0c0-.45.18-.4.39-.4S17.22,35.76,17.24,36.21Z"/>
    <path fill="#ffffff" d="M33,17a.53.53,0,0,1,.58.15.93.93,0,0,1,.23.6,2.79,2.79,0,0,1-.07.64,10.77,10.77,0,0,0-.17,1.39,11.47,11.47,0,0,0,.22,2.68.78.78,0,0,1-.19.77.68.68,0,0,1-.42.1c-1.1,0-2.19.05-3.29,0a1,1,0,0,1-.42-.06.74.74,0,0,1-.46-.53,3.42,3.42,0,0,1,.05-.84c0-.28,0-.57,0-.83s0-.54,0-.81a21.22,21.22,0,0,1-.18-2.86A.58.58,0,0,1,29.1,17a.44.44,0,0,1,.37-.1,1,1,0,0,1,.24,0A.7.7,0,0,0,30,17C31,16.92,32,17,33,17Z"/>
    <path fill="#c2e8ff" d="M34.43,17.05c.8-.23,1,.81.79,1.39a9.8,9.8,0,0,0,.06,4.07c.11.48-.14.92-.66.87a30.3,30.3,0,0,1-3.93,0,.79.79,0,0,1-.49-.53c0-.82.14-1.66.14-2.49.05-1-.55-2.27,0-3.23a.46.46,0,0,1,.39-.1C31.94,17.11,33.23,17,34.43,17.05Z"/>
    <path fill="#8dd1f3" d="M36.4,22.75a10.69,10.69,0,0,1-.32-3c0-.63.34-1.6.35-2.4a1.37,1.37,0,0,0-1.7-1.26c-1.48,0-3-.06-4.52,0a1.55,1.55,0,0,0-1.29.14,1,1,0,0,0-.42.72,18.05,18.05,0,0,0,.26,3.36c0,.61-.09,1.24-.11,1.86a3,3,0,0,0-.07,1.09c.1.66,1.08,1.08,1.72,1,1.59,0,3.19,0,4.78,0A1.18,1.18,0,0,0,36.4,22.75Zm-6.88-3.82a4.29,4.29,0,0,1,0-2s.05,0,.14,0c1.74.14,3.52,0,5.26.07.67-.23.71.59.54,1.1a9.82,9.82,0,0,0,.08,4.87c0,.2,0,.4-.07.44-1.66.17-3.41.08-5.12.09-.31,0-.7,0-.84-.35a4.48,4.48,0,0,1,.09-.85A12.31,12.31,0,0,0,29.52,18.93Z"/>
    <path fill="#8dd1f3" d="M34.4,18.58a16.17,16.17,0,0,1,.06,3.11,26.67,26.67,0,0,1-3.58.1c-.25,0-.47,0-.53-.15A11.4,11.4,0,0,0,30.42,19c0-.12-.11-.38,0-.44C31.59,18.61,33.32,18.54,34.4,18.58Z"/>
    <path fill="#8dd1f3" d="M29.2,7.77c-.05-.07,0-.14.18-.14.29,0,4-.16,4.18-.07a.37.37,0,0,1,.27.29,32.71,32.71,0,0,1,1,9c0,.17-.19.31-.42.31-1.26,0-2.53,0-3.83.05-.24,0-.44-.15-.43-.34A33.39,33.39,0,0,0,29.2,7.77Z"/>
    <path fill="#8dd1f3" d="M34.59,33.55c-.14,1.59.12,3.77-1,5.06a2.45,2.45,0,0,1-2.73,0c-.95-1.23-.94-2.9-1-4.37l0-10.64c0-.2.21-.37.48-.39a25.05,25.05,0,0,1,4.34.06c.32.19,0,.91,0,1.15Z"/>
    <path fill="#ffffff" d="M32.49,17.63a1,1,0,0,0-.73.17.9.9,0,0,0,.12.86c.2.63,0,1.59.13,2.05.73.24.68-.93.71-1.39S33.35,17.77,32.49,17.63Z"/>
    <path fill="#c2e8ff" d="M32.77,17.63a1,1,0,0,0-.73.17.9.9,0,0,0,.12.86c.2.63,0,1.59.13,2.05.72.24.68-.93.71-1.39S33.63,17.77,32.77,17.63Z"/>
  </g>
</svg>
