<svg xmlns="http://www.w3.org/2000/svg" viewBox="0 0 304 181">
  <g>
    <path class="slds-illustration__fill-primary" d="M185.78,110.19c.39,4.66,1.09,10.19,1.7,14.83,5.31,2.84,10.62,5.73,15.93,8.57,4.73,2.52,9.6,5.18,13.94,10.12a39.15,39.15,0,0,1,8.94,20.8c.56-3.37,0-7.3-.37-11-.71-6.94-2.35-11.94-5.48-16.8a43.86,43.86,0,0,0-12.92-13.18c-5.36-3.63-10.72-7.36-16.13-10.57A34,34,0,0,0,185.78,110.19Z"/>
    <path class="slds-illustration__fill-secondary" d="M226.22,167.79l-.38-3.23A39.07,39.07,0,0,0,217,144c-4.38-5-9.39-7.66-13.81-10q-4.41-2.36-8.81-4.74l-7.11-3.83-.21-.11,0-.23c-.63-4.75-1.32-10.23-1.71-14.85l-.06-.72.67.25a33.17,33.17,0,0,1,5.69,2.83c4.54,2.68,9.1,5.78,13.51,8.78l2.65,1.8a44.15,44.15,0,0,1,13.05,13.31c3.18,4.94,4.84,10,5.55,17l.14,1.36a37.24,37.24,0,0,1,.23,9.74Zm-38.31-43.07,6.91,3.73c2.93,1.58,5.87,3.17,8.8,4.73,4.49,2.4,9.58,5.11,14.07,10.22a38.84,38.84,0,0,1,8.37,17c-.06-1.78-.25-3.62-.45-5.43l-.14-1.37c-.7-6.82-2.32-11.78-5.41-16.6a43.43,43.43,0,0,0-12.79-13l-2.65-1.8c-4.4-3-9-6.09-13.47-8.76a35.29,35.29,0,0,0-4.85-2.49C186.69,115.25,187.32,120.29,187.91,124.72Z"/>
    <polygon fill="#FFFFFF" points="42.75 113.72 28.49 160.84 57.01 160.84 42.75 113.72"/>
    <path class="slds-illustration__fill-secondary" d="M54.8,159H30.55L34.77,145l7.46-24.62,1.72-5.7c.47-1.54-1.94-2.2-2.41-.67l-4.7,15.53-7.45,24.62-1.73,5.7a1.26,1.26,0,0,0,1.21,1.58H56.62a1.26,1.26,0,0,0,1.21-1.58l-4.7-15.52-7.45-24.62L44,114a1.25,1.25,0,0,0-2.41.67l4.7,15.52,7.45,24.62Z"/>
    <path class="slds-illustration__fill-secondary" d="M194.08,81.26h6A1.26,1.26,0,0,0,201.32,80a1.28,1.28,0,0,0-1.25-1.25h-6a1.25,1.25,0,0,0,0,2.5Z"/>
    <path class="slds-illustration__fill-secondary" d="M205.61,81.26h42.91a1.25,1.25,0,0,0,0-2.5H205.61a1.25,1.25,0,0,0,0,2.5Z"/>
    <path class="slds-illustration__fill-secondary" d="M265.54,78.46a7.93,7.93,0,0,0-3.36-.59,10,10,0,0,0-.91-4.5,8.22,8.22,0,0,0-4.66-4.06,7.38,7.38,0,0,0-3.52-.32,9.56,9.56,0,0,0-16.93-3.73c-1.61,2.1-1.9,4.39-2,6.87H222.27a1.25,1.25,0,0,0,0,2.5h14.42V73.38c0-2.21-.09-4.29,1.17-6.21a7.08,7.08,0,0,1,12.88,2.59,8.61,8.61,0,0,0-4.45,5.86c-.33,1.57,2.08,2.24,2.41.67.71-3.41,4.08-6,7.55-4.45a5.75,5.75,0,0,1,3,3.11,9.86,9.86,0,0,1,.42,4.08h0v1.35h1.25a9.18,9.18,0,0,1,3.35.24,3.13,3.13,0,0,1,1.57,4.58c-.87,1.35-2.3,1.53-3.74,1.53H212.05a1.25,1.25,0,0,0,0,2.49h23.83c8.93,0,17.86.08,26.78,0,3.16,0,6.06-2.16,6.17-5.5A5.71,5.71,0,0,0,265.54,78.46Z"/>
    <path class="slds-illustration__fill-secondary" d="M1.21,168H290.57c3.9,0,7.81.08,11.71,0h.51a1.25,1.25,0,0,0,0-2.49H13.43c-3.9,0-7.81-.08-11.71,0H1.21a1.25,1.25,0,0,0,0,2.49Z"/>
    <path class="slds-illustration__fill-primary" d="M33.36,181H245.7c2.86,0,5.73.07,8.6,0h.36a1.25,1.25,0,0,0,0-2.5H42.33c-2.86,0-5.73-.06-8.6,0h-.37a1.25,1.25,0,0,0,0,2.5Z"/>
    <path class="slds-illustration__fill-primary" d="M261.25,181h6.18a1.26,1.26,0,0,0,1.25-1.25,1.28,1.28,0,0,0-1.25-1.25h-6.18a1.25,1.25,0,0,0,0,2.5Z"/>
    <path class="slds-illustration__fill-primary" d="M109.56,150.51c-.12,5.14-2.16,9.4-4.22,13a17.61,17.61,0,0,1-3.23,4.43,8.92,8.92,0,0,1-4.3,1.85c-9.94,2.09-20,3.11-29.92.27,0,3-.08,7.4-.12,10.4,9.78.6,14.18.47,21.36.48,5.27,0,8.66-.3,12.82-2.32s8.16-5.85,10.91-11.85A111.52,111.52,0,0,0,109.56,150.51Z"/>
    <path fill="#FFFFFF" d="M118.22,52.33c-2.93,0-5.59-.1-8.52.07a1.32,1.32,0,0,0-1.18.92,10.89,10.89,0,0,0-.12,3.14c.09,2.56.1,6.18,2.19,7.3a11.06,11.06,0,0,0-1.46,1.92c-.91,2-.73,4.62-.56,6.81s.23,4.46.52,6.67a53.43,53.43,0,0,1,.53,9.7c-.28,5.4-.39,10.87-.55,16.24-.11,4,0,7.74,0,11.71.06,4.12.22,8.2.23,12.32,0,3.68,0,7.44,0,11.13a56.89,56.89,0,0,1-1.1,10.14c-.69,3.5-.55,7.08-.83,10.67s-.22,7-.63,10.44a5,5,0,0,0,4.76,5.71c3.46.06,6.94-.07,10.4-.07,18,0,35.9.12,53.63,0,5.83,0,11.54.41,17.36,0a5.35,5.35,0,0,0,1.77-.39c1.88-.94,2.71-2.91,3.33-4.64.42-1.18-.05-2.56.12-3.8a32,32,0,0,0-.09-4.15,42.21,42.21,0,0,0-.68-6.54c-.29-1.85-.56-3.73-.81-5.55-.18-1.34-.32-2.65-.5-4-.29-2.23-.63-4.51-1-6.75a36.91,36.91,0,0,1-.74-4.39c-.09-2.52-.11-5-.11-7.48,0-2.07.17-4.11.17-6.17v-5.92l-.24-6.8a50,50,0,0,0-.28-6.81c-.27-1.9-.21-3.84-.39-5.75-.06-.68-.2-1.83-.21-2.51,0-2.37.13-5,.13-7.47a56.74,56.74,0,0,1,.38-8.55c.4-2.52.5-5,.68-7.59a29.21,29.21,0,0,0-.44-7.56,5.3,5.3,0,0,0-1.12-2.69c.83-1.35.73-4.06.91-5.94.13-1.27.26-2.9-1-3.38-2.75,0-5.41-.07-8.21,0-3.78,0-7.38.06-11.26,0C154.66,52.35,136.72,52.6,118.22,52.33Z"/>
    <path class="slds-illustration__fill-secondary" d="M191.55,161.07A86.74,86.74,0,0,0,192.84,174a25.42,25.42,0,0,0,23.61,6c3.59-.89,6.15-3.41,8.15-7.58,3.41-7.11,2.67-16.61,1.05-25a20.67,20.67,0,0,0-2.09-5.93,51.84,51.84,0,0,1,1.82,11.63c.17,3.88-.28,7.86-1.79,10.94a12.16,12.16,0,0,1-5.86,5.75,20.67,20.67,0,0,1-7.33,1.57,19.43,19.43,0,0,1-5-.17,12.82,12.82,0,0,1-3.34-1.14,20.61,20.61,0,0,1-2.56-1.56A33.48,33.48,0,0,1,191.55,161.07Z"/>
    <path class="slds-illustration__fill-primary" d="M116.12,42.59a5.23,5.23,0,0,1,.8-2.37,1.54,1.54,0,0,1,1.33-.49,1.06,1.06,0,0,1,.65.2,2,2,0,0,1,.45.62,23.37,23.37,0,0,1,1.46,2.82c1.12,2.65,2.08,6.94,3.26,9.5-.09-.2-1.12,0-1.3,0H117.2a4.7,4.7,0,0,1-1.76-1,8.2,8.2,0,0,1,0-2c0-.75.07-1.5.12-2.25C115.71,45.89,115.86,44.22,116.12,42.59Z"/>
    <path class="slds-illustration__fill-secondary" d="M123.68,51.91c-1-1.63-1.39-3.93-2-6a22.82,22.82,0,0,0-2-4.87c-.45-.8-1.18-1.44-1.77-1.43s-1,.78-1.28,1.62a36.71,36.71,0,0,0-.86,5.91c-.14,1.33-.28,3.36-.36,4.76l-.62,0c.09-1.34.15-2.87.25-4.09s.16-2.45.31-3.71a17.55,17.55,0,0,1,.79-4.43,3.94,3.94,0,0,1,3.83-2.77c1-.06,2.18,0,3.27,0h3.17c.92,0,1.82.09,2.78.07,1.19,0,2.36-.08,3.54-.08a2.57,2.57,0,0,1,2.14,1.42,21.12,21.12,0,0,1,1.88,4.84c.5,1.67.66,3,1,4.41.27,1.14.55,2.28.72,3.48.07.48.15.78.19,1.17C133.67,52.27,128.68,52,123.68,51.91Z"/>
    <path class="slds-illustration__fill-primary" d="M144.52,37.36a17.34,17.34,0,0,1,.23-2.17,22.34,22.34,0,0,1,.38-2.22,8.75,8.75,0,0,1,1.57-3.65,5.5,5.5,0,0,1,2-1.57,10.2,10.2,0,0,1,5.66-.24,7.2,7.2,0,0,1,2.06.71,10.27,10.27,0,0,1,2.34,2.43,8.28,8.28,0,0,1,1,2.93c.11.45.16.92.27,1.37a14.31,14.31,0,0,1,.47,3.24,7.78,7.78,0,0,0-1.29-.66c-.33-.17-.64-.44-1-.6a19.55,19.55,0,0,0-2.28-.84,15.24,15.24,0,0,0-2.45-.57,7,7,0,0,0-1.89,0c-.63.06-1.27,0-1.89.15s-1.48.26-2.21.41a10.45,10.45,0,0,0-1.38.51,7.26,7.26,0,0,0-1.36.63A2.45,2.45,0,0,0,144.52,37.36Z"/>
    <path class="slds-illustration__fill-secondary" d="M146.81,29.34a13.92,13.92,0,0,0-2,6.08,53.09,53.09,0,0,0-.33,6.93c0,3.27.22,6.47.21,9.74-2.34-.1-4.71,0-7.06.12a9.12,9.12,0,0,0,.24-1.45,20.38,20.38,0,0,0,.37-3.93,16.43,16.43,0,0,1,.24-2.82,8.52,8.52,0,0,1,.92-2.9A25,25,0,0,1,141.15,38a8.81,8.81,0,0,0,1.18-1.64c.4-.77,1.19-1.66,1.58-2.44A23,23,0,0,1,146.81,29.34Z"/>
    <path class="slds-illustration__fill-secondary" d="M160.61,52.35q-.29-5-.17-9.92c0-1.11.07-2.22,0-3.33a21.9,21.9,0,0,0-1.79-8.67,91.8,91.8,0,0,1,7,11.26,11,11,0,0,1,.71,2.38c.12.7.25,1.39.36,2.1,0,.32,0,.65.12,1s.09.36.12.55a3.94,3.94,0,0,1,0,.6l0,3.66a25.12,25.12,0,0,1-3.77.31,9.93,9.93,0,0,0-1.22,0A5.42,5.42,0,0,1,160.61,52.35Z"/>
    <path class="slds-illustration__stroke-primary slds-illustration__fill-primary" stroke-miterlimit="10" stroke-width="0.25" d="M180.6,51.87l.52-1.43a10.67,10.67,0,0,0,.38-1.17c.13-.59.19-1.22.34-1.79a9.29,9.29,0,0,1,.43-1.12c.29-.7.56-1.44.83-2.18a10.7,10.7,0,0,0,.38-1.21,4.25,4.25,0,0,1,.45-1.41c.22-.3.57-.39.67-.85.14-.63.71-.69,1.09-.87a1.42,1.42,0,0,1,1.06-.14,1.4,1.4,0,0,1,.79,1.1c0,.17,0,.36.06.54a9.09,9.09,0,0,0,.15.91c.09.44.19.87.3,1.3.06.25.13.49.17.75s0,.38.06.57c.19,2.31.28,4.65.25,7C185.87,51.91,183.26,51.91,180.6,51.87Z"/>
    <path class="slds-illustration__fill-secondary" d="M165.22,51.81,167.8,42a15.3,15.3,0,0,1,.71-2.26,5.84,5.84,0,0,1,1.73-2.33c1-.75,2-.52,3.1-.49s2.33,0,3.49,0,2.34,0,3.5,0,2,0,3.11,0c.82,0,1.66.15,2.47.25a2.89,2.89,0,0,1,2.2,2.29,19.19,19.19,0,0,1,.67,3.27,19,19,0,0,1,.26,2.08c.12,1.51.22,2.72.31,4.15.07,1,.14,2,.14,3.07h-1.08c0-1.71-.12-3.41-.24-5.11-.07-1.12-.21-2.2-.31-3.31a14.58,14.58,0,0,0-.6-3,1.26,1.26,0,0,0-1.12-.93,2.5,2.5,0,0,0-1.46,1.14,10.42,10.42,0,0,0-1.49,3.29c-.38,1.19-.72,2.42-1.14,3.59-.25.71-.48,1.39-.72,2.23s-.36,1.41-.56,2.09A98.47,98.47,0,0,1,165.22,51.81Z"/>
    <path class="slds-illustration__fill-secondary" d="M111.8,66.65s.51,0,.47,0l-.06,0c-1.39-1.45-1.41-4.45-1.49-6.65a10.4,10.4,0,0,1,.12-3.07A1.31,1.31,0,0,1,112,56c2.88-.16,5.5-.1,8.38-.06,18.21.26,35.87,0,54.29,0,3.82.07,7.36.07,11.08,0,2.76-.08,5.37,0,8.08,0,1.21.47,1.08,2.07.95,3.3-.18,1.84-.07,4.5-.89,5.82a5.08,5.08,0,0,1,1.1,2.63,28.92,28.92,0,0,1,.44,7.41c-.19,2.49-.29,5-.67,7.43a54.2,54.2,0,0,0-.38,8.36c0,2.43-.16,5-.13,7.32,0,.66.14,1.79.21,2.45.17,1.87.12,3.78.38,5.64a47.68,47.68,0,0,1,.27,6.66l.24,6.65v5.8c0,2-.16,4-.16,6,0,2.43,0,4.87.1,7.33A35.47,35.47,0,0,0,196,143c.35,2.19.68,4.43,1,6.6.17,1.31.31,2.6.49,3.91.24,1.78.51,3.62.79,5.43a40.47,40.47,0,0,1,.68,6.4,30.76,30.76,0,0,1,.08,4.07c-.16,1.21.3,2.57-.12,3.72-.6,1.69-1.42,3.62-3.27,4.54a4.94,4.94,0,0,1-1.74.38c-5.73.4-11.35,0-17.09,0-17.44.12-35.07,0-52.78,0-3.41,0-6.84.13-10.24.07a4.87,4.87,0,0,1-4.69-5.59c.41-3.41.37-6.79.63-10.22s.13-7,.81-10.44a55.47,55.47,0,0,0,1.08-9.93c.06-3.61,0-7.29,0-10.9,0-4-.17-8-.23-12.06,0-3.88-.14-7.57,0-11.46.16-5.25.26-10.61.54-15.89a52.13,52.13,0,0,0-.52-9.5c-.28-2.16-.34-4.35-.51-6.53s-.35-4.72.55-6.67a3.16,3.16,0,0,1,.49-.77c0-.05-.29-.23-.25-.27Z"/>
    <path class="slds-illustration__fill-primary" d="M188.19,179.16c-1.88,0-3.75,0-5.59-.09-2.08,0-4.22-.1-6.34-.08-11.93.07-24.16,0-36,0-7.46,0-14.93-.09-22.44,0-2,0-4.17.06-6.26,0a5.68,5.68,0,0,1-4.26-2,6.16,6.16,0,0,1-1.44-4.8c.24-2,.33-4.14.41-6.17.06-1.4.11-2.85.22-4.29.09-1.18.14-2.38.19-3.54a46.25,46.25,0,0,1,.66-7.28,56.15,56.15,0,0,0,1.1-10c0-2.86,0-5.8,0-8.65v-2.51c0-2.42-.07-4.86-.13-7.23,0-1.71-.08-3.42-.1-5.14l0-1.77c-.05-3.4-.1-6.62,0-10l.1-3.73c.12-4.14.23-8.43.45-12.61a53,53,0,0,0-.53-9.58c-.19-1.52-.29-3-.38-4.54,0-.74-.09-1.48-.15-2.22-.16-2.12-.39-5,.65-7.29a5.17,5.17,0,0,1,1-1.4c-1.62-1.66-1.72-4.73-1.8-7.07l0-.85a9.54,9.54,0,0,1,.17-3,2.28,2.28,0,0,1,2-1.61c2.78-.15,5.34-.11,8.06-.07h.6c13,.19,25.51.12,38.72,0,5.61,0,11.26,0,17-.06,3.54.07,7,.07,11.36,0,2.1-.06,4.17,0,6.17,0l2.14,0h.17l.16.06c1.91.75,1.68,3.08,1.56,4.34,0,.45-.07,1-.1,1.49a13.75,13.75,0,0,1-.66,4.29,6.54,6.54,0,0,1,.95,2.62,29.9,29.9,0,0,1,.47,7.85l-.12,1.69c-.13,2-.26,4-.58,6a48.66,48.66,0,0,0-.37,7.54v.91c0,1.13,0,2.3-.07,3.45,0,1.42-.08,2.76-.06,4,0,.5.09,1.3.15,1.94l0,.52c.08.83.12,1.68.15,2.49.05,1.13.09,2.19.24,3.25a43.18,43.18,0,0,1,.29,6.29v.68l.24,6.79v6c0,1.06,0,2.12-.08,3.14s-.08,2-.08,3.06c0,2.2,0,4.81.1,7.5a16,16,0,0,0,.42,2.66c.12.54.24,1.08.32,1.63.39,2.39.72,4.68,1,6.81l.24,1.91c.08.7.16,1.39.26,2.09.25,1.83.52,3.72.81,5.57l0,.32a40.25,40.25,0,0,1,.66,6.39c0,.49,0,1,.07,1.49a13.79,13.79,0,0,1,0,2.8,7.57,7.57,0,0,0,0,1.42,6.22,6.22,0,0,1-.18,2.59c-.74,2.07-1.71,4.13-3.82,5.17a6.06,6.06,0,0,1-2.13.49C192,179.12,190.07,179.16,188.19,179.16Zm-11.21-2c1.91,0,3.81,0,5.66.09,3.63.09,7.38.17,11.08-.09a4.22,4.22,0,0,0,1.44-.3c1.6-.79,2.34-2.55,2.91-4.14a4.79,4.79,0,0,0,.08-1.84,9,9,0,0,1,0-1.8,11.63,11.63,0,0,0,0-2.43c0-.54-.08-1.08-.08-1.62a38.64,38.64,0,0,0-.63-6.11l0-.32c-.29-1.86-.57-3.77-.82-5.6-.1-.71-.18-1.42-.27-2.12s-.15-1.26-.23-1.89c-.28-2.11-.62-4.39-1-6.76-.08-.52-.19-1-.3-1.53a17,17,0,0,1-.46-3c-.1-2.71-.11-5.34-.11-7.56,0-1,0-2.11.08-3.13s.09-2.05.09-3.07v-6l-.24-7.5a43.05,43.05,0,0,0-.28-6,33.38,33.38,0,0,1-.25-3.42c0-.79-.07-1.61-.14-2.4l-.05-.51c-.07-.67-.16-1.51-.17-2.09,0-1.33,0-2.75.07-4.12,0-1.14.06-2.28.06-3.4V87.6a50.3,50.3,0,0,1,.4-7.82c.3-1.94.43-3.84.56-5.85l.12-1.71a28.35,28.35,0,0,0-.44-7.36,4.27,4.27,0,0,0-.93-2.28l-.43-.51.35-.57c.51-.81.6-2.51.69-4,0-.55.05-1.09.1-1.57.1-1,.16-2.07-.29-2.39h-1.92c-2,0-4,0-6.12,0-4.36.05-7.87.05-11.42,0q-8.53,0-17,.07c-13.22.07-25.71.13-38.75-.06h-.61c-2.68,0-5.21-.08-7.93.07a.41.41,0,0,0-.35.26,8.11,8.11,0,0,0-.12,2.4l0,.87c.08,2.26.18,5.35,1.72,6.18l.93.49-.62.85a7.66,7.66,0,0,1-.66.79,3.58,3.58,0,0,0-.72,1c-.84,1.83-.64,4.46-.49,6.39q.09,1.13.15,2.25c.09,1.45.18,3,.37,4.41a54.58,54.58,0,0,1,.55,9.91c-.23,4.17-.34,8.44-.45,12.57l-.11,3.73c-.09,3.38-.05,6.58,0,10l0,1.77c0,1.71.07,3.42.11,5.13.06,2.37.12,4.83.12,7.26l0,2.51c0,2.86,0,5.81,0,8.69a58,58,0,0,1-1.13,10.37,44.09,44.09,0,0,0-.63,7c-.05,1.18-.09,2.4-.19,3.61-.1,1.41-.16,2.84-.22,4.23-.08,2.06-.17,4.19-.42,6.3a4.37,4.37,0,0,0,1,3.39,3.91,3.91,0,0,0,2.91,1.33c2.06,0,4.17,0,6.21,0,7.52-.1,15,0,22.46,0,11.83,0,24.07,0,36,0Z"/>
    <path class="slds-illustration__fill-primary" d="M112,65.31a.93.93,0,0,1-.9-.72.91.91,0,0,1,.7-1.09c3.62-.81,7.93-.68,12.09-.56,2.27.07,4.63.14,6.86.06a.92.92,0,1,1,.06,1.83c-2.29.09-4.67,0-7,0-4.24-.13-8.24-.25-11.64.51Z"/>
    <path class="slds-illustration__fill-primary" d="M136.59,64.93a.91.91,0,0,1-.22-1.8,18.49,18.49,0,0,1,4.48-.34c9.76.07,19.64,0,29.36-.29h0a.92.92,0,0,1,.91.89.9.9,0,0,1-.89.94c-9.74.26-19.64.36-29.43.29a17.2,17.2,0,0,0-4,.29Z"/>
    <path class="slds-illustration__fill-primary" d="M176.59,64.29a.91.91,0,0,1-.18-1.81,45.38,45.38,0,0,1,9.92-.48l1.81,0c.93,0,1.85,0,2.78,0l.79,0a5.65,5.65,0,0,0,1.81-.11.92.92,0,1,1,.75,1.67,6.27,6.27,0,0,1-2.62.27c-.25,0-.49,0-.69,0-1,0-1.9,0-2.85,0l-1.82,0a43.26,43.26,0,0,0-9.52.44Z"/>
    <path class="slds-illustration__fill-primary" d="M167.62,52a7.73,7.73,0,0,0-.11-2c0-.24-.14-.52-.36-.56a.36.36,0,0,0-.35.18,1.17,1.17,0,0,0-.15.42,8,8,0,0,0-.17,1.89A3.36,3.36,0,0,1,167.62,52Z"/>
    <path class="slds-illustration__fill-primary" d="M190,173.58a14.92,14.92,0,0,1-1.52-.1,298.37,298.37,0,0,0-29.85-.79l-23.81.17a164.57,164.57,0,0,1-17.72-.55c-.53-.05-1.08-.06-1.61-.07a16.85,16.85,0,0,1-2.12-.12.92.92,0,0,0-.36,0,1.36,1.36,0,0,1-1.39-.39,4.55,4.55,0,0,1-1.28-2,3.54,3.54,0,0,1,.21-2,5.43,5.43,0,0,0,.29-1.74c0-.25,0-.51.06-.76s.05-.62.08-.94a16.53,16.53,0,0,1,.18-1.74c.06-.31.11-.64.15-1,.08-.51.16-1,.27-1.55a15.47,15.47,0,0,0,.23-2.58v-.36l.06-1.15c0-.66.08-1.34.07-2v-.09a21.12,21.12,0,0,1,.11-3.28c.1-.67.14-1.38.18-2.06s.07-1.19.14-1.78c.12-1,.17-2.06.22-3.07l0-.6c0-.54.08-1.12.14-1.69.08-.72.15-1.46.16-2.14a29.33,29.33,0,0,1,.55-5.43,20.45,20.45,0,0,0,.33-3.2c0-.57,0-1.14.11-1.74a30.35,30.35,0,0,0,.09-3.31v-1.35a21.69,21.69,0,0,0-.35-4.45,19.68,19.68,0,0,1-.31-2.79c-.06-.77-.11-1.56-.23-2.38l0-.16a19.7,19.7,0,0,1-.24-2.14,8.64,8.64,0,0,0-.44-2.06c-.13-.43-.26-.87-.35-1.32a9.13,9.13,0,0,1,0-2.86c0-.35.1-.68.17-1a4,4,0,0,0,.07-2,7.48,7.48,0,0,1-.17-2.77l0-.62a11.27,11.27,0,0,0,0-2.9,3.74,3.74,0,0,1,.1-1.48,5.67,5.67,0,0,0,.11-.64,9.86,9.86,0,0,0-.08-1.85,10.54,10.54,0,0,1-.08-2,18.43,18.43,0,0,0,0-2.23c0-.56,0-1.12,0-1.7l0-.76a19.51,19.51,0,0,0-.1-3.34c-.14-.93-.21-1.86-.28-2.77,0-.66-.1-1.32-.17-2a12.79,12.79,0,0,0-.27-1.44,15.19,15.19,0,0,1-.39-2.73c0-.38-.06-.75-.1-1.1a11,11,0,0,1-.12-1.61A19.48,19.48,0,0,1,111,68a13.5,13.5,0,0,1,.4-1.69l.06-.21a3.27,3.27,0,0,1,1.13-1.79l.56.72a2.49,2.49,0,0,0-.81,1.32l-.06.21a11.86,11.86,0,0,0-.37,1.59,18.86,18.86,0,0,0-.26,3,13.15,13.15,0,0,0,.12,1.5c0,.37.08.76.11,1.16a14,14,0,0,0,.37,2.58,14.92,14.92,0,0,1,.28,1.54c.07.67.13,1.34.18,2,.06.88.13,1.8.27,2.69a19.78,19.78,0,0,1,.1,3.51l0,.75c0,.56,0,1.1,0,1.64a18.44,18.44,0,0,1,0,2.35,10.63,10.63,0,0,0,.08,1.84,10.76,10.76,0,0,1,.09,2c0,.26-.08.51-.13.75a2.7,2.7,0,0,0-.09,1.13,12.15,12.15,0,0,1,0,3.13l0,.61a6.91,6.91,0,0,0,.13,2.44,4.82,4.82,0,0,1,0,2.39c-.06.31-.12.62-.16.94a8.52,8.52,0,0,0,0,2.57c.09.43.21.84.33,1.25a9.06,9.06,0,0,1,.47,2.28c0,.72.14,1.39.24,2l0,.16c.13.86.19,1.67.24,2.46a22.7,22.7,0,0,0,.3,2.67,22.43,22.43,0,0,1,.37,4.64v1.33a30.21,30.21,0,0,1-.1,3.41c0,.58-.08,1.14-.1,1.69a20.86,20.86,0,0,1-.35,3.34,28.58,28.58,0,0,0-.53,5.27c0,.72-.09,1.48-.16,2.21-.06.56-.12,1.12-.15,1.65l0,.6c0,1-.1,2.07-.22,3.13-.07.57-.1,1.15-.13,1.72s-.09,1.43-.19,2.14a20.27,20.27,0,0,0-.1,3.13v.1c0,.69,0,1.39-.07,2.06,0,.38,0,.76-.06,1.13v.36a15.69,15.69,0,0,1-.25,2.74c-.1.5-.18,1-.26,1.5,0,.33-.1.66-.16,1-.09.51-.13,1.09-.17,1.64,0,.34-.05.67-.08,1s0,.47-.05.71a6.05,6.05,0,0,1-.36,2,2.61,2.61,0,0,0-.17,1.49,3.78,3.78,0,0,0,1,1.56c.22.22.3.2.59.15a1.76,1.76,0,0,1,.67,0,14.28,14.28,0,0,0,2,.12,16.14,16.14,0,0,1,1.69.07,165.19,165.19,0,0,0,17.62.54l23.81-.17a297.29,297.29,0,0,1,29.94.8,6.42,6.42,0,0,0,3.1-.2,6.18,6.18,0,0,0,2.61-3,6.41,6.41,0,0,0,1-2.48,6.3,6.3,0,0,0-.31-2.1l-.09-.36a24.33,24.33,0,0,1-.69-5.32c0-.84,0-1.68,0-2.52s0-1.84,0-2.75a50.64,50.64,0,0,0-.57-5.37l-.07-.52c-.68-4.81-1.1-8.81-1.32-12.56s-.25-7.61-.09-11.4a9.4,9.4,0,0,0,0-1.17c0-.3,0-.6,0-.89,0-1.69-.11-3.41-.19-5.07l-.08-1.6c-.05-1.1-.11-2.23-.06-3.36,0-.37,0-.75.07-1.13a18.73,18.73,0,0,0,.07-2.1,20,20,0,0,0-.22-2l-.07-.45a46.76,46.76,0,0,1-.29-10.64,20.1,20.1,0,0,0-.38-4.87,20.42,20.42,0,0,1-.36-5.29c.13-1.26.39-2.52.64-3.74a24.75,24.75,0,0,0,.71-5.55,7.1,7.1,0,0,1,.27-1.9l.75-2.91a3.89,3.89,0,0,0,.09-.79,5,5,0,0,1,.08-.84,9.66,9.66,0,0,0,0-3.08,9.43,9.43,0,0,0-.46-2.25,5.69,5.69,0,0,0-.67-1.08l-.16-.23.76-.52.15.22a6.65,6.65,0,0,1,.78,1.28,9.94,9.94,0,0,1,.51,2.47,10.65,10.65,0,0,1,0,3.38,3.93,3.93,0,0,0-.06.69,4.77,4.77,0,0,1-.12,1L193,74.46a6.07,6.07,0,0,0-.24,1.65,25.74,25.74,0,0,1-.73,5.76c-.24,1.19-.5,2.43-.63,3.65a20,20,0,0,0,.36,5,21.2,21.2,0,0,1,.38,5.09,46.14,46.14,0,0,0,.29,10.44l.07.45a20.83,20.83,0,0,1,.23,2.12,20,20,0,0,1-.07,2.2c0,.37-.06.74-.07,1.11-.05,1.09,0,2.2.06,3.27l.08,1.6c.08,1.67.17,3.4.19,5.11,0,.27,0,.55,0,.84s.06.85.05,1.27a109.39,109.39,0,0,0,.08,11.31c.22,3.73.64,7.69,1.32,12.48l.07.52a49.44,49.44,0,0,1,.58,5.47c0,.93,0,1.88,0,2.8s0,1.66,0,2.48a23.12,23.12,0,0,0,.66,5.12l.09.35a7.17,7.17,0,0,1,.33,2.41,7.32,7.32,0,0,1-1.08,2.85c-.65,1.14-1.53,2.71-3.05,3.36A5.07,5.07,0,0,1,190,173.58Z"/>
    <path class="slds-illustration__fill-primary" d="M113.84,118.88c1.22.08,1.51.39,2.65,1.22.06-.59,1-1.34,1.35-1.38a5.13,5.13,0,0,1,1.92.7,5.07,5.07,0,0,0,1.59.68c.9.17,1.46,0,2.39.13l1.18.13c1.49.17,3-.08,4.48.09.48.06,1.2,0,2,0,.11,2.16,0,3.11.2,5.14-1.76-.16-3.53.08-5.36,0-1.26-.07-2.09-.34-3.14-.34s-1.65-.22-2.56-.29a30,30,0,0,1-3.44-.66,4.74,4.74,0,0,1-3-1.73c-.14-1.79-.26-2-.29-3.82"/>
    <path class="slds-illustration__fill-primary" d="M174.89,120.24c4.92-.37,10.5-.56,15.42-.93a9.26,9.26,0,0,1,2.17,0c0,1.39,0,3.08,0,4.47a73.9,73.9,0,0,0-12.53.43c-1.53.17-3.64.34-5.17.51Z"/>
    <path class="slds-illustration__fill-primary" d="M170.85,125c-8.49.37-17.66-.21-26,.08-3.35.11-6.42.12-9.29.24l.27-5c11.17.15,23.48.17,34.66-.07Z"/>
    <path class="slds-illustration__fill-primary" d="M113.13,110.79c5.73,1.31,11.51,1.51,17.28,1.7"/>
    <path class="slds-illustration__fill-primary" d="M129.54,112.92h0l-1.84-.07a.46.46,0,1,1,0-.91l1.83.06a.46.46,0,0,1,0,.92Zm-3.67-.14h0l-1.84-.1a.47.47,0,0,1-.43-.49.48.48,0,0,1,.49-.43l1.83.1a.46.46,0,0,1,0,.92Zm-3.66-.23h0l-1.83-.16a.46.46,0,0,1-.42-.5.48.48,0,0,1,.51-.41l1.82.16a.46.46,0,0,1,0,.91Zm-3.65-.36h-.06c-.61-.07-1.22-.16-1.83-.25a.47.47,0,0,1-.39-.52.48.48,0,0,1,.53-.39c.6.1,1.2.18,1.8.25a.47.47,0,0,1,.4.52A.46.46,0,0,1,118.56,112.19Zm-3.63-.57h-.09c-.6-.12-1.21-.24-1.81-.38a.47.47,0,0,1-.35-.55.47.47,0,0,1,.55-.35c.6.14,1.19.26,1.78.38a.45.45,0,0,1-.08.9Z"/>
    <path class="slds-illustration__fill-primary" d="M161.75,113.48a.46.46,0,0,1-.45-.46.45.45,0,0,1,.45-.46l1.83,0h0a.46.46,0,0,1,0,.92l-1.84,0Zm-1.83,0h0l-1.84,0a.46.46,0,0,1,0-.92l1.83,0a.46.46,0,1,1,0,.91Zm5.51,0a.46.46,0,0,1,0-.92l.88,0c.31,0,.62,0,.93,0a.46.46,0,0,1,.5.42.47.47,0,0,1-.42.5l-1,0-.88,0Zm-29.29,0a.46.46,0,0,1-.43-.3.48.48,0,0,1,.27-.59,10.79,10.79,0,0,1,1.86-.49.46.46,0,1,1,.15.91,10,10,0,0,0-1.69.44A.41.41,0,0,1,136.14,113.41Zm20.11,0h0l-1.83-.05a.47.47,0,0,1-.45-.48.5.5,0,0,1,.48-.44l1.83.06a.47.47,0,0,1,.45.47A.45.45,0,0,1,156.25,113.4Zm-3.67-.12h0l-1.84-.08a.45.45,0,0,1-.43-.48.48.48,0,0,1,.47-.44l1.84.08a.46.46,0,0,1,0,.92Zm-3.69-.16-1.84-.09a.46.46,0,0,1-.43-.48.45.45,0,0,1,.48-.44l1.79.09,0,.46Zm20.17-.13a.45.45,0,0,1-.44-.31.46.46,0,0,1,.29-.58l.15.43-.14-.44a.47.47,0,0,1,.59.26.45.45,0,0,1-.22.58l-.09,0Zm-23.82,0h0l-1.83-.09a.46.46,0,0,1-.44-.48.47.47,0,0,1,.48-.44l1.84.09a.46.46,0,0,1,0,.92Zm-3.66-.17h0c-.6,0-1.2,0-1.8,0a.48.48,0,0,1-.48-.44.47.47,0,0,1,.44-.48c.63,0,1.25,0,1.87,0a.46.46,0,0,1,0,.92Z"/>
    <path class="slds-illustration__fill-primary" d="M174.91,112.05a.46.46,0,0,1-.46-.42.47.47,0,0,1,.42-.5l1.83-.15a.47.47,0,0,1,.49.42.45.45,0,0,1-.42.49l-1.82.16Zm3.66-.3a.46.46,0,0,1,0-.92c.61,0,1.21-.09,1.82-.15a.46.46,0,0,1,.09.91l-1.84.16Zm3.65-.35a.45.45,0,0,1-.45-.4.46.46,0,0,1,.4-.51l1.81-.22a.46.46,0,0,1,.52.39.46.46,0,0,1-.4.51l-1.82.23Zm3.64-.45a.46.46,0,0,1-.05-.91l1.82-.23a.45.45,0,1,1,.12.9l-1.83.24Zm3.63-.56a.46.46,0,0,1-.44-.34.46.46,0,0,1,.32-.57,6.25,6.25,0,0,0,1.47-.57.46.46,0,1,1,.44.81,7.74,7.74,0,0,1-1.67.65Z"/>
    <path class="slds-illustration__fill-primary" d="M174.87,114.85a.46.46,0,0,1,0-.91l1.84-.14a.47.47,0,0,1,.48.43.46.46,0,0,1-.42.49l-1.83.13Zm3.67-.24a.46.46,0,0,1,0-.91l1.83-.09a.44.44,0,0,1,.48.45.46.46,0,0,1-.44.47l-1.83.08Zm12.84,0h0l-1.83-.07a.46.46,0,0,1-.44-.47.46.46,0,0,1,.46-.45h0l1.84.07a.46.46,0,0,1,0,.92Zm-9.17-.1a.46.46,0,1,1,0-.91c.61,0,1.22,0,1.84,0h0a.46.46,0,0,1,0,.91l-1.83,0Zm5.5,0h-1.83a.47.47,0,0,1-.46-.46.46.46,0,0,1,.46-.46h0l1.84,0a.44.44,0,0,1,.45.46A.46.46,0,0,1,187.71,114.45Z"/>
    <path class="slds-illustration__fill-primary" d="M174.87,118.28a.46.46,0,1,1,0-.91l1.84,0h0a.46.46,0,0,1,.46.45.47.47,0,0,1-.46.47Zm3.67,0a.46.46,0,0,1-.46-.46.45.45,0,0,1,.45-.46h1.84a.46.46,0,0,1,0,.91l-1.84,0Zm3.67,0a.47.47,0,0,1-.46-.46.46.46,0,0,1,.45-.46l1.84,0h0a.46.46,0,0,1,0,.92l-1.84,0Zm3.67,0a.46.46,0,0,1-.46-.45.47.47,0,0,1,.45-.47h1.84a.46.46,0,0,1,0,.91l-1.84,0Zm3.67,0a.47.47,0,0,1-.46-.46.46.46,0,0,1,.46-.46l1.83,0a.48.48,0,0,1,.46.46.45.45,0,0,1-.45.46l-1.84,0Z"/>
    <path class="slds-illustration__fill-primary" d="M165.65,116.61a.46.46,0,0,1-.45-.46.45.45,0,0,1,.45-.46c.68,0,1.27,0,1.8-.07a.46.46,0,1,1,.08.91c-.55,0-1.17.08-1.87.08Zm-1.83,0-1.85-.06a.45.45,0,0,1-.44-.47.49.49,0,0,1,.47-.45l1.77.07a.48.48,0,0,1,.48.46A.44.44,0,0,1,163.82,116.57Zm-3.67-.14h0l-1.83-.08a.46.46,0,0,1-.44-.48.47.47,0,0,1,.48-.44l1.83.09a.46.46,0,0,1,.44.48A.45.45,0,0,1,160.15,116.43Zm-3.67-.17h0l-1.83-.09a.47.47,0,0,1-.44-.48.45.45,0,0,1,.49-.44l1.83.09a.46.46,0,0,1,0,.92Zm-3.66-.19h0L151,116a.45.45,0,0,1-.43-.48.46.46,0,0,1,.48-.44l1.83.09a.46.46,0,0,1,0,.91Zm-3.67-.16h0l-1.83-.07a.46.46,0,0,1-.44-.47.5.5,0,0,1,.47-.45l1.84.07a.46.46,0,0,1,0,.92Zm-12.85,0a.46.46,0,0,1,0-.92l1.84-.07a.48.48,0,0,1,.48.44.46.46,0,0,1-.45.48l-1.82.07Zm9.18-.08h0l-1.83,0a.45.45,0,0,1-.45-.46.43.43,0,0,1,.46-.45l1.84,0a.46.46,0,0,1,.45.47A.46.46,0,0,1,145.48,115.79Zm-5.51,0a.45.45,0,0,1-.45-.46.44.44,0,0,1,.45-.46h1.84a.46.46,0,1,1,0,.91l-1.83,0Z"/>
    <path class="slds-illustration__fill-primary" d="M136.05,119.18a.46.46,0,0,1-.07-.91q.92-.15,1.83-.27a.44.44,0,0,1,.51.39.45.45,0,0,1-.39.51l-1.8.28Zm19.07-.13-.79,0a.46.46,0,1,1,0-.91h1.8a.47.47,0,0,1,.47.44.46.46,0,0,1-.44.47Zm12,0h-.09l-.63-.13a10.08,10.08,0,0,0-1.13-.21.46.46,0,0,1-.42-.5.48.48,0,0,1,.51-.41,10,10,0,0,1,1.24.22l.6.13a.46.46,0,0,1,.37.53A.47.47,0,0,1,167.16,119Zm1.81,0a.45.45,0,0,1-.44-.32.46.46,0,0,1,.31-.57L169,118a.46.46,0,0,1,.38.84l-.31.11A.3.3,0,0,1,169,119ZM158,119a.46.46,0,0,1,0-.91l1.84-.09a.49.49,0,0,1,.48.44.46.46,0,0,1-.44.48L158,119Zm-5.5-.07h0l-1.83-.16a.46.46,0,0,1,.08-.92l1.83.17a.44.44,0,0,1,.41.49A.46.46,0,0,1,152.52,118.88Zm9.16-.09a.46.46,0,0,1,0-.92l1.84-.08a.46.46,0,1,1,0,.92l-1.84.08Zm-22-.09a.46.46,0,0,1,0-.92c.61-.06,1.23-.11,1.84-.15a.46.46,0,1,1,.06.91c-.6,0-1.21.09-1.81.15Zm9.17-.13h0l-1.82-.09a.46.46,0,0,1,0-.92c.62,0,1.23.06,1.85.1a.47.47,0,0,1,.43.49A.47.47,0,0,1,148.86,118.57Zm-5.5-.11a.46.46,0,0,1-.46-.45.46.46,0,0,1,.44-.47q.84,0,1.68,0h.17a.46.46,0,0,1,0,.92H145q-.83,0-1.65,0Z"/>
    <path class="slds-illustration__fill-primary" d="M113.55,114.49a34.31,34.31,0,0,0,4.42,0,9.51,9.51,0,0,1,1.73.17c.29.06.77.11,1,.15a2.14,2.14,0,0,0,.87,0,37.66,37.66,0,0,1,8.75,0"/>
    <path class="slds-illustration__fill-primary" d="M121.31,115.35a2.43,2.43,0,0,1-.51-.06.45.45,0,0,1-.38-.52.44.44,0,0,1,.52-.38h0a1.49,1.49,0,0,0,.6,0c.36-.06.72-.1,1.08-.14a.46.46,0,1,1,.1.91c-.34,0-.69.08-1,.14Zm8.7-.07h0l-1.82-.13a.45.45,0,0,1-.43-.49.44.44,0,0,1,.48-.42c.61,0,1.23.08,1.84.13a.46.46,0,0,1,0,.91Zm-3.66-.21h0c-.61,0-1.21,0-1.81,0a.43.43,0,0,1-.47-.44.45.45,0,0,1,.44-.47q.93,0,1.86,0a.46.46,0,0,1,.45.47A.46.46,0,0,1,126.35,115.07Zm-11.44,0a10.7,10.7,0,0,1-1.43-.1.46.46,0,0,1-.38-.53.45.45,0,0,1,.52-.38,8.92,8.92,0,0,0,1.74.08.46.46,0,0,1,0,.92Zm4.14,0H119c-.36,0-.67-.06-1-.08h-.74c-.23,0-.46-.19-.47-.44a.46.46,0,0,1,.45-.47H118a10.36,10.36,0,0,1,1.11.08.46.46,0,0,1,0,.91Z"/>
    <path class="slds-illustration__fill-primary" d="M114.11,117.24c1,.37,1.43.87,2.44.64.63-.15,1.25-.53,1.88-.62a6.23,6.23,0,0,1,2,.27,18.32,18.32,0,0,0,3.39.2,25.87,25.87,0,0,1,6.49,1"/>
    <path class="slds-illustration__fill-primary" d="M130.25,119.12a.25.25,0,0,1-.12,0c-.57-.15-1.16-.29-1.75-.41a.46.46,0,0,1-.36-.54.46.46,0,0,1,.54-.36c.61.12,1.22.27,1.82.43a.47.47,0,0,1,.32.56A.46.46,0,0,1,130.25,119.12Zm-3.59-.72h-.06c-.6-.08-1.2-.13-1.79-.17a.46.46,0,0,1-.44-.48.47.47,0,0,1,.49-.43c.62,0,1.24.09,1.86.17a.46.46,0,0,1,.39.52A.45.45,0,0,1,126.66,118.4Zm-10.86,0h-.06a3.69,3.69,0,0,1-1.1-.39c-.21-.1-.43-.21-.7-.31a.46.46,0,0,1-.26-.59.46.46,0,0,1,.59-.27c.29.11.54.23.77.34a2.51,2.51,0,0,0,.83.31.46.46,0,0,1-.07.92Zm7.2-.2h0c-.63,0-1.25,0-1.88-.08a.46.46,0,0,1-.4-.51.45.45,0,0,1,.5-.4,17.62,17.62,0,0,0,1.79.07.47.47,0,0,1,.46.46A.47.47,0,0,1,123,118.18Zm-5.43-.2a.46.46,0,0,1-.17-.89,3.94,3.94,0,0,1,1-.28,3.26,3.26,0,0,1,1.08,0,.46.46,0,0,1-.16.91,2.28,2.28,0,0,0-.78,0,4.22,4.22,0,0,0-.76.23A.35.35,0,0,1,117.57,118Z"/>
    <path class="slds-illustration__fill-primary" d="M128.65,127.89a.46.46,0,0,1,0-.92,16.84,16.84,0,0,0,1.79-.08.46.46,0,0,1,.5.41.45.45,0,0,1-.41.5,18.46,18.46,0,0,1-1.87.09Zm-1.83-.06h0l-1.84-.14a.46.46,0,1,1,.08-.91c.61,0,1.21.1,1.82.13a.47.47,0,0,1,.43.49A.47.47,0,0,1,126.82,127.83Zm-3.66-.3h0l-1.83-.17a.44.44,0,0,1-.41-.49.47.47,0,0,1,.49-.42l1.83.16a.47.47,0,0,1,.42.5A.46.46,0,0,1,123.16,127.53Zm-3.66-.33h0a11.23,11.23,0,0,1-1.89-.28.46.46,0,0,1,.24-.89,9.4,9.4,0,0,0,1.73.26.45.45,0,0,1,.42.5A.45.45,0,0,1,119.5,127.2Zm-3.47-1a.43.43,0,0,1-.25-.07,14.07,14.07,0,0,1-1.49-1.18.46.46,0,0,1-.05-.64.45.45,0,0,1,.65-.05,15.21,15.21,0,0,0,1.39,1.1.45.45,0,0,1,.13.63A.44.44,0,0,1,116,126.18Z"/>
    <path class="slds-illustration__fill-primary" d="M139.93,127.87h-.49a.46.46,0,1,1,0-.91h1.83v.92Zm-2.32,0h0l-1.84,0a.46.46,0,1,1,0-.91h1.84a.46.46,0,1,1,0,.92Zm5.5,0a.46.46,0,0,1,0-.91h1.83v.91h-1.84Zm16.23,0H157.8a.46.46,0,1,1,0-.91h1.84a.47.47,0,0,1,.46.46.47.47,0,0,1-.46.46Zm-12.55,0a.45.45,0,0,1-.46-.45.46.46,0,0,1,.45-.46h1.84a.46.46,0,1,1,0,.91Zm9.18,0h-1.84a.46.46,0,1,1,0-.92H156a.45.45,0,0,1,.45.46A.46.46,0,0,1,156,127.83Zm-5.51,0a.47.47,0,0,1-.46-.46.46.46,0,0,1,.46-.46h1.83a.46.46,0,0,1,0,.92Zm11,0a.47.47,0,0,1-.46-.44.46.46,0,0,1,.44-.48c.61,0,1.22-.06,1.82-.1a.46.46,0,0,1,.49.42.46.46,0,0,1-.42.49c-.62.05-1.23.08-1.85.11Zm3.66-.27a.46.46,0,0,1,0-.92l1.81-.2a.45.45,0,0,1,.51.39.47.47,0,0,1-.4.52l-1.83.21Zm3.65-.45a.46.46,0,0,1-.46-.4.45.45,0,0,1,.39-.51l1.77-.25a.47.47,0,0,1,.52.39.46.46,0,0,1-.39.52l-1.77.25Z"/>
    <path class="slds-illustration__fill-primary" d="M174.49,127.35a.46.46,0,1,1,0-.91l1.83-.06a.46.46,0,0,1,.48.44.47.47,0,0,1-.45.47l-1.83.06Zm3.67-.12a.46.46,0,0,1,0-.92l1.83-.06a.46.46,0,1,1,0,.92l-1.83.06Zm3.67-.13a.46.46,0,1,1,0-.91l1.83-.06a.46.46,0,1,1,0,.91l-1.83.06Zm3.67-.13a.46.46,0,0,1,0-.92,3.63,3.63,0,0,0,1.21-.25,2.06,2.06,0,0,1,.58-.13.46.46,0,0,1,.49.44.47.47,0,0,1-.44.48,1.08,1.08,0,0,0-.28,0,4.75,4.75,0,0,1-1.49.33Zm3.53-.8a.47.47,0,0,1-.42-.27.46.46,0,0,1,.24-.6,8.42,8.42,0,0,1,1.85-.56.47.47,0,0,1,.54.37.44.44,0,0,1-.36.53,7.25,7.25,0,0,0-1.66.5A.58.58,0,0,1,189,126.17Z"/>
    <polygon class="slds-illustration__fill-primary" points="160 141.73 166.18 149.9 176.42 149.46 170.54 157.85 174.12 167.44 164.32 164.45 156.29 170.82 156.11 160.58 147.57 154.93 157.26 151.59 160 141.73"/>
    <path fill="#FFFFFF" d="M158.49,166.17l0-1.67A.54.54,0,0,1,159,164a.49.49,0,0,1,.38.14l.54-.43a.54.54,0,0,1,.76.09.52.52,0,0,1-.09.75Zm10.87-2.85a.55.55,0,0,1-.5-.35l-.76-2a.54.54,0,0,1,.32-.69.52.52,0,0,1,.69.31l.76,2a.54.54,0,0,1-.32.69A.41.41,0,0,1,169.36,163.32Zm-7.42,0a.53.53,0,0,1-.42-.2.54.54,0,0,1,.08-.76l1.69-1.34a.54.54,0,0,1,.76.09.52.52,0,0,1-.09.75l-1.69,1.34A.52.52,0,0,1,161.94,163.29Zm5.79-.19a.4.4,0,0,1-.15,0l-2.07-.63a.55.55,0,0,1-.36-.67.56.56,0,0,1,.68-.36l2.06.63a.54.54,0,0,1,.36.68A.55.55,0,0,1,167.73,163.1Zm-8.77-.22a.55.55,0,0,1-.54-.53l0-2.16a.53.53,0,0,1,.53-.54.57.57,0,0,1,.55.53l0,2.15a.54.54,0,0,1-.53.55Zm8.89-3.6a.53.53,0,0,1-.5-.35l-.58-1.55.61-.87a.54.54,0,1,1,.89.61l-.29.42.38,1a.55.55,0,0,1-.32.7A.58.58,0,0,1,167.85,159.28ZM158,159a.52.52,0,0,1-.29-.09l-1.8-1.19a.55.55,0,0,1-.16-.75.55.55,0,0,1,.75-.15l1.8,1.19a.54.54,0,0,1,.15.75A.52.52,0,0,1,158,159Zm-3.6-2.38a.52.52,0,0,1-.29-.09l-1.47-1,2.44-.84a.54.54,0,1,1,.36,1L155,156a.51.51,0,0,1-.07.46A.52.52,0,0,1,154.44,156.65Zm14.62-1.06a.54.54,0,0,1-.44-.85l1.16-1.65a.58.58,0,0,1-.18,0l-2.15.09a.55.55,0,0,1-.56-.51.54.54,0,0,1,.51-.57l2.16-.09a.56.56,0,0,1,.56.52.54.54,0,0,1,0,.22.56.56,0,0,1,.53.05.54.54,0,0,1,.13.75l-1.23,1.77A.56.56,0,0,1,169.06,155.59Zm-11.72-.49a.54.54,0,0,1-.51-.37.53.53,0,0,1,.33-.68l2-.7a.54.54,0,0,1,.69.33.53.53,0,0,1-.33.68l-2,.71A.57.57,0,0,1,157.34,155.1Zm7.21-1.75-1.19-1.59a.54.54,0,1,1,.86-.64l.85,1.13h.18a.56.56,0,0,1,.56.51.54.54,0,0,1-.52.56Zm-4.45-.9a.34.34,0,0,1-.14,0,.53.53,0,0,1-.38-.66l.58-2.08a.54.54,0,0,1,1,.29l-.58,2.08A.53.53,0,0,1,160.1,152.45Zm2.39-2.19a.55.55,0,0,1-.43-.22l-1.3-1.72a.54.54,0,0,1,.86-.65l1.3,1.72a.55.55,0,0,1-.43.87Z"/>
    <path fill="#FFFFFF" d="M125.25,78.83a1.72,1.72,0,0,0-1.88.46,2.86,2.86,0,0,0-.72,1.88,9.46,9.46,0,0,0,.22,2,37.79,37.79,0,0,1,.54,4.37,36.11,36.11,0,0,1-.72,8.48,2.49,2.49,0,0,0,.62,2.43,2.54,2.54,0,0,0,1.36.32q5.27.2,10.52.1a3.9,3.9,0,0,0,1.36-.2A2.32,2.32,0,0,0,138,97a11.85,11.85,0,0,0-.17-2.65c-.06-.88-.06-1.79-.12-2.63s-.15-1.7-.13-2.57c.06-3,.93-6,.58-9a1.92,1.92,0,0,0-.55-1.2,1.41,1.41,0,0,0-1.18-.32,2.84,2.84,0,0,0-.77.15,2.2,2.2,0,0,1-.81,0C131.63,78.61,128.38,78.75,125.25,78.83Z"/>
    <path class="slds-illustration__fill-secondary" d="M126.24,79a1.56,1.56,0,0,0-1.77.46,3,3,0,0,0-.67,1.88A10.12,10.12,0,0,0,124,83.4a40,40,0,0,1,.51,4.37,39.58,39.58,0,0,1-.68,8.48,2.6,2.6,0,0,0,.58,2.43,2.24,2.24,0,0,0,1.28.32c3.28.13,6.57.16,9.85.1a3.42,3.42,0,0,0,1.27-.2,2.31,2.31,0,0,0,1.39-1.68,12.46,12.46,0,0,0-.16-2.65c-.06-.88-.06-1.79-.11-2.63s-.14-1.7-.13-2.57c.06-3,.87-6,.55-9a2,2,0,0,0-.52-1.2,1.26,1.26,0,0,0-1.11-.32A2.57,2.57,0,0,0,136,79a1.89,1.89,0,0,1-.75,0A84.87,84.87,0,0,0,126.24,79Z"/>
    <path class="slds-illustration__fill-primary" d="M131.63,99.41c-2.33,0-4.67,0-7-.13a3,3,0,0,1-1.61-.4,2.91,2.91,0,0,1-.8-2.9,35.1,35.1,0,0,0,.71-8.37,34.32,34.32,0,0,0-.53-4.31l0-.12a9,9,0,0,1-.21-2A3.37,3.37,0,0,1,123,79a2.23,2.23,0,0,1,2.3-.6l1,0a85,85,0,0,1,8.59,0,1.63,1.63,0,0,0,.63,0,3.79,3.79,0,0,1,.89-.17,1.86,1.86,0,0,1,1.5.44,2.32,2.32,0,0,1,.7,1.49,22.86,22.86,0,0,1-.24,5.5,32.66,32.66,0,0,0-.33,3.57c0,.61,0,1.2.08,1.83l0,.7c0,.41,0,.83.06,1.26s0,.92.06,1.37c0,.25.05.52.09.8a6.26,6.26,0,0,1,.07,2,2.76,2.76,0,0,1-1.76,2,4,4,0,0,1-1.52.23C134,99.4,132.82,99.41,131.63,99.41Zm-7-20.24a1.37,1.37,0,0,0-1,.44,2.43,2.43,0,0,0-.59,1.59A8.28,8.28,0,0,0,123.3,83l0,.12a36.49,36.49,0,0,1,.55,4.42,36.34,36.34,0,0,1-.72,8.59,1.47,1.47,0,0,0,1.54,2.21c3.47.13,7,.16,10.5.1a3.58,3.58,0,0,0,1.18-.16A1.9,1.9,0,0,0,137.58,97a5.69,5.69,0,0,0-.08-1.67c0-.3-.08-.6-.1-.87,0-.46-.05-.93-.06-1.4s0-.83-.05-1.23l0-.69c-.05-.62-.1-1.26-.09-1.91a33.57,33.57,0,0,1,.34-3.67,21.93,21.93,0,0,0,.24-5.29,1.42,1.42,0,0,0-.39-.9c-.24-.22-.39-.24-.87-.22a3.07,3.07,0,0,0-.64.14,2.57,2.57,0,0,1-1,.06,80.27,80.27,0,0,0-8.49,0l-1.2,0-.1,0A1,1,0,0,0,124.67,79.17Z"/>
    <path class="slds-illustration__fill-primary" d="M137.6,52.52a7.3,7.3,0,0,1,.11-2c0-.24.14-.52.36-.56a.34.34,0,0,1,.34.18,1.41,1.41,0,0,1,.16.42,8,8,0,0,1,.17,1.89A3.36,3.36,0,0,0,137.6,52.52Z"/>
    <path class="slds-illustration__fill-primary" d="M125.14,83.3a16.86,16.86,0,0,0-.28,4.26c0,1,0,1.94.08,2.91,0,.22,0,2.81,0,2.82a16.22,16.22,0,0,0,4.45.33h5.45c.7,0,1.31,0,1.49-.48a5.86,5.86,0,0,0-.12-.84c0-.4-.07-.79-.09-1.19-.06-.8-.09-1.59-.1-2.39,0-1.32,0-2.65.1-4,0-.38.32-1.21-.06-1.41-.22-.11-.66,0-.91,0-1.71,0-3.43,0-5.14,0C129.58,83.34,125.18,83.1,125.14,83.3Z"/>
    <path class="slds-illustration__fill-primary" d="M138.31,50.26c.1-.2-.11-.41-.44-.42L129,49.5a2.84,2.84,0,0,0-1.14.12,1.07,1.07,0,0,0-.63.92,134.57,134.57,0,0,0-2.34,28.56,1,1,0,0,0,1,1c3,0,6.07,0,9.18.14a1,1,0,0,0,1-1c-.12-3.45.14-6.36.1-9.59a60.68,60.68,0,0,1,.57-8.18C137.18,58,137.49,51.88,138.31,50.26Z"/>
    <path class="slds-illustration__fill-primary" d="M125.39,129.86a69.19,69.19,0,0,0,1.09,13.22,5.21,5.21,0,0,0,1.24,2.74,4.85,4.85,0,0,0,3.7,1.33,4.27,4.27,0,0,0,2.84-1.37,5.13,5.13,0,0,0,1-2.25,36,36,0,0,0,1.21-7.6c.07-1.32.07-2.64.07-4l-.09-33.58a1.23,1.23,0,0,0-1.15-1.23c-1.7-.1-3.4-.15-5.11-.14-1.07,0-4.57-.25-5.3.31s-.09,2.88-.08,3.64l.07,3.93.3,16.11Z"/>
    <path class="slds-illustration__fill-secondary" d="M132.23,53.17a1.26,1.26,0,1,0,1.27,1.26A1.27,1.27,0,0,0,132.23,53.17Z"/>
    <ellipse class="slds-illustration__fill-secondary" cx="131.28" cy="63.11" rx="1.26" ry="1.36"/>
    <path class="slds-illustration__fill-secondary" d="M130.86,71.28a1.61,1.61,0,1,0,1.27,1.57A1.42,1.42,0,0,0,130.86,71.28Z"/>
    <path class="slds-illustration__fill-secondary" d="M130.8,104.92a1.56,1.56,0,1,0-1.38-1.55A1.48,1.48,0,0,0,130.8,104.92Z"/>
    <path class="slds-illustration__fill-secondary" d="M130.87,119.55a1.56,1.56,0,1,0-1.38-1.55A1.48,1.48,0,0,0,130.87,119.55Z"/>
    <ellipse class="slds-illustration__fill-secondary" cx="131.04" cy="132.36" rx="1.45" ry="1.55"/>
    <path class="slds-illustration__fill-secondary" d="M130.22,85.73a1.61,1.61,0,1,0,1.26,1.57A1.42,1.42,0,0,0,130.22,85.73Z"/>
    <path fill="#FFFFFF" d="M129.52,80.84a1.5,1.5,0,0,1,.83.12.71.71,0,0,1,.32.22.66.66,0,0,1,.09.31,2.64,2.64,0,0,1-.15,1.18,3.21,3.21,0,0,0-.12.33,1.59,1.59,0,0,0-.06.38,23,23,0,0,0-.05,3.42c0,.18.49.37.37.5s-.86.12-1,0a1,1,0,0,1-.31-.48,8.32,8.32,0,0,1-.28-2.44,19,19,0,0,0-.29-2.49C128.77,81.36,128.94,80.94,129.52,80.84Z"/>
    <path class="slds-illustration__fill-secondary" d="M130,80.84a1.48,1.48,0,0,1,.83.12.71.71,0,0,1,.32.22.66.66,0,0,1,.09.31,2.64,2.64,0,0,1-.15,1.18A3.21,3.21,0,0,0,131,83a1.59,1.59,0,0,0-.06.38,23,23,0,0,0,0,3.42.61.61,0,0,1-.11.5.41.41,0,0,1-.53,0,1,1,0,0,1-.31-.48,8.32,8.32,0,0,1-.28-2.44,19,19,0,0,0-.29-2.49C129.25,81.36,129.42,80.94,130,80.84Z"/>
    <path fill="#FFFFFF" d="M179.93,78.16a1.73,1.73,0,0,1,1.88.45,2.88,2.88,0,0,1,.72,1.89,9.37,9.37,0,0,1-.22,2,34.09,34.09,0,0,0-.54,4.37,36.64,36.64,0,0,0,.71,8.48,2.49,2.49,0,0,1-.61,2.44,2.44,2.44,0,0,1-1.36.31q-5.26.21-10.53.1a3.63,3.63,0,0,1-1.35-.2,2.29,2.29,0,0,1-1.48-1.67,11.29,11.29,0,0,1,.17-2.65c.06-.88.06-1.79.11-2.64s.15-1.7.14-2.56c-.06-3-.93-6-.58-9a1.89,1.89,0,0,1,.55-1.19,1.38,1.38,0,0,1,1.18-.33,4,4,0,0,1,.77.15,1.84,1.84,0,0,0,.81,0A93.76,93.76,0,0,1,179.93,78.16Z"/>
    <path class="slds-illustration__fill-secondary" d="M179.85,78.33a1.5,1.5,0,0,1,1.71.46,3,3,0,0,1,.64,1.89,10.76,10.76,0,0,1-.19,2,35.84,35.84,0,0,0-.49,4.37,40.2,40.2,0,0,0,.64,8.48,2.7,2.7,0,0,1-.55,2.44,2,2,0,0,1-1.23.31q-4.75.21-9.51.1a3,3,0,0,1-1.22-.2,2.25,2.25,0,0,1-1.34-1.67,12.45,12.45,0,0,1,.15-2.65c0-.88.06-1.79.11-2.64s.13-1.7.12-2.56c-.06-3-.84-6-.53-9a2,2,0,0,1,.5-1.19,1.17,1.17,0,0,1,1.07-.33,3.27,3.27,0,0,1,.69.15,1.64,1.64,0,0,0,.73,0A79,79,0,0,1,179.85,78.33Z"/>
    <path class="slds-illustration__fill-primary" d="M173.55,98.73c-1.19,0-2.39,0-3.58,0a4,4,0,0,1-1.52-.24,2.73,2.73,0,0,1-1.75-2,6.2,6.2,0,0,1,.07-2c0-.28.07-.55.09-.8,0-.45,0-.92.06-1.37s0-.86.06-1.27l.05-.7c0-.62.09-1.21.08-1.82a32.66,32.66,0,0,0-.33-3.57,22.94,22.94,0,0,1-.25-5.51,2.39,2.39,0,0,1,.7-1.49,1.88,1.88,0,0,1,1.51-.44,3.91,3.91,0,0,1,.89.18,1.79,1.79,0,0,0,.62,0,82.41,82.41,0,0,1,8.6,0l1,0a2.22,2.22,0,0,1,2.29.61,3.31,3.31,0,0,1,.85,2.18,9,9,0,0,1-.21,2l0,.12a34.23,34.23,0,0,0-.53,4.32,35.14,35.14,0,0,0,.71,8.37,2.89,2.89,0,0,1-.81,2.89,2.85,2.85,0,0,1-1.61.4C178.21,98.69,175.87,98.73,173.55,98.73Zm-5.07-20.3a.81.81,0,0,0-.64.22,1.38,1.38,0,0,0-.39.91,21.38,21.38,0,0,0,.24,5.28,36.78,36.78,0,0,1,.34,3.67c0,.65,0,1.29-.09,1.91l-.05.69c0,.4,0,.82,0,1.24s0,.94-.06,1.4c0,.27-.06.56-.1.86a5.37,5.37,0,0,0-.08,1.67,1.88,1.88,0,0,0,1.21,1.34,3.25,3.25,0,0,0,1.18.16c3.48.07,7,0,10.5-.09a2.19,2.19,0,0,0,1.12-.24,2.09,2.09,0,0,0,.42-2,36.3,36.3,0,0,1-.72-8.58,36.39,36.39,0,0,1,.55-4.43l0-.12a8.28,8.28,0,0,0,.19-1.82,2.43,2.43,0,0,0-.59-1.59,1.27,1.27,0,0,0-1.37-.35l-.09,0-1.2,0a83,83,0,0,0-8.49,0,2.53,2.53,0,0,1-1-.06,2.67,2.67,0,0,0-.65-.13Z"/>
    <path class="slds-illustration__fill-primary" d="M167.58,51.84a7.63,7.63,0,0,0-.11-2c0-.25-.14-.53-.36-.57a.38.38,0,0,0-.35.19,1.17,1.17,0,0,0-.15.42,7.92,7.92,0,0,0-.17,1.89A3.35,3.35,0,0,1,167.58,51.84Z"/>
    <path class="slds-illustration__fill-primary" d="M180,82.62a16.86,16.86,0,0,1,.28,4.26c0,1,0,2-.09,2.92,0,.22,0,2.81,0,2.81a15.88,15.88,0,0,1-4.46.33H170.3c-.71,0-1.31,0-1.49-.48a6.24,6.24,0,0,1,.11-.84c0-.39.07-.79.1-1.19,0-.79.09-1.59.1-2.39a37.6,37.6,0,0,0-.11-4c0-.38-.31-1.2.07-1.4.22-.12.66,0,.91,0,1.71,0,3.43,0,5.14,0A42.93,42.93,0,0,1,180,82.62Z"/>
    <path class="slds-illustration__fill-primary" d="M166.87,49.59c-.11-.21.1-.42.44-.43l8.89-.33a2.68,2.68,0,0,1,1.14.11,1.11,1.11,0,0,1,.63.92,134.57,134.57,0,0,1,2.34,28.56,1,1,0,0,1-1,1c-3,0-6.07,0-9.18.15a1,1,0,0,1-1.05-1.06c.13-3.45-.13-6.35-.09-9.59a62.35,62.35,0,0,0-.57-8.18C168,57.3,167.68,51.21,166.87,49.59Z"/>
    <path class="slds-illustration__fill-primary" d="M179.79,129.18a69.94,69.94,0,0,1-1.09,13.22,5.21,5.21,0,0,1-1.24,2.74,4.79,4.79,0,0,1-3.7,1.33,4.31,4.31,0,0,1-2.84-1.36,5.38,5.38,0,0,1-1-2.25,37.57,37.57,0,0,1-1.21-7.61c-.06-1.31-.06-2.63-.06-3.95l.09-33.58a1.23,1.23,0,0,1,1.15-1.23c1.7-.1,3.4-.15,5.11-.14,1.07,0,4.57-.24,5.3.32s.09,2.87.08,3.63l-.08,3.93-.3,16.11Z"/>
    <path class="slds-illustration__fill-secondary" d="M174.21,53.76A1.27,1.27,0,1,0,172.94,55,1.27,1.27,0,0,0,174.21,53.76Z"/>
    <path class="slds-illustration__fill-secondary" d="M173.9,63.8a1.37,1.37,0,1,0-1.27-1.37A1.32,1.32,0,0,0,173.9,63.8Z"/>
    <path class="slds-illustration__fill-secondary" d="M174.32,70.6a1.61,1.61,0,1,0,1.26,1.57A1.43,1.43,0,0,0,174.32,70.6Z"/>
    <path class="slds-illustration__fill-secondary" d="M174.37,101.14a1.56,1.56,0,1,0,1.39,1.55A1.48,1.48,0,0,0,174.37,101.14Z"/>
    <ellipse class="slds-illustration__fill-secondary" cx="174.31" cy="117.32" rx="1.38" ry="1.55"/>
    <path class="slds-illustration__fill-secondary" d="M174.14,130.13a1.56,1.56,0,1,0,1.45,1.56A1.5,1.5,0,0,0,174.14,130.13Z"/>
    <path class="slds-illustration__fill-secondary" d="M173.69,86.63A1.29,1.29,0,1,0,175,85.06,1.43,1.43,0,0,0,173.69,86.63Z"/>
    <path fill="#FFFFFF" d="M174.67,80.16a1.48,1.48,0,0,0-.83.12.73.73,0,0,0-.32.23.65.65,0,0,0-.09.3,2.62,2.62,0,0,0,.15,1.18c0,.11.09.22.12.33a1.67,1.67,0,0,1,.06.38,23,23,0,0,1,.05,3.42.64.64,0,0,0,.11.51,1.07,1.07,0,0,0,.86,0c.15-.12-.09-.3,0-.48A8.35,8.35,0,0,0,175,83.7a19.19,19.19,0,0,1,.29-2.49A.8.8,0,0,0,174.67,80.16Z"/>
    <path class="slds-illustration__fill-secondary" d="M175.18,80.16a1.48,1.48,0,0,0-.83.12.73.73,0,0,0-.32.23.65.65,0,0,0-.09.3,2.49,2.49,0,0,0,.15,1.18c0,.11.09.22.12.33a1.67,1.67,0,0,1,.06.38,23,23,0,0,1,0,3.42.64.64,0,0,0,.11.51.43.43,0,0,0,.53,0,1,1,0,0,0,.3-.48,8.35,8.35,0,0,0,.29-2.45,19.17,19.17,0,0,1,.28-2.49A.79.79,0,0,0,175.18,80.16Z"/>
    <path class="slds-illustration__fill-secondary" d="M116.94,122.89a2.32,2.32,0,0,0,0,1.14,3.43,3.43,0,0,0,.13.85,1.08,1.08,0,0,0,.56.64,1.78,1.78,0,0,0,.51.1,3.65,3.65,0,0,0,2.2-.18A5.44,5.44,0,0,0,121,125a3.3,3.3,0,0,1,2.1-.87c0-.84,0-1.68,0-2.53a4.69,4.69,0,0,1-1.89-.46c-.3-.11-.59-.26-.87-.39s-.63-.25-.92-.4a2,2,0,0,0-1.26-.22,2,2,0,0,0-.24,0,.4.4,0,0,0-.17.09,2.15,2.15,0,0,0-.82,2.07,41.38,41.38,0,0,0,5.34.17v.77A22.83,22.83,0,0,1,116.94,122.89Z"/>
    <path class="slds-illustration__fill-primary" d="M120.61,123.29c-.34,0-.89-.05-1.11-.07a2.23,2.23,0,0,1,1.08-.77,5.65,5.65,0,0,1,1.23,0,1.62,1.62,0,0,1,1.29.86,2.46,2.46,0,0,1,.2.85c.08.84.11,1.69.13,2.53,0,1.79.1,3.63.16,5.43s.27,3.68.16,5.52c0,.93-.14,2.74-1.28,3a2.89,2.89,0,0,1-1.37.06c-1-.24-1.24-1.27-1.31-2.19-.2-2.83-.2-5.67-.2-8.51v-3.81c0-.21-.06-.49.15-.54a5,5,0,0,0,.63-.18,9.3,9.3,0,0,0,.07,1.29,10.8,10.8,0,0,1,2,.11,10.21,10.21,0,0,0,0-2.59,2,2,0,0,0-.21-.75.8.8,0,0,0-.53-.4A1.58,1.58,0,0,0,120.61,123.29Z"/>
    <path class="slds-illustration__fill-secondary" d="M123,138.3a1.27,1.27,0,0,1-2.53,0c0-1.44.56-1.27,1.26-1.27S123,136.87,123,138.3Z"/>
    <path class="slds-illustration__fill-secondary" d="M20.79,19.77h6a1.25,1.25,0,1,0,0-2.5h-6a1.26,1.26,0,0,0-1.25,1.25,1.28,1.28,0,0,0,1.25,1.25Z"/>
    <path class="slds-illustration__fill-secondary" d="M32.33,19.77H75.24a1.25,1.25,0,0,0,0-2.5H32.33a1.25,1.25,0,0,0,0,2.5Z"/>
    <path class="slds-illustration__fill-secondary" d="M92.25,17a7.78,7.78,0,0,0-3.36-.59,9.87,9.87,0,0,0-.91-4.5,8.21,8.21,0,0,0-4.65-4.07A7.41,7.41,0,0,0,79.8,7.5,9.55,9.55,0,0,0,62.88,3.76c-1.62,2.11-1.91,4.4-2,6.88H49a1.25,1.25,0,0,0,0,2.5H63.4V11.89c0-2.22-.1-4.29,1.16-6.22A7.08,7.08,0,0,1,77.45,8.26,8.65,8.65,0,0,0,73,14.13c-.33,1.57,2.08,2.24,2.41.66.72-3.4,4.08-5.95,7.56-4.45a5.81,5.81,0,0,1,3,3.11,10,10,0,0,1,.42,4.08h0v1.35h1.25a9.19,9.19,0,0,1,3.35.25,3.13,3.13,0,0,1,1.57,4.57c-.88,1.35-2.3,1.53-3.75,1.53H38.76a1.25,1.25,0,0,0,0,2.5H62.59c8.93,0,17.86.07,26.79,0,3.16,0,6.06-2.17,6.17-5.51A5.7,5.7,0,0,0,92.25,17Z"/>
    <path class="slds-illustration__fill-secondary" d="M41.5,115.31V147q-2.46-2.66-4.9-5.32l-1-1.08a1.25,1.25,0,0,0-1.77,1.76l7,7.64.64.69v14.52a1.25,1.25,0,0,0,2.5,0v-49.9A1.25,1.25,0,0,0,41.5,115.31Z"/>
    <polygon fill="#FFFFFF" points="69.86 94.12 49.85 160.22 89.86 160.22 69.86 94.12"/>
    <path class="slds-illustration__fill-secondary" d="M88.18,159H51.45l6.37-20.77L68.6,102.59l2.46-8.14c.47-1.54-2-2.2-2.41-.66l-6.77,22.35L51.11,151.75l-2.47,8.14a1.26,1.26,0,0,0,1.21,1.58h40a1.26,1.26,0,0,0,1.21-1.58L84.3,137.54,73.53,101.93l-2.47-8.14c-.46-1.53-2.88-.88-2.41.66l6.77,22.36,10.77,35.6Z"/>
    <path class="slds-illustration__fill-secondary" d="M80.19,124.46a1.27,1.27,0,0,0-1.77,0l-7.31,6.65V95.63a1.26,1.26,0,0,0-2.51,0v47.12l-8-8.7-1.44-1.57c-1.1-1.18-2.86.59-1.77,1.77l10.14,11,1.07,1.17v19.62a1.26,1.26,0,0,0,2.51,0V134.48L79,127.3l1.19-1.08A1.26,1.26,0,0,0,80.19,124.46Z"/>
    <path class="slds-illustration__fill-secondary" d="M230.19,26.08Z"/>
    <path class="slds-illustration__fill-secondary" d="M247.68,31.14a8.53,8.53,0,0,0-4.5-1.94A7.53,7.53,0,0,0,237.41,31a7.49,7.49,0,0,0-2.61-5.5,8.55,8.55,0,0,0-4.48-1.92,1.26,1.26,0,0,0-1.25,1.25,1.29,1.29,0,0,0,1.25,1.25l-.13,0,.15,0c.25.06.5.11.75.19l.48.16.09,0,.27.12a7.12,7.12,0,0,1,1.12.68l.16.14.27.25.39.42a4.82,4.82,0,0,1,.78,1.46,8.76,8.76,0,0,1,0,4.63,1.26,1.26,0,0,0,2.29,1c1.43-2.06,3.66-3.92,6.19-3.47a5.68,5.68,0,0,1,2.06.76c.23.13.45.29.68.43h0v0C247.13,34,248.91,32.19,247.68,31.14Z"/>
    <path class="slds-illustration__fill-secondary" d="M215.32,51.9Z"/>
    <path class="slds-illustration__fill-secondary" d="M232,44.66A8.54,8.54,0,0,0,227.32,46,7.54,7.54,0,0,0,224,51.11a7.51,7.51,0,0,0-5.53-2.57,8.58,8.58,0,0,0-4.67,1.37,1.25,1.25,0,1,0,1.59,1.92l-.11.07.14-.07c.23-.11.46-.23.69-.33l.48-.18.09,0,.29-.07a6.29,6.29,0,0,1,1.3-.2h.21l.36,0c.13,0,.63.09.57.07a4.94,4.94,0,0,1,1.54.63,8.77,8.77,0,0,1,3,3.56,1.26,1.26,0,0,0,2.38-.72c-.22-2.5.32-5.35,2.55-6.61a5.6,5.6,0,0,1,2.07-.73c.27,0,.53-.07.8-.1h0C233.39,47.17,233.64,44.69,232,44.66Z"/>
  </g>
</svg>
