<svg id="map-sm" xmlns="http://www.w3.org/2000/svg" viewBox="0 0 49.7 49.7">
  <g>
    <polygon fill="#FFFFFF" points="31.32 1.46 31.29 7.92 47.47 16.71 47.61 9.53 31.32 1.46"/>
    <polygon fill="#FFFFFF" points="1.08 1.46 1.05 7.92 17.23 16.71 17.37 9.53 1.08 1.46"/>
    <polygon class="slds-illustration__fill-secondary" points="0.52 5.54 0.54 41.69 17.75 49.17 17.18 14.4 0.52 5.54"/>
    <polygon class="slds-illustration__fill-secondary" points="31.62 6.53 31.94 41.87 49.15 49.19 49.19 15.1 31.62 6.53"/>
    <path fill="#FFFFFF" d="M15.47,21.54,12,20l1.88-3.18a1.28,1.28,0,0,0-.57-1.83,1.54,1.54,0,0,0-2.07.53L9.35,18.71,5.79,17.06a1.5,1.5,0,0,0-2,.67,1.29,1.29,0,0,0,.65,1.84l3.44,1.6L6,24.34a1.23,1.23,0,0,0,0,1.32,1.64,1.64,0,0,0,1.36.71h0a1.45,1.45,0,0,0,1.26-.72l1.92-3.25,3.56,1.65a1.49,1.49,0,0,0,2-.67A1.28,1.28,0,0,0,15.47,21.54Z"/>
    <path class="slds-illustration__fill-primary" d="M49.43,8.64,32.21.21a1,1,0,0,0-1.3.09L17.08,8.49,2.91,1.13C2.16.86,1.12-.08.38,0A.47.47,0,0,0,0,.43H0C0,9.05,0,17.66,0,26.26c0,5.07-.06,10.15,0,15.22A.51.51,0,0,0,.29,42c5.83,2.54,11.63,5.26,17.48,7.71,4.79-2.35,9.46-5.09,14.2-7.57l16.91,7.5a.56.56,0,0,0,.82-.44v-40A.55.55,0,0,0,49.43,8.64ZM2.12,2.37l15,7.79.62,37.31L2.11,40.53Q2.13,21.45,2.12,2.37Zm-1-1Zm0,39.85V41a.45.45,0,0,0,.22.27c5.48,2.38,10.93,4.93,16.43,7.25v.08h0Zm46.46,6.15L34.81,41.7c-1-.38-1.9-.9-2.87-1.24L31.62,2.23l16,7.82C47.57,22.49,47.66,34.93,47.57,47.37Zm1-37.76a.48.48,0,0,0-.22-.28L31.9,1.25a2.53,2.53,0,0,0-.29-.14h0l17,8.31Z"/>
  </g>
</svg>
