<svg xmlns="http://www.w3.org/2000/svg" viewBox="0 0 304 181">
  <g>
    <path class="slds-illustration__fill-secondary" d="M147.73,178.94H268.1C266.28,168.83,253.85,161,238.75,161a41.75,41.75,0,0,0-9.65,1.14C226.8,152.4,214.63,145,199.93,145c-13.59,0-25,6.35-28.49,15a18.75,18.75,0,0,0-7.69-1.64,18.33,18.33,0,0,0-12,4.33c-1.15-16.42-18.77-29.48-40.39-29.48-18.4,0-33.9,9.45-38.84,22.38A36.72,36.72,0,0,0,59,153c-16.24,0-28,12.94-32.35,26C26.69,178.94,147.31,178.47,147.73,178.94Z"/>
    <path class="slds-illustration__fill-secondary" d="M21.83,90h6a1.25,1.25,0,1,0,0-2.49h-6a1.25,1.25,0,0,0-1.25,1.24A1.27,1.27,0,0,0,21.83,90Z"/>
    <path class="slds-illustration__fill-secondary" d="M33.36,90H76.27a1.25,1.25,0,0,0,0-2.49H33.36a1.25,1.25,0,0,0,0,2.49Z"/>
    <path class="slds-illustration__fill-secondary" d="M93.29,87.23a7.77,7.77,0,0,0-3.36-.58A9.91,9.91,0,0,0,89,82.14a8.23,8.23,0,0,0-4.65-4.06,7.3,7.3,0,0,0-3.53-.31A9.55,9.55,0,0,0,63.91,74c-1.61,2.11-1.9,4.39-2,6.88H50a1.25,1.25,0,0,0,0,2.49H64.44V82.15c0-2.21-.09-4.28,1.17-6.21a7.08,7.08,0,0,1,12.88,2.59A8.61,8.61,0,0,0,74,84.4c-.33,1.56,2.08,2.24,2.41.66.71-3.41,4.08-6,7.55-4.45a5.78,5.78,0,0,1,3,3.11,9.87,9.87,0,0,1,.42,4.08h0v1.35h1.25a9.4,9.4,0,0,1,3.35.24A3.13,3.13,0,0,1,93.59,94c-.87,1.35-2.3,1.53-3.74,1.53h-50a1.25,1.25,0,0,0,0,2.5H63.63c8.93,0,17.86.07,26.78,0,3.16,0,6.06-2.17,6.17-5.51A5.71,5.71,0,0,0,93.29,87.23Z"/>
    <polygon class="slds-illustration__fill-secondary" points="164.06 66.76 164.81 161.43 204.23 179.72 203.79 86.96 164.06 66.76"/>
    <polygon class="slds-illustration__fill-secondary" points="92.93 66.76 92.93 161.85 132.35 179.72 130.81 87.33 92.93 66.76"/>
    <ellipse class="slds-illustration__fill-secondary" cx="171.92" cy="29.71" rx="14.4" ry="14.38"/>
    <path class="slds-illustration__fill-primary" d="M185.07,29.71a13.16,13.16,0,1,1-10.75-12.92,13.28,13.28,0,0,1,10.75,12.92,1.25,1.25,0,0,0,2.5,0,15.65,15.65,0,1,0-29.11,8,15.66,15.66,0,0,0,29.11-8A1.25,1.25,0,0,0,185.07,29.71Z"/>
    <path class="slds-illustration__fill-secondary" d="M185.64,15.56a19.64,19.64,0,1,1-5.49-3.84c1.45.67,2.72-1.48,1.26-2.16a22.45,22.45,0,0,0-25,4.06,22.09,22.09,0,0,0,12.48,37.77,22.11,22.11,0,0,0,18.54-37.6,1.25,1.25,0,0,0-1.77,1.77Z"/>
    <path class="slds-illustration__fill-secondary" d="M188.15,51.35a27.52,27.52,0,0,1-30.87,1.1,27.37,27.37,0,0,1-12.45-24.94,27.17,27.17,0,1,1,52.06,12.8c-.62,1.48,1.8,2.13,2.41.66a29.66,29.66,0,1,0-46.43,11.32,30,30,0,0,0,36.55,1.22c1.28-.94,0-3.11-1.27-2.16Z"/>
    <path class="slds-illustration__fill-primary" d="M22.58,181H291.42c3.63,0,7.27.07,10.9,0h.47a1.25,1.25,0,0,0,0-2.5H34c-3.63,0-7.27-.07-10.9,0h-.47a1.25,1.25,0,0,0,0,2.5Z"/>
    <polygon class="slds-illustration__fill-primary" points="130.81 82.47 132.35 179.72 164.81 161.2 164.04 61.63 130.81 82.47"/>
    <path class="slds-illustration__fill-primary" d="M92.3,62.71l12.81,7.05L125.44,81l4.73,2.6a1.28,1.28,0,0,0,1.27,0l29.1-18.25,4.13-2.59h-1.26l13.55,7L198.6,81l5,2.59L203,82.47v93.3a24,24,0,0,0,0,3.79.86.86,0,0,1,0,.16l1.88-1.08-32.48-15.26-6.15-2.89a4,4,0,0,0-1.42-.54,3.5,3.5,0,0,0-1.5.67L147,169.94l-15.26,8.7H133l-13.27-6.23-21.28-10-4.87-2.28.62,1.08V73.92c0-4,.18-8.09,0-12.11v-.17a1.25,1.25,0,0,0-2.5,0v87.27c0,4-.18,8.09,0,12.12v.17a1.24,1.24,0,0,0,.62,1.08l32.48,15.26,6.15,2.89a4,4,0,0,0,1.42.54,3.44,3.44,0,0,0,1.5-.67L150.19,171l15.26-8.7h-1.27l13.27,6.23,21.29,10,4.86,2.29a1.27,1.27,0,0,0,1.88-1.08V86.42c0-1.24.1-2.54,0-3.78v-.17a1.22,1.22,0,0,0-.62-1.07L171.63,64.16l-6.21-3.22a2.51,2.51,0,0,0-1.71-.51,5.11,5.11,0,0,0-1.26.73L145.53,71.77,130.17,81.4h1.27l-12.81-7.05L98.3,63.16l-4.74-2.6C92.15,59.78,90.89,61.94,92.3,62.71Z"/>
    <path class="slds-illustration__fill-primary" d="M17,178.47H1.21a1.25,1.25,0,0,0,0,2.5H17a1.25,1.25,0,0,0,0-2.5Z"/>
    <polygon class="slds-illustration__fill-secondary" points="254.66 135.15 266.35 173.79 242.96 173.79 254.66 135.15"/>
    <path class="slds-illustration__fill-primary" d="M245.86,172.54h18.81l-.95-3.13-10.27-33.92a1.25,1.25,0,0,1,2.41-.67l1.43,4.71,10.27,33.92a1.26,1.26,0,0,1-1.21,1.58H243a1.26,1.26,0,0,1-1.21-1.58l1.43-4.71,10.27-33.92a1.25,1.25,0,0,1,2.41.67l-1.43,4.71-9.79,32.34Z"/>
    <path class="slds-illustration__fill-secondary" d="M206.24,46.29h6A1.26,1.26,0,0,0,213.48,45a1.27,1.27,0,0,0-1.25-1.25h-6a1.25,1.25,0,0,0,0,2.5Z"/>
    <path class="slds-illustration__fill-secondary" d="M217.77,46.29h42.91a1.25,1.25,0,0,0,0-2.5H217.77a1.25,1.25,0,0,0,0,2.5Z"/>
    <path class="slds-illustration__fill-secondary" d="M277.7,43.49a7.78,7.78,0,0,0-3.36-.59,9.87,9.87,0,0,0-.91-4.5,8.2,8.2,0,0,0-4.65-4.06,7.43,7.43,0,0,0-3.53-.32,9.55,9.55,0,0,0-16.92-3.73c-1.62,2.1-1.91,4.39-2,6.87H234.43a1.25,1.25,0,0,0,0,2.5h14.42V38.41c0-2.22-.09-4.29,1.17-6.21a7.08,7.08,0,0,1,12.88,2.59,8.61,8.61,0,0,0-4.45,5.86c-.33,1.57,2.08,2.24,2.41.67.71-3.41,4.08-6,7.55-4.46a5.87,5.87,0,0,1,3,3.11,10.09,10.09,0,0,1,.42,4.09h0v1.35h1.26a9.12,9.12,0,0,1,3.34.24A3.14,3.14,0,0,1,278,50.23c-.88,1.35-2.31,1.53-3.75,1.53h-50a1.25,1.25,0,0,0,0,2.49H248c8.93,0,17.86.08,26.78,0,3.17,0,6.06-2.17,6.17-5.5A5.67,5.67,0,0,0,277.7,43.49Z"/>
    <polygon class="slds-illustration__fill-secondary" points="228.84 118.09 245.7 173.79 211.98 173.79 228.84 118.09"/>
    <path class="slds-illustration__fill-primary" d="M244,172.54l-1.61-5.32-9.08-30-4.49-14.83-1.21-4a1.26,1.26,0,0,1,2.42-.66l2.09,6.9,9.07,30,5.7,18.81A1.26,1.26,0,0,1,245.7,175H212a1.26,1.26,0,0,1-1.21-1.58l2.09-6.91,9.08-30,5.69-18.8a1.26,1.26,0,0,1,2.42.66l-2.09,6.9-9.08,30-5.22,17.23H244Z"/>
    <path class="slds-illustration__fill-primary" d="M262.31,157.21a1.27,1.27,0,0,0-1.77,0l-4.63,5V136a1.26,1.26,0,0,0-2.51,0V155.6l-2.69-2.45-.69-.63a1.25,1.25,0,1,0-1.77,1.76l4.83,4.39.32.3v19.12a1.26,1.26,0,0,0,2.51,0V165.93q2.78-3,5.56-6l.84-.92A1.26,1.26,0,0,0,262.31,157.21Z"/>
    <path class="slds-illustration__fill-primary" d="M237.69,150.37l-7.63,8.28V119.46a1.25,1.25,0,0,0-2.5,0v29.45l-4.83-4.39-1-.91a1.25,1.25,0,0,0-1.77,1.76l7,6.33.63.58V178.8a1.25,1.25,0,0,0,2.5,0V162.34l8.18-8.88,1.22-1.32a1.29,1.29,0,0,0,0-1.77A1.27,1.27,0,0,0,237.69,150.37Z"/>
    <path fill="#FFFFFF" d="M112,88.74l-2.82,5L105.54,92l-1.6-.79a1.25,1.25,0,0,0-1.13,2.23L107.94,96l-2,3.5-.84,1.51c-.78,1.41,1.45,2.54,2.23,1.13l2.82-5,3.63,1.77,1.6.79a1.25,1.25,0,0,0,1.13-2.23l-5.14-2.52,2-3.5.85-1.51C115,88.46,112.77,87.33,112,88.74Z"/>
    <path fill="#FFFFFF" d="M111.33,112.33a1.61,1.61,0,0,1-.48-.08,1.5,1.5,0,0,1-.94-1.9,33.36,33.36,0,0,0,1.41-5.56,1.5,1.5,0,0,1,3,.46,36.2,36.2,0,0,1-1.54,6.06A1.5,1.5,0,0,1,111.33,112.33Z"/>
    <path fill="#FFFFFF" d="M104.14,134.18H104a1.48,1.48,0,0,1-1.39-1.59v-.2a32.25,32.25,0,0,1,1.5-7.21,1.5,1.5,0,0,1,2.86.91,29.15,29.15,0,0,0-1.37,6.53v.18A1.49,1.49,0,0,1,104.14,134.18Zm2.91-11.13a1.4,1.4,0,0,1-.56-.11,1.49,1.49,0,0,1-.84-1.94c.5-1.26,1-2.51,1.55-3.76.41-1,.82-1.95,1.22-2.92a1.5,1.5,0,1,1,2.78,1.12c-.4,1-.82,2-1.23,3-.52,1.23-1,2.47-1.53,3.7A1.5,1.5,0,0,1,107.05,123.05Z"/>
    <path fill="#FFFFFF" d="M122.61,162.09a1.53,1.53,0,0,1-.71-.18c-2.17-1.17-4.36-2.46-6.33-3.72a1.5,1.5,0,0,1,1.62-2.52c1.91,1.22,4,2.46,6.13,3.6a1.49,1.49,0,0,1,.61,2A1.51,1.51,0,0,1,122.61,162.09ZM112.8,156a1.49,1.49,0,0,1-.89-.3,27.59,27.59,0,0,1-3.77-3.24,15.72,15.72,0,0,1-1.68-2.27,1.5,1.5,0,1,1,2.56-1.56,12.5,12.5,0,0,0,1.34,1.81,24.28,24.28,0,0,0,3.33,2.85,1.5,1.5,0,0,1,.32,2.1A1.53,1.53,0,0,1,112.8,156Zm-6.89-9a1.51,1.51,0,0,1-1.42-1,34.25,34.25,0,0,1-1.82-8.85,1.5,1.5,0,1,1,3-.23,31.66,31.66,0,0,0,1.66,8.07,1.48,1.48,0,0,1-1.41,2Z"/>
    <path fill="#FFFFFF" d="M132.22,166.41l-.61-.18a42.16,42.16,0,0,1-5.78-2.32,1.5,1.5,0,0,1,1.29-2.71,44.92,44.92,0,0,0,4.73,2,17.33,17.33,0,0,0,3.79-3.07,1.5,1.5,0,0,1,2.21,2,20.76,20.76,0,0,1-5.08,4Z"/>
    <path fill="#FFFFFF" d="M140,157.81a1.51,1.51,0,0,1-.65-.15,1.49,1.49,0,0,1-.7-2A30.66,30.66,0,0,0,141,146.8a1.5,1.5,0,0,1,3,.41,33.17,33.17,0,0,1-2.67,9.75A1.52,1.52,0,0,1,140,157.81Zm3.22-15.08H143a1.51,1.51,0,0,1-1.3-1.68,19.54,19.54,0,0,1,.65-3.29,35.6,35.6,0,0,0,1.3-6.19,1.5,1.5,0,0,1,3,.4,39.79,39.79,0,0,1-1.42,6.7,16.24,16.24,0,0,0-.53,2.76A1.49,1.49,0,0,1,143.2,142.73Z"/>
    <path fill="#FFFFFF" d="M178.3,157.92a1.52,1.52,0,0,1-.94-.33,19.49,19.49,0,0,1-5.41-7c-.22-.48-.42-1-.61-1.47a1.5,1.5,0,1,1,2.8-1.06c.17.43.35.86.54,1.28a16.54,16.54,0,0,0,4.57,5.88,1.5,1.5,0,0,1-.95,2.66Zm-7-13.42a1.5,1.5,0,0,1-1.48-1.29,35.71,35.71,0,0,1-.33-5,50.29,50.29,0,0,1,.28-5.07,1.52,1.52,0,0,1,1.66-1.33,1.5,1.5,0,0,1,1.33,1.65,44.22,44.22,0,0,0-.27,4.75,33,33,0,0,0,.3,4.55,1.5,1.5,0,0,1-1.28,1.69Zm.85-15.4a1.33,1.33,0,0,1-.28,0,1.49,1.49,0,0,1-1.19-1.75c.39-2,.84-4,1.27-6,.4-1.77.8-3.6,1.16-5.39a1.5,1.5,0,1,1,2.94.58c-.36,1.83-.77,3.68-1.17,5.46-.43,1.94-.88,3.93-1.26,5.9A1.49,1.49,0,0,1,172.17,129.1Zm-26.42-1.63h-.14a1.5,1.5,0,0,1-1.35-1.63c.17-1.92.34-3.66.57-5.37.26-1.87.47-3.77.68-6.17a1.5,1.5,0,1,1,3,.25c-.21,2.46-.43,4.41-.69,6.33-.23,1.65-.39,3.35-.57,5.23A1.49,1.49,0,0,1,145.75,127.47ZM175.54,112h-.18a1.49,1.49,0,0,1-1.31-1.66q.09-.77.15-1.53c.16-1.77.39-3.55.6-5.28.12-.94.24-1.87.34-2.81a1.51,1.51,0,0,1,1.67-1.31,1.49,1.49,0,0,1,1.32,1.65c-.11,1-.23,1.9-.35,2.84-.21,1.7-.43,3.46-.59,5.18,0,.54-.1,1.07-.17,1.61A1.49,1.49,0,0,1,175.54,112Zm-28.07-1.87h-.12a1.51,1.51,0,0,1-1.38-1.62,89.08,89.08,0,0,1,1.27-9.76,1.5,1.5,0,1,1,2.94.58,83.19,83.19,0,0,0-1.21,9.43A1.51,1.51,0,0,1,147.47,110.13ZM177.1,96.59h0a1.5,1.5,0,0,1-1.46-1.54c0-.34,0-.69,0-1a11.13,11.13,0,0,0-2.34-7.1,1.5,1.5,0,0,1,2.38-1.83,14.24,14.24,0,0,1,3,8.88c0,.43,0,.8,0,1.17A1.49,1.49,0,0,1,177.1,96.59Zm-26.93-1.67a1.42,1.42,0,0,1-.53-.1,1.49,1.49,0,0,1-.87-1.93,26.28,26.28,0,0,1,5.63-8.53,1.5,1.5,0,0,1,2.12,0,1.48,1.48,0,0,1,0,2.11,23.44,23.44,0,0,0-5,7.54A1.51,1.51,0,0,1,150.17,94.92Zm20-11.27a1.5,1.5,0,0,1-.81-.24,31.35,31.35,0,0,0-5.25-2.63,20,20,0,0,0-3.34,2A1.5,1.5,0,0,1,159,80.35a22,22,0,0,1,4.53-2.59l.55-.22.55.22A36.92,36.92,0,0,1,171,80.89a1.5,1.5,0,0,1-.82,2.76Z"/>
    <path fill="#FFFFFF" d="M186.74,161.17a13.11,13.11,0,0,1-3.73-.55,1.5,1.5,0,1,1,.85-2.88,9.55,9.55,0,0,0,5.13.16,1.5,1.5,0,1,1,.74,2.9A12.06,12.06,0,0,1,186.74,161.17Z"/>
    <ellipse fill="#FFFFFF" cx="196.28" cy="155.05" rx="3.92" ry="3.91"/>
  </g>
</svg>
