<svg xmlns="http://www.w3.org/2000/svg" viewBox="0 0 303.91 186.21">
  <g>
    <path class="slds-illustration__fill-secondary" d="M147.68,184.15H268c-1.81-10.13-14.24-18-29.33-18a41.21,41.21,0,0,0-9.65,1.14c-2.3-9.75-14.46-17.19-29.16-17.19-13.59,0-25,6.35-28.48,15a18.94,18.94,0,0,0-7.69-1.63,18.35,18.35,0,0,0-12,4.33c-1.15-16.44-18.76-29.51-40.37-29.51-18.4,0-33.9,9.46-38.83,22.4A36.72,36.72,0,0,0,59,158.15c-16.23,0-28,12.95-32.34,26C26.68,184.15,147.27,183.68,147.68,184.15Z"/>
    <path class="slds-illustration__fill-secondary" d="M21.82,95.14h6a1.25,1.25,0,1,0,0-2.5h-6a1.25,1.25,0,0,0,0,2.5Z"/>
    <path class="slds-illustration__fill-secondary" d="M33.35,95.14h42.9a1.25,1.25,0,0,0,0-2.5H33.35a1.25,1.25,0,0,0,0,2.5Z"/>
    <path class="slds-illustration__fill-secondary" d="M93.26,92.34a7.64,7.64,0,0,0-3.36-.59A9.91,9.91,0,0,0,89,87.24a8.21,8.21,0,0,0-4.65-4.07,7.41,7.41,0,0,0-3.53-.31,9.55,9.55,0,0,0-16.92-3.74c-1.61,2.1-1.9,4.39-2,6.88H50a1.25,1.25,0,0,0,0,2.5H64.42V87.25c0-2.22-.09-4.29,1.17-6.22a7.08,7.08,0,0,1,12.87,2.59A8.65,8.65,0,0,0,74,89.5c-.32,1.57,2.09,2.24,2.41.66.72-3.41,4.09-6,7.56-4.46a5.8,5.8,0,0,1,3,3.12,10,10,0,0,1,.42,4.08h0v1.35h1.25A9.12,9.12,0,0,1,92,94.5a3.14,3.14,0,0,1,1.58,4.58c-.88,1.35-2.31,1.53-3.75,1.53h-50a1.25,1.25,0,0,0,0,2.5H63.61c8.92,0,17.85.07,26.78,0,3.15,0,6-2.17,6.16-5.51A5.69,5.69,0,0,0,93.26,92.34Z"/>
    <polygon class="slds-illustration__fill-secondary" points="164.01 70.39 164.76 166.38 204.17 184.93 203.73 90.88 164.01 70.39"/>
    <polygon class="slds-illustration__fill-secondary" points="92.9 70.39 92.9 166.81 132.31 184.93 130.77 91.25 92.9 70.39"/>
    <circle class="slds-illustration__fill-secondary" cx="171.86" cy="29.75" r="14.4"/>
    <path class="slds-illustration__fill-primary" d="M185,29.75a13.14,13.14,0,1,1-10.74-12.94A13.29,13.29,0,0,1,185,29.75a1.25,1.25,0,0,0,2.5,0,15.65,15.65,0,1,0-29.1,8,15.65,15.65,0,0,0,29.1-8A1.25,1.25,0,0,0,185,29.75Z"/>
    <path class="slds-illustration__fill-secondary" d="M185.58,15.57a19.62,19.62,0,1,1-5.49-3.84c1.45.67,2.72-1.48,1.26-2.16a22.14,22.14,0,0,0-30.52,27.17,22.14,22.14,0,1,0,36.52-22.93c-1.13-1.15-2.9.62-1.77,1.76Z"/>
    <path class="slds-illustration__fill-secondary" d="M188.1,51.41a27.16,27.16,0,0,1-43.31-23.87,27.16,27.16,0,1,1,52,12.82c-.62,1.48,1.8,2.13,2.41.66a29.65,29.65,0,1,0-46.42,11.33,29.94,29.94,0,0,0,36.54,1.22c1.29-.94,0-3.11-1.26-2.16Z"/>
    <path class="slds-illustration__fill-primary" d="M22.57,186.18H291.33c3.63,0,7.26.07,10.89,0h.48a1.25,1.25,0,0,0,0-2.5H33.94c-3.63,0-7.27-.07-10.89,0h-.48a1.25,1.25,0,0,0,0,2.5Z"/>
    <polygon class="slds-illustration__fill-primary" points="130.76 87.57 132.31 184.93 164.76 166.38 163.99 66.71 130.76 87.57"/>
    <path class="slds-illustration__fill-primary" d="M92.27,67.79l12.81,7L125.4,86l4.73,2.61a1.28,1.28,0,0,0,1.27,0l29.09-18.27,4.13-2.59h-1.26l13.55,7,21.63,11.23,5,2.6-.62-1.08V181a24,24,0,0,0,0,3.79.86.86,0,0,1,0,.16l1.88-1.08-32.47-15.28-6.15-2.89a3.8,3.8,0,0,0-1.42-.54,3.6,3.6,0,0,0-1.5.66l-16.33,9.33-15.25,8.72h1.26l-13.27-6.24-21.27-10-4.87-2.28.62,1.08V79c0-4,.18-8.1,0-12.13v-.17a1.25,1.25,0,0,0-2.5,0v87.37c0,4-.17,8.11,0,12.13a1.08,1.08,0,0,1,0,.18,1.22,1.22,0,0,0,.62,1.07l32.47,15.29,6.15,2.89a4,4,0,0,0,1.42.54,3.44,3.44,0,0,0,1.5-.67l16.33-9.33,15.25-8.72h-1.26l13.27,6.25,21.28,10,4.86,2.29a1.27,1.27,0,0,0,1.88-1.08V91.52c0-1.25.1-2.54,0-3.78v-.17a1.24,1.24,0,0,0-.62-1.08L171.58,69.24,165.37,66c-.52-.27-1.1-.68-1.71-.52a5.11,5.11,0,0,0-1.26.73L145.48,76.85l-15.35,9.64h1.27l-12.81-7L98.27,68.24l-4.74-2.61C92.12,64.85,90.86,67,92.27,67.79Z"/>
    <path class="slds-illustration__fill-primary" d="M17,183.68H1.21a1.25,1.25,0,0,0,0,2.5H17a1.25,1.25,0,0,0,0-2.5Z"/>
    <polygon class="slds-illustration__fill-secondary" points="254.58 140.31 266.27 178.99 242.89 178.99 254.58 140.31"/>
    <path class="slds-illustration__fill-primary" d="M245.78,177.74h18.8l-.94-3.14-10.27-34c-.47-1.54,1.95-2.2,2.41-.66l1.43,4.72,10.26,34a1.26,1.26,0,0,1-1.2,1.58H242.89a1.26,1.26,0,0,1-1.21-1.58l1.43-4.72,10.26-34c.47-1.54,2.88-.88,2.41.66l-1.42,4.72-9.79,32.38Z"/>
    <path class="slds-illustration__fill-secondary" d="M206.18,51.34h6a1.26,1.26,0,0,0,1.25-1.25,1.28,1.28,0,0,0-1.25-1.25h-6a1.25,1.25,0,0,0,0,2.5Z"/>
    <path class="slds-illustration__fill-secondary" d="M217.71,51.34H260.6a1.25,1.25,0,0,0,0-2.5H217.71a1.25,1.25,0,0,0,0,2.5Z"/>
    <path class="slds-illustration__fill-secondary" d="M277.61,48.54a7.91,7.91,0,0,0-3.36-.59,10,10,0,0,0-.9-4.5,8.2,8.2,0,0,0-4.66-4.07,7.38,7.38,0,0,0-3.52-.32,9.55,9.55,0,0,0-16.92-3.74c-1.61,2.11-1.91,4.4-2,6.89H234.36a1.25,1.25,0,0,0,0,2.5h14.41V43.46c0-2.22-.1-4.29,1.16-6.22a7.08,7.08,0,0,1,12.88,2.59,8.63,8.63,0,0,0-4.45,5.87c-.33,1.57,2.08,2.24,2.41.67.71-3.41,4.08-6,7.55-4.46a5.81,5.81,0,0,1,3,3.11,9.92,9.92,0,0,1,.42,4.09h0v1.35H273a9.42,9.42,0,0,1,3.35.24,3.15,3.15,0,0,1,1.57,4.59c-.88,1.35-2.3,1.53-3.75,1.53h-50a1.25,1.25,0,0,0,0,2.5H248c8.92,0,17.85.07,26.77,0,3.16,0,6.06-2.17,6.17-5.52A5.72,5.72,0,0,0,277.61,48.54Z"/>
    <polygon class="slds-illustration__fill-secondary" points="228.77 123.23 245.63 178.99 211.91 178.99 228.77 123.23"/>
    <path class="slds-illustration__fill-primary" d="M243.94,177.74l-1.61-5.33-9.07-30-4.49-14.84-1.2-4c-.47-1.55,1.94-2.2,2.41-.67l2.08,6.91,9.08,30,5.69,18.83a1.26,1.26,0,0,1-1.2,1.58H211.91a1.26,1.26,0,0,1-1.2-1.58l2.09-6.91,9.07-30,5.7-18.83a1.25,1.25,0,0,1,2.41.67l-2.09,6.91-9.08,30-5.21,17.25h30.34Z"/>
    <path class="slds-illustration__fill-primary" d="M262.23,162.39a1.28,1.28,0,0,0-1.77,0l-4.63,5V141.2a1.25,1.25,0,0,0-2.5,0v19.58l-2.7-2.46-.69-.63a1.25,1.25,0,0,0-1.77,1.77l4.83,4.4.33.3v19.13a1.25,1.25,0,0,0,2.5,0V171.12l5.56-6.05.84-.91A1.28,1.28,0,0,0,262.23,162.39Z"/>
    <path class="slds-illustration__fill-primary" d="M237.61,155.55,230,163.84V124.6a1.25,1.25,0,0,0-2.5,0v29.48l-4.83-4.4-1-.91a1.25,1.25,0,1,0-1.76,1.77l7,6.34.63.58V184a1.25,1.25,0,0,0,2.5,0V167.53l8.18-8.9,1.21-1.32a1.25,1.25,0,0,0-1.77-1.76Z"/>
    <path fill="#FFFFFF" d="M112,93.84l-2.82,5-3.62-1.78-1.6-.78a1.25,1.25,0,0,0-1.14,2.23l5.14,2.52-2,3.51-.84,1.51c-.79,1.41,1.44,2.54,2.23,1.13l2.82-5,3.62,1.78,1.6.78a1.25,1.25,0,0,0,1.14-2.23L111.38,100l2-3.51.84-1.51C115,93.57,112.74,92.43,112,93.84Z"/>
    <path fill="#FFFFFF" d="M111.3,117.46a1.61,1.61,0,0,1-.48-.08,1.49,1.49,0,0,1-.94-1.9,34.21,34.21,0,0,0,1.41-5.57,1.5,1.5,0,1,1,3,.47,36.35,36.35,0,0,1-1.53,6.06A1.51,1.51,0,0,1,111.3,117.46Z"/>
    <path fill="#FFFFFF" d="M104.1,139.33H104a1.49,1.49,0,0,1-1.39-1.6v-.2a32.76,32.76,0,0,1,1.49-7.21,1.5,1.5,0,1,1,2.86.91,29.73,29.73,0,0,0-1.36,6.54v.17A1.5,1.5,0,0,1,104.1,139.33ZM107,128.19a1.52,1.52,0,0,1-.55-.1,1.5,1.5,0,0,1-.84-2c.5-1.26,1-2.51,1.55-3.76.41-1,.82-1.95,1.21-2.93a1.5,1.5,0,1,1,2.78,1.13c-.4,1-.81,2-1.22,3-.52,1.23-1,2.47-1.53,3.71A1.51,1.51,0,0,1,107,128.19Z"/>
    <path fill="#FFFFFF" d="M122.57,167.28a1.43,1.43,0,0,1-.71-.19c-2.17-1.17-4.36-2.45-6.33-3.72a1.5,1.5,0,1,1,1.62-2.52c1.91,1.22,4,2.47,6.14,3.61a1.5,1.5,0,0,1-.72,2.82Zm-9.8-6.12a1.47,1.47,0,0,1-.89-.3,27,27,0,0,1-3.77-3.24,15,15,0,0,1-1.68-2.27,1.5,1.5,0,0,1,2.56-1.57,12.08,12.08,0,0,0,1.34,1.82,24.37,24.37,0,0,0,3.33,2.85,1.49,1.49,0,0,1,.31,2.1A1.47,1.47,0,0,1,112.77,161.16Zm-6.9-9a1.5,1.5,0,0,1-1.41-1,34.33,34.33,0,0,1-1.82-8.86,1.5,1.5,0,1,1,3-.23,31.32,31.32,0,0,0,1.66,8.08,1.48,1.48,0,0,1-1.42,2Z"/>
    <path fill="#FFFFFF" d="M132.18,171.61l-.61-.18a42.92,42.92,0,0,1-5.78-2.33,1.5,1.5,0,1,1,1.29-2.71,44.92,44.92,0,0,0,4.73,2,17.33,17.33,0,0,0,3.79-3.07,1.5,1.5,0,1,1,2.2,2,21,21,0,0,1-5.07,4Z"/>
    <path fill="#FFFFFF" d="M139.94,163a1.49,1.49,0,0,1-1.36-2.14A30.69,30.69,0,0,0,141,152a1.5,1.5,0,0,1,3,.41,33.59,33.59,0,0,1-2.68,9.76A1.49,1.49,0,0,1,139.94,163Zm3.21-15.1H143a1.5,1.5,0,0,1-1.3-1.67,18.53,18.53,0,0,1,.65-3.3,36.69,36.69,0,0,0,1.3-6.2,1.5,1.5,0,1,1,3,.4,38.81,38.81,0,0,1-1.41,6.71,15.49,15.49,0,0,0-.53,2.76A1.5,1.5,0,0,1,143.15,147.89Z"/>
    <path fill="#FFFFFF" d="M178.25,163.1a1.49,1.49,0,0,1-.95-.33,19.53,19.53,0,0,1-5.4-7c-.22-.48-.42-1-.61-1.47a1.5,1.5,0,0,1,2.8-1.06c.16.43.34.86.54,1.28a16.46,16.46,0,0,0,4.56,5.89,1.49,1.49,0,0,1,.22,2.11A1.47,1.47,0,0,1,178.25,163.1Zm-7-13.43a1.49,1.49,0,0,1-1.48-1.29,36,36,0,0,1-.33-5,47.52,47.52,0,0,1,.28-5.07,1.5,1.5,0,1,1,3,.32,46.7,46.7,0,0,0-.26,4.75,33,33,0,0,0,.3,4.55,1.51,1.51,0,0,1-1.28,1.7Zm.85-15.42-.29,0a1.49,1.49,0,0,1-1.18-1.75c.38-2,.83-4,1.27-6,.39-1.77.8-3.6,1.16-5.4a1.5,1.5,0,1,1,2.94.58c-.36,1.84-.78,3.69-1.17,5.48s-.88,3.93-1.26,5.9A1.5,1.5,0,0,1,172.12,134.25Zm-26.41-1.63h-.14a1.51,1.51,0,0,1-1.36-1.63c.18-1.93.34-3.66.58-5.38.26-1.87.47-3.78.67-6.18a1.5,1.5,0,1,1,3,.26c-.21,2.46-.42,4.41-.69,6.33-.23,1.65-.39,3.35-.56,5.24A1.5,1.5,0,0,1,145.71,132.62Zm29.77-15.49h-.18a1.49,1.49,0,0,1-1.31-1.66c.06-.51.12-1,.16-1.53.16-1.77.38-3.56.6-5.29.12-.94.23-1.87.34-2.81a1.52,1.52,0,0,1,1.66-1.32,1.5,1.5,0,0,1,1.32,1.66c-.11,1-.23,1.9-.34,2.84-.22,1.7-.44,3.47-.59,5.18,0,.54-.1,1.08-.17,1.62A1.5,1.5,0,0,1,175.48,117.13Zm-28-1.87h-.13a1.5,1.5,0,0,1-1.37-1.62,86.9,86.9,0,0,1,1.26-9.78,1.5,1.5,0,1,1,2.94.58,83.8,83.8,0,0,0-1.21,9.45A1.5,1.5,0,0,1,147.43,115.26ZM177,101.7h0a1.5,1.5,0,0,1-1.45-1.54c0-.34,0-.69,0-1A11.22,11.22,0,0,0,173.22,92a1.5,1.5,0,0,1,2.37-1.83,14.2,14.2,0,0,1,3,8.89c0,.43,0,.8,0,1.17A1.5,1.5,0,0,1,177,101.7ZM150.13,100a1.47,1.47,0,0,1-.54-.1,1.49,1.49,0,0,1-.86-1.93,26.39,26.39,0,0,1,5.62-8.54,1.5,1.5,0,0,1,2.18,2.07,23.37,23.37,0,0,0-5,7.54A1.5,1.5,0,0,1,150.13,100Zm20-11.28a1.5,1.5,0,0,1-.81-.24A31.45,31.45,0,0,0,164,85.87a20.09,20.09,0,0,0-3.34,2,1.5,1.5,0,0,1-1.76-2.43,21.65,21.65,0,0,1,4.53-2.6l.55-.22.55.22A36.26,36.26,0,0,1,170.9,86a1.5,1.5,0,0,1-.81,2.76Z"/>
    <path fill="#FFFFFF" d="M186.69,166.36a13.13,13.13,0,0,1-3.74-.55,1.5,1.5,0,0,1,.85-2.88,9.55,9.55,0,0,0,5.13.15,1.5,1.5,0,1,1,.74,2.91A12,12,0,0,1,186.69,166.36Z"/>
    <circle fill="#FFFFFF" cx="196.22" cy="160.23" r="3.92"/>
  </g>
</svg>
