<svg xmlns="http://www.w3.org/2000/svg" viewBox="0 -31.8 303.91 186.21">
  <g>
    <path class="slds-illustration__fill-secondary" d="M302.7,143.88H220.4a1.12,1.12,0,0,0-.18-1.47l-6-6-14.45-14.32-17.58-17.43-15.12-15c-2.44-2.41-4.77-5.06-7.37-7.3l-.1-.1a1.28,1.28,0,0,0-1.77,0L141.76,97.55l-1.42,1.35L137,95.66a.66.66,0,0,0,.09-.49c-.68-2.5-1.35-5-2-7.49-.09-.36-.19-.72-.29-1.07a.56.56,0,0,0-.58-.44.54.54,0,0,0-.55.28h0a.67.67,0,0,0-.06.15v0s0,0,0,0c-.34,1.54-.69,3.08-1,4.62L107.29,66.75l-5.84-5.67a1.27,1.27,0,0,0-1.77,0l-8.17,8.11L72,88.58,48.25,112.11,27.82,132.38c-2.62,2.6-5.34,5.14-7.93,7.78-.1-.38-.21-.76-.31-1.14l-.14-.53h0l0-.06,0-.08a.16.16,0,0,0-.05-.09.55.55,0,0,0-.51-.26.58.58,0,0,0-.52.25,1.17,1.17,0,0,0-.05.11.15.15,0,0,0,0,.07l0,.06h0c-.37,1.35-.73,2.7-1.09,4l-.16.58a.61.61,0,0,0,.48.76H17q-1.56-5.74-3.11-11.51l-.44-1.61h0v-.06s0,0,0-.08l0-.1a.56.56,0,0,0-.52-.26.55.55,0,0,0-.51.26.24.24,0,0,0,0,.1s0,0,0,.08l0,.06h0q-1.56,5.82-3.14,11.64l-.4,1.46c-2.33,0-4.65,0-7,0H1.21a1.25,1.25,0,0,0,0,2.5H290.48c3.9,0,7.81.08,11.71,0h.51A1.25,1.25,0,0,0,302.7,143.88Zm-145.48,0H49.75a.63.63,0,0,0,.48-.76q-.79-2.93-1.58-5.85l-.21-.77h0l0-.06,0-.08a.47.47,0,0,0-.05-.1.59.59,0,0,0-.51-.26.56.56,0,0,0-.52.26s0,.07,0,.1,0,0,0,.08v.06h0q-.78,2.9-1.57,5.79l-.22.83a.61.61,0,0,0,.48.76H20.21a.62.62,0,0,0,.48-.76l0-.11,7-6.95L47.2,116.67,70.92,93.14,91.35,72.87l6.78-6.73c.76-.76,1.68-1.5,2.46-2.31l15.13,14.62,25.35,24.65,5.84,5.68c1.15,1.12,2.92-.64,1.77-1.77l-6.55-6.36,15.14-14.38,1.41-1.35L163.83,90l14.45,14.32,17.58,17.43,15.13,15c2.37,2.35,4.64,4.92,7.16,7.11H157.22Z"/>
    <path class="slds-illustration__fill-secondary" d="M267.44,137.27l-2-6.57L254.68,95.06l-6.76-22.38c-.47-1.55,1.94-2.2,2.41-.67l2.46,8.15,10.77,35.65,6.77,22.38a1.26,1.26,0,0,1-1.21,1.58h-40a1.26,1.26,0,0,1-1.21-1.58l2.47-8.15,10.77-35.65L247.92,72a1.25,1.25,0,0,1,2.41.67l-2.47,8.15-10.77,35.64-6.29,20.8h36.64Z"/>
    <path class="slds-illustration__fill-secondary" d="M285.14,118.87a1.27,1.27,0,0,0-1.77,0l-5.9,6.42V93.56a1.25,1.25,0,0,0-2.5,0v49.95a1.25,1.25,0,0,0,2.5,0V129l6.67-7.25,1-1.09A1.29,1.29,0,0,0,285.14,118.87Z"/>
    <path class="slds-illustration__fill-secondary" d="M259.82,110.75,250.37,121V73.86a1.25,1.25,0,0,0-2.5,0v35.51l-6.12-5.58-1.19-1.08a1.29,1.29,0,0,0-1.77,0,1.27,1.27,0,0,0,0,1.77l8.26,7.52.82.75v31.61a1.25,1.25,0,0,0,2.5,0V124.71q4.89-5.31,9.77-10.63l1.45-1.56C262.67,111.33,260.91,109.56,259.82,110.75Z"/>
    <rect fill="#FFFFFF" x="139.14" y="122.64" width="11" height="30.49"/>
    <path class="slds-illustration__fill-primary" d="M151.14,154.14h-13v-32.5h13Zm-11-2h9v-28.5h-9Z"/>
    <rect class="slds-illustration__fill-secondary" x="140" y="122.64" width="7.1" height="30.49"/>
    <rect class="slds-illustration__fill-secondary" x="190.94" y="85.95" width="5.48" height="10.6" transform="translate(-20.09 79.46) rotate(-22.07)"/>
    <path class="slds-illustration__fill-primary" d="M192.58,98.49l-4.73-11.67L194.78,84l4.74,11.68Zm-2.13-10.57,3.23,8,3.23-1.31-3.23-8Z"/>
    <rect fill="#FFFFFF" x="193.91" y="85.51" width="1.5" height="9.76" transform="translate(-19.7 79.76) rotate(-22.07)"/>
    <circle stroke-width="2" stroke-miterlimit="10" class="slds-illustration__stroke-primary slds-illustration__fill-secondary slds-illustration__stroke-primary" cx="191.16" cy="85.01" r="4.05"/>
    <path stroke-miterlimit="10" fill="none" stroke="#FFFFFF" stroke-width="1.5" d="M189.38,81.42c1.56-.63,3.71,1,4.34,2.61s.26,4.26-1.3,4.89"/>
    <path class="slds-illustration__fill-primary" d="M191.18,90.12A5.07,5.07,0,0,1,186.49,87a5.06,5.06,0,0,1,9.37-3.8h0a5,5,0,0,1-2.79,6.58A4.87,4.87,0,0,1,191.18,90.12Zm0-8.11a3.07,3.07,0,1,0,1.18.24A3.05,3.05,0,0,0,191.18,82Z"/>
    <rect class="slds-illustration__fill-secondary" x="85.18" y="129.03" width="5.48" height="10.6" transform="translate(-44.03 42.87) rotate(-22.07)"/>
    <path class="slds-illustration__fill-primary" d="M86.82,141.57l-4.74-11.68L89,127.08l4.73,11.67ZM84.69,131l3.23,8,3.22-1.31-3.22-8Z"/>
    <rect fill="#FFFFFF" x="88.15" y="128.59" width="1.5" height="9.76" transform="translate(-43.64 43.18) rotate(-22.07)"/>
    <circle stroke-width="2" stroke-miterlimit="10" class="slds-illustration__stroke-primary slds-illustration__fill-secondary slds-illustration__stroke-primary" cx="85.39" cy="128.09" r="4.05"/>
    <path stroke-miterlimit="10" fill="none" stroke="#FFFFFF" stroke-width="1.5" d="M83.62,124.5c1.55-.63,3.71,1,4.34,2.61s.26,4.26-1.3,4.89"/>
    <path class="slds-illustration__fill-primary" d="M85.42,133.19a5.05,5.05,0,1,1,4.67-7h0a5,5,0,0,1-4.67,7Zm0-8.1a3.05,3.05,0,1,0,2.84,1.9h0A3.07,3.07,0,0,0,85.4,125.09Z"/>
    <polygon class="slds-illustration__fill-secondary" points="215.18 96.35 75.99 152.78 73.02 145.65 212.21 89.22 215.18 96.35"/>
    <path class="slds-illustration__fill-primary" d="M75.45,154.07l-3.74-9,.94-.38,140.1-56.8,3.74,9-.94.38Zm-1.12-7.87,2.21,5.28L213.86,95.8l-2.2-5.28Z"/>
    <path class="slds-illustration__fill-secondary" d="M130.25,19.79h6a1.25,1.25,0,0,0,0-2.5h-6a1.25,1.25,0,0,0,0,2.5Z"/>
    <path class="slds-illustration__fill-secondary" d="M141.78,19.79h42.9a1.25,1.25,0,0,0,0-2.5h-42.9a1.25,1.25,0,0,0,0,2.5Z"/>
    <path class="slds-illustration__fill-secondary" d="M201.69,17a7.64,7.64,0,0,0-3.36-.59,9.91,9.91,0,0,0-.91-4.51,8.21,8.21,0,0,0-4.65-4.07,7.41,7.41,0,0,0-3.53-.31,9.54,9.54,0,0,0-16.91-3.74c-1.62,2.1-1.91,4.39-2,6.88H158.44a1.25,1.25,0,0,0,0,2.5h14.41V11.9c0-2.22-.09-4.29,1.17-6.22a7.08,7.08,0,0,1,12.87,2.59,8.65,8.65,0,0,0-4.45,5.88c-.32,1.57,2.09,2.24,2.42.66.71-3.41,4.08-6,7.55-4.46a5.8,5.8,0,0,1,3,3.12,10,10,0,0,1,.42,4.08h0V18.9h1.25a9.12,9.12,0,0,1,3.34.25A3.14,3.14,0,0,1,202,23.73c-.88,1.35-2.31,1.53-3.75,1.53h-50a1.25,1.25,0,0,0,0,2.5H172c8.92,0,17.85.07,26.78,0,3.16,0,6.05-2.17,6.16-5.51A5.69,5.69,0,0,0,201.69,17Z"/>
    <path class="slds-illustration__fill-secondary" d="M11.17,48.05h6a1.26,1.26,0,0,0,1.25-1.25,1.28,1.28,0,0,0-1.25-1.25h-6a1.25,1.25,0,0,0,0,2.5Z"/>
    <path class="slds-illustration__fill-secondary" d="M22.7,48.05H65.59a1.25,1.25,0,0,0,0-2.5H22.7a1.25,1.25,0,0,0,0,2.5Z"/>
    <path class="slds-illustration__fill-secondary" d="M82.6,45.25a7.91,7.91,0,0,0-3.36-.59,10,10,0,0,0-.9-4.5,8.2,8.2,0,0,0-4.66-4.07,7.38,7.38,0,0,0-3.52-.32A9.55,9.55,0,0,0,53.24,32c-1.61,2.11-1.91,4.4-2,6.89H39.35a1.25,1.25,0,0,0,0,2.5H53.76V40.2s0,0,0,0c0-2.22-.1-4.29,1.16-6.22a7.08,7.08,0,0,1,12.88,2.59,8.63,8.63,0,0,0-4.45,5.87c-.33,1.57,2.08,2.24,2.41.67.71-3.41,4.08-6,7.55-4.46a5.81,5.81,0,0,1,3,3.11,9.92,9.92,0,0,1,.42,4.09h0v1.35H78a9.42,9.42,0,0,1,3.35.24A3.15,3.15,0,0,1,82.91,52c-.87,1.35-2.3,1.53-3.74,1.53h-50a1.25,1.25,0,0,0,0,2.5H53c8.92,0,17.85.07,26.77,0,3.16,0,6.06-2.17,6.17-5.52A5.72,5.72,0,0,0,82.6,45.25Z"/>
    <path class="slds-illustration__fill-secondary" d="M238.62,141.25a10.8,10.8,0,0,0,1-.81,2.43,2.43,0,0,0,.45.81Z"/>
    <path class="slds-illustration__fill-primary" d="M261.17,154.39h6.18a1.25,1.25,0,0,0,0-2.5h-6.18a1.26,1.26,0,0,0-1.25,1.25,1.28,1.28,0,0,0,1.25,1.25Z"/>
    <path class="slds-illustration__fill-secondary" d="M215.48,38.48Z"/>
    <path class="slds-illustration__fill-secondary" d="M233,43.55a8.54,8.54,0,0,0-4.5-1.95,7.57,7.57,0,0,0-5.77,1.82,7.49,7.49,0,0,0-2.61-5.5A8.65,8.65,0,0,0,215.61,36a1.26,1.26,0,0,0-1.25,1.25,1.27,1.27,0,0,0,1.25,1.25h-.13l.15,0a6.17,6.17,0,0,1,.74.19l.48.16.1,0,.26.12a6.31,6.31,0,0,1,1.12.68,1.31,1.31,0,0,1,.16.14l.27.25.39.42a4.61,4.61,0,0,1,.78,1.46,8.7,8.7,0,0,1,0,4.64,1.26,1.26,0,0,0,2.29,1c1.43-2.07,3.67-3.93,6.19-3.47a5.87,5.87,0,0,1,2.06.75l.68.44h0v0C232.41,46.36,234.19,44.6,233,43.55Z"/>
    <path class="slds-illustration__fill-secondary" d="M200.61,64.33c-.1.06-.1.07,0,0Z"/>
    <path class="slds-illustration__fill-secondary" d="M217.31,57.08a8.54,8.54,0,0,0-4.71,1.37,7.57,7.57,0,0,0-3.28,5.09A7.5,7.5,0,0,0,203.8,61a8.59,8.59,0,0,0-4.67,1.38A1.26,1.26,0,0,0,199,64.1a1.29,1.29,0,0,0,1.76.16l-.11.07.14-.07q.34-.18.69-.33l.48-.18.09,0,.29-.08a7,7,0,0,1,1.3-.19h.2l.37,0,.57.08a4.94,4.94,0,0,1,1.54.63,8.7,8.7,0,0,1,3,3.56,1.25,1.25,0,0,0,2.37-.72c-.21-2.5.32-5.36,2.55-6.62a5.67,5.67,0,0,1,2.07-.73c.27-.05.54-.07.8-.1h.05C218.68,59.6,218.92,57.11,217.31,57.08Z"/>
    <path class="slds-illustration__fill-primary" d="M254.59,151.89H164.4l-1.77-5.64c-.1-.3-.19-.6-.29-.9a.53.53,0,0,0-.14-.3s0,0,0,0a.47.47,0,0,0-.12-.09l-.12-.06-.08,0h-.27l-.07,0-.13.06a.31.31,0,0,0-.11.09l0,0a.53.53,0,0,0-.15.31l-1.29,4.09q-1.08-4-2.18-8.09l-.44-1.61h0v-.06s0-.05,0-.08l0-.1a.55.55,0,0,0-.51-.26.56.56,0,0,0-.52.26s0,.07-.05.1,0,.05,0,.08v.06h0l-3.15,11.64-.13.51H133.74l-2.85-10.57c-.15-.53-.29-1.07-.44-1.61h0v-.06s0-.05,0-.08l-.05-.09a.56.56,0,0,0-.52-.26.56.56,0,0,0-.51.25.54.54,0,0,0,0,.11.43.43,0,0,0,0,.07l0,.06h0q-1.56,5.82-3.14,11.64l-.14.54h-.49l-1.77-5.64-.28-.9a.54.54,0,0,0-.15-.3s0,0,0,0a.47.47,0,0,0-.12-.09l-.12-.06-.08,0h-.26l-.08,0-.12.06a.27.27,0,0,0-.12.09l0,0a.53.53,0,0,0-.15.31q-1,3.27-2,6.54H42.32c-2.86,0-5.73-.07-8.6,0h-.37a1.25,1.25,0,0,0,0,2.5H245.62c2.86,0,5.74.06,8.6,0h.37A1.25,1.25,0,0,0,254.59,151.89Z"/>
    <path class="slds-illustration__fill-secondary" d="M288.41,137.15,287.16,133l-7.45-24.64L275,92.84c-.47-1.55,1.94-2.2,2.41-.67l1.72,5.71,7.45,24.65,4.7,15.54a1.26,1.26,0,0,1-1.2,1.58H262.35a1.26,1.26,0,0,1-1.21-1.58l1.73-5.71,7.45-24.65L275,92.17a1.25,1.25,0,0,1,2.41.67l-1.73,5.71-7.45,24.65-4.22,14h24.38Z"/>
    <path class="slds-illustration__fill-secondary" d="M298.47,146.94v.78A3.39,3.39,0,0,0,298.47,146.94Z"/>
    <path class="slds-illustration__fill-secondary" d="M295.78,144.62c-.94-4.62-6.64-8.18-13.56-8.18a18.94,18.94,0,0,0-4.47.53c-1.07-4.52-6.71-8-13.52-8-6.3,0-11.59,2.95-13.2,7a8.75,8.75,0,0,0-3.57-.76,8.47,8.47,0,0,0-5.54,2c-.53-7.63-8.7-13.68-18.72-13.68-8.52,0-15.71,4.38-18,10.38a16.94,16.94,0,0,0-6.27-1.19c-7.46,0-12.89,5.9-14.94,11.9Z"/>
  </g>
</svg>
