<svg xmlns="http://www.w3.org/2000/svg" viewBox="0 0 304 181">
  <g>
    <path class="slds-illustration__fill-secondary" d="M302.79,169.22H220.46a1.34,1.34,0,0,0-.17-1.64l-6-6.6-14.46-15.87L167.11,109.2c-2.44-2.67-4.77-5.6-7.37-8.08a1.16,1.16,0,0,0-1.12-.5,1.11,1.11,0,0,0-.75.38l-17.49,18.39-3.33-3.59a.84.84,0,0,0,.08-.54c-.68-2.77-1.35-5.53-2-8.3-.21-.53-.12-1.67-.87-1.67a.53.53,0,0,0-.55.31h0a.74.74,0,0,0-.07.21s0,0,0,0c-.34,1.7-.69,3.4-1,5.11L101.48,77.49a1.19,1.19,0,0,0-1.77,0q-4.08,4.5-8.18,9L72,108C54.62,127,37.34,146.12,19.89,165.1l-.45-1.85h0a.75.75,0,0,0-.05-.16,1.17,1.17,0,0,1-.05-.11.55.55,0,0,0-.52-.28.53.53,0,0,0-.51.28.61.61,0,0,0,0,.12.35.35,0,0,0-.06.14h0q-.61,2.56-1.25,5.13a.69.69,0,0,0,.48.84H17l-3.54-14.54h0a.47.47,0,0,0-.06-.15.37.37,0,0,0,0-.11.54.54,0,0,0-.51-.29.55.55,0,0,0-.52.29,1.17,1.17,0,0,0,0,.11.88.88,0,0,0-.05.15h0L8.71,169.2c-2.5,0-5,0-7.5,0-1.61,0-1.61,2.77,0,2.77H290.57c4.07,0,8.15.07,12.22,0C304.4,172,304.4,169.22,302.79,169.22Zm-145.52,0H49.76a.69.69,0,0,0,.48-.84C49.65,166,49,164.43,48.45,162a.53.53,0,0,0-.05-.15,1.17,1.17,0,0,0,0-.11.55.55,0,0,0-.52-.29.54.54,0,0,0-.51.29.22.22,0,0,0,0,.11.34.34,0,0,0-.06.15h0c-.59,2.35-1.26,4-1.79,6.34a.69.69,0,0,0,.48.84H20.21a.71.71,0,0,0,.45-1c26.7-29.2,53.14-58.63,80-87.71C115.7,96.63,132,114.27,147,130.34c1.16,1.24,2.93-.72,1.77-2l-6.54-7q8.26-8.72,16.55-17.42c19.86,21.74,39.64,43.59,59.49,65.31Z"/>
    <path class="slds-illustration__fill-secondary" d="M267,164.06l-1.95-6.42L254.51,122.8l-6.63-21.87c-.46-1.51,1.9-2.15,2.36-.65l2.41,8,10.56,34.84L269.84,165a1.24,1.24,0,0,1-1.18,1.55h-39.2a1.23,1.23,0,0,1-1.18-1.55l2.41-8,10.56-34.84,6.63-21.87c.45-1.5,2.82-.86,2.36.65l-2.42,8-10.55,34.84-6.16,20.32H267Z"/>
    <path class="slds-illustration__fill-secondary" d="M284.35,146.08a1.24,1.24,0,0,0-1.73,0l-5.78,6.27v-31a1.23,1.23,0,0,0-2.45,0v48.83a1.23,1.23,0,0,0,2.45,0V156l6.53-7.09,1-1.06A1.25,1.25,0,0,0,284.35,146.08Z"/>
    <path class="slds-illustration__fill-secondary" d="M259.54,138.14l-9.26,10.05v-46.1a1.23,1.23,0,0,0-2.45,0V136.8l-6-5.46-1.16-1.05a1.26,1.26,0,0,0-1.74,0,1.24,1.24,0,0,0,0,1.73l8.1,7.35.8.73V171a1.23,1.23,0,0,0,2.45,0v-19.2q4.78-5.19,9.58-10.39l1.41-1.53C262.34,138.72,260.61,137,259.54,138.14Z"/>
    <rect fill="#FFFFFF" x="144.44" y="129.91" width="17.1" height="47.27"/>
    <path class="slds-illustration__fill-primary" d="M163.1,178.73H142.89V128.36H163.1Zm-17.1-3.1h14V131.46H146Z"/>
    <rect class="slds-illustration__fill-secondary" x="145.77" y="129.91" width="11.03" height="45.72"/>
    <polygon class="slds-illustration__fill-secondary" points="236.25 87.25 228.35 90.44 222.17 75.22 230.06 72.03 236.25 87.25"/>
    <path class="slds-illustration__fill-primary" d="M227.5,92.46l-7.36-18.09L230.92,70l7.36,18.09Zm-3.31-16.38,5,12.34,5-2-5-12.35Z"/>
    <polygon fill="#FFFFFF" points="232.5 87.37 226.8 73.34 228.96 72.47 234.66 86.49 232.5 87.37"/>
    <ellipse class="slds-illustration__fill-secondary" cx="225.28" cy="71.57" rx="6.3" ry="6.28"/>
    <path fill="#FFFFFF" d="M227.08,79.1l-.61-1.5c2-.82,2.72-4.81,1.75-7.19S224,65.65,222,66.47L221.33,65c3.21-1.3,7.25,2,8.4,4.84S230.29,77.81,227.08,79.1Z"/>
    <path class="slds-illustration__fill-primary" d="M225.32,79.48A7.86,7.86,0,0,1,218,74.59a7.85,7.85,0,0,1,14.56-5.89h0a7.84,7.84,0,0,1-7.27,10.78Zm0-12.57a4.82,4.82,0,0,0-1.78.35,4.7,4.7,0,1,0,1.78-.35Z"/>
    <polygon class="slds-illustration__fill-secondary" points="71.87 154.03 63.97 157.22 57.78 142 65.68 138.81 71.87 154.03"/>
    <path class="slds-illustration__fill-primary" d="M63.11,159.24l-7.35-18.09,10.78-4.36,7.35,18.09Zm-3.3-16.38,5,12.35,5-2-5-12.35Z"/>
    <polygon fill="#FFFFFF" points="68.12 154.15 62.42 140.12 64.58 139.25 70.28 153.27 68.12 154.15"/>
    <ellipse class="slds-illustration__stroke-primary slds-illustration__fill-secondary" stroke-miterlimit="10" stroke-width="2" cx="60.9" cy="138.35" rx="6.3" ry="6.28"/>
    <path fill="#FFFFFF" d="M62.89,146l-.61-1.51c2-.82,2.72-4.81,1.75-7.19a7.58,7.58,0,0,0-2.77-3.21,4,4,0,0,0-3.5-.73l-.62-1.51a5.44,5.44,0,0,1,5,.88,9.13,9.13,0,0,1,3.39,4C66.7,139.5,66.1,144.66,62.89,146Z"/>
    <path class="slds-illustration__fill-primary" d="M60.94,146.26a7.84,7.84,0,1,1,7.27-10.77h0a7.83,7.83,0,0,1-7.27,10.77Zm0-12.57a4.9,4.9,0,0,0-1.78.35,4.74,4.74,0,1,0,6.19,2.61h0A4.76,4.76,0,0,0,60.92,133.69Z"/>
    <polygon class="slds-illustration__fill-secondary" points="262.62 89.14 46.29 176.62 41.68 165.57 258 78.1 262.62 89.14"/>
    <path class="slds-illustration__fill-primary" d="M45.45,178.63l-5.81-13.9,1.45-.59L258.84,76.08,264.65,90l-1.45.59Zm-1.74-12.21,3.43,8.19L260.58,88.29l-3.42-8.18Z"/>
    <path class="slds-illustration__fill-secondary" d="M129.29,19.74h6a1.25,1.25,0,0,0,1.25-1.24,1.27,1.27,0,0,0-1.25-1.25h-6a1.25,1.25,0,1,0,0,2.49Z"/>
    <path class="slds-illustration__fill-secondary" d="M140.83,19.74h42.9a1.25,1.25,0,0,0,0-2.49h-42.9a1.25,1.25,0,0,0,0,2.49Z"/>
    <path class="slds-illustration__fill-secondary" d="M200.75,17a7.78,7.78,0,0,0-3.36-.59,9.9,9.9,0,0,0-.91-4.5,8.18,8.18,0,0,0-4.65-4,7.42,7.42,0,0,0-3.53-.32,9.56,9.56,0,0,0-16.92-3.73c-1.62,2.1-1.91,4.39-2,6.87H157.49a1.25,1.25,0,0,0,0,2.49H171.9V11.9s0,0,0,0c0-2.21-.1-4.28,1.16-6.2A7.08,7.08,0,0,1,186,8.25a8.63,8.63,0,0,0-4.45,5.86c-.33,1.57,2.08,2.24,2.41.67.71-3.41,4.08-5.95,7.56-4.45a5.81,5.81,0,0,1,3,3.11,10,10,0,0,1,.42,4.07h0v1.35h1.25a9.34,9.34,0,0,1,3.34.24,3.14,3.14,0,0,1,1.58,4.58c-.88,1.35-2.3,1.52-3.75,1.52H147.26a1.25,1.25,0,0,0,0,2.5h23.83c8.93,0,17.86.07,26.79,0,3.16,0,6.05-2.17,6.16-5.5A5.67,5.67,0,0,0,200.75,17Z"/>
    <path class="slds-illustration__fill-secondary" d="M10.17,43h6a1.25,1.25,0,1,0,0-2.5h-6a1.25,1.25,0,0,0,0,2.5Z"/>
    <path class="slds-illustration__fill-secondary" d="M21.71,43h42.9a1.25,1.25,0,0,0,0-2.5H21.71a1.25,1.25,0,0,0,0,2.5Z"/>
    <path class="slds-illustration__fill-secondary" d="M81.63,40.16a7.93,7.93,0,0,0-3.36-.59,9.83,9.83,0,0,0-.91-4.49A8.16,8.16,0,0,0,72.71,31a7.42,7.42,0,0,0-3.53-.32A9.56,9.56,0,0,0,52.26,27c-1.62,2.1-1.91,4.39-2,6.87H38.36a1.25,1.25,0,0,0,0,2.49H52.78V35.09c0-2.22-.1-4.28,1.16-6.21a7.08,7.08,0,0,1,12.88,2.59,8.61,8.61,0,0,0-4.45,5.86c-.33,1.56,2.08,2.23,2.41.66.71-3.4,4.08-6,7.55-4.45a5.83,5.83,0,0,1,3,3.11,10,10,0,0,1,.42,4.08h0v1.34H77a9.12,9.12,0,0,1,3.34.25,3.13,3.13,0,0,1,1.58,4.57c-.88,1.35-2.31,1.53-3.75,1.53h-50a1.25,1.25,0,0,0,0,2.49H52c8.93,0,17.86.08,26.79,0,3.16,0,6-2.17,6.16-5.5A5.67,5.67,0,0,0,81.63,40.16Z"/>
    <path class="slds-illustration__fill-secondary" d="M246.69,167.86a7.54,7.54,0,0,0,1-.8,2.16,2.16,0,0,0,.46.8Z"/>
    <path class="slds-illustration__fill-primary" d="M271.25,181h6.18a1.25,1.25,0,0,0,1.25-1.24,1.27,1.27,0,0,0-1.25-1.25h-6.18a1.25,1.25,0,1,0,0,2.49Z"/>
    <path class="slds-illustration__fill-secondary" d="M179.08,43.92c-.11,0-.13,0,0,0Z"/>
    <path class="slds-illustration__fill-secondary" d="M196.57,49a8.53,8.53,0,0,0-4.5-1.94,7.53,7.53,0,0,0-5.77,1.82,7.48,7.48,0,0,0-2.62-5.5,8.65,8.65,0,0,0-4.47-1.92A1.26,1.26,0,0,0,178,42.69a1.28,1.28,0,0,0,1.25,1.25l-.13,0,.15,0,.75.19.47.17.1,0,.27.13a7.06,7.06,0,0,1,1.12.67,1.58,1.58,0,0,0,.16.14l.27.25.39.42a5.06,5.06,0,0,1,.78,1.46,8.73,8.73,0,0,1,0,4.62,1.25,1.25,0,0,0,2.28,1c1.44-2.06,3.67-3.91,6.19-3.46a5.85,5.85,0,0,1,2.07.75l.68.44h0C196,51.78,197.79,50,196.57,49Z"/>
    <path class="slds-illustration__fill-secondary" d="M164.21,69.72Z"/>
    <path class="slds-illustration__fill-secondary" d="M180.91,62.48a8.57,8.57,0,0,0-4.71,1.37,7.54,7.54,0,0,0-3.27,5.07,7.6,7.6,0,0,0-5.53-2.57,8.59,8.59,0,0,0-4.67,1.38,1.24,1.24,0,0,0-.17,1.75,1.28,1.28,0,0,0,1.76.17l-.11.07a.91.91,0,0,1,.14-.07,5.47,5.47,0,0,1,.69-.33,4.68,4.68,0,0,1,.48-.18l.09,0,.29-.07a7,7,0,0,1,1.29-.19h.21l.37,0,.57.08a4.93,4.93,0,0,1,1.54.62,8.77,8.77,0,0,1,3,3.56,1.26,1.26,0,0,0,2.37-.72c-.21-2.5.32-5.35,2.56-6.6a5.75,5.75,0,0,1,2.07-.74c.26,0,.53-.06.8-.09h0C182.28,65,182.53,62.51,180.91,62.48Z"/>
    <path class="slds-illustration__fill-primary" d="M264.67,178.48H174.45l-2-6.52a.53.53,0,0,0-.15-.31l0,0a.34.34,0,0,0-.12-.09.7.7,0,0,0-.2-.08h-.26a.7.7,0,0,0-.2.08.27.27,0,0,0-.12.09l0,0a.53.53,0,0,0-.15.31c-.43,1.36-.86,2.72-1.28,4.07q-1.32-4.83-2.62-9.67h0a.35.35,0,0,0-.06-.14.47.47,0,0,0-.05-.1.56.56,0,0,0-.51-.25.58.58,0,0,0-.52.25l0,.1a.78.78,0,0,0-.05.14h0q-1.65,6.06-3.29,12.12H143.79q-1.65-6.07-3.29-12.15h0a4.08,4.08,0,0,0-.11-.23.55.55,0,0,0-.51-.26.56.56,0,0,0-.52.26.93.93,0,0,0-.05.1.5.5,0,0,0-.05.13h0q-1.65,6.07-3.29,12.15h-.49l-2-6.52a.53.53,0,0,0-.15-.31l0,0a.34.34,0,0,0-.12-.09.7.7,0,0,0-.2-.08h-.13a.63.63,0,0,0-.33.09.27.27,0,0,0-.12.09l0,0a.53.53,0,0,0-.15.31l-2,6.52c-32,0-64.35,0-96.39,0h-.37a1.25,1.25,0,0,0,0,2.49H255.7c3,0,6,.06,9,0A1.25,1.25,0,0,0,264.67,178.48Z"/>
    <path class="slds-illustration__fill-secondary" d="M287.56,164l-1.22-4-7.3-24.1-4.61-15.18c-.45-1.51,1.91-2.15,2.37-.65l1.69,5.58,7.3,24.09,4.6,15.19a1.23,1.23,0,0,1-1.18,1.54H262a1.23,1.23,0,0,1-1.18-1.54l1.69-5.58,7.3-24.1,4.6-15.18a1.23,1.23,0,0,1,2.37.65l-1.7,5.58-7.3,24.09L263.67,164h23.89Z"/>
    <path class="slds-illustration__fill-secondary" d="M297.56,172.55v.77A3.3,3.3,0,0,0,297.56,172.55Z"/>
    <path class="slds-illustration__fill-secondary" d="M294.87,170.23c-.93-4.61-6.64-8.16-13.56-8.16a19.09,19.09,0,0,0-4.48.53c-1.06-4.51-6.7-7.95-13.52-7.95-6.3,0-11.59,2.94-13.21,6.94a8.7,8.7,0,0,0-3.56-.76,8.57,8.57,0,0,0-5.55,2c-.53-7.6-8.69-13.64-18.72-13.64-8.53,0-15.71,4.37-18,10.36a16.94,16.94,0,0,0-6.27-1.19c-7.46,0-12.89,5.89-14.94,11.87Z"/>
  </g>
</svg>
