<svg id="seesaw-sm" xmlns="http://www.w3.org/2000/svg" viewBox="0 0 49.7 49.7">
  <g>
    <rect fill="#ffffff" x="26.87" y="26.32" width="4.91" height="21.2"/>
    <rect fill="#c2e8ff" x="23.28" y="26.32" width="4.91" height="22.19"/>
    <path fill="#8dd1f3" d="M33.09,49.7H22.28V24.3H33.09Zm-8.81-2h6.81V26.27H24.28Z"/>
    <polygon fill="#c2e8ff" points="35.99 9.09 33.25 11.37 29.67 7.05 32.41 4.77 35.99 9.09"/>
    <polygon fill="#ffffff" points="36.98 12.98 30.05 4.78 31.31 3.71 38.24 11.92 36.98 12.98"/>
    <ellipse fill="#c2e8ff" cx="28.76" cy="2.97" rx="2.67" ry="2.68"/>
    <path fill="#ffffff" d="M30.75,6.29,29.68,5a2.48,2.48,0,0,0-.59-2c-.62-.72-1.71-1.06-1.9-.92l-.53-.63a2.53,2.53,0,0,1,3.68.48,4.85,4.85,0,0,1,1,2.07A2.32,2.32,0,0,1,30.75,6.29Z"/>
    <path fill="#8dd1f3" d="M30,6.34a3.25,3.25,0,1,1,1.46-5.19h0A3.27,3.27,0,0,1,31,5.74,3.3,3.3,0,0,1,30,6.34ZM28.33,1.39a1.74,1.74,0,0,0-.65.36A2,2,0,1,0,30.44,2h0A1.94,1.94,0,0,0,28.33,1.39Z"/>
    <path fill="#8dd1f3" d="M33.75,12.68,28.52,6.49l3.67-3.12,5.22,6.19Zm-3.42-6,3.57,4.22,1.7-1.45L32,5.19Z"/>
    <polygon fill="#c2e8ff" points="10.29 30.42 7.55 32.7 3.97 28.38 6.71 26.1 10.29 30.42"/>
    <polygon fill="#ffffff" points="11.29 34.32 4.36 26.11 5.61 25.04 12.54 33.25 11.29 34.32"/>
    <ellipse fill="#c2e8ff" cx="3.06" cy="24.3" rx="2.67" ry="2.68"/>
    <path fill="#ffffff" d="M5.05,27.62,4,26.36a2.49,2.49,0,0,0-.59-2,2.48,2.48,0,0,0-1.9-.92L1,22.76a2.55,2.55,0,0,1,3.69.51C5.61,24.41,6.23,26.62,5.05,27.62Z"/>
    <path fill="#8dd1f3" d="M4.26,27.68a3.25,3.25,0,1,1,1.46-5.2h0a3.26,3.26,0,0,1-1.46,5.2Zm-1.63-5a1.89,1.89,0,0,0-.65.36,2,2,0,0,0,2.53,3,2,2,0,0,0,.23-2.78h0A2,2,0,0,0,2.63,22.72Z"/>
    <path fill="#8dd1f3" d="M8.05,34,2.82,27.82l3.67-3.11,5.22,6.19ZM4.63,28,8.2,32.19l1.71-1.45L6.34,26.52Z"/>
    <polygon fill="#c2e8ff" points="48.15 11.2 7.63 44.91 2.29 38.45 42.81 4.74 48.15 11.2"/>
    <path fill="#8dd1f3" d="M7.49,46.46.74,38.3,43,3.19l6.75,8.15ZM3.84,38.59l3.94,4.77L46.61,11.05l-4-4.76Z"/>
  </g>
</svg>
