<svg id="github" viewBox="0 0 34 34" xmlns="http://www.w3.org/2000/svg">
  <path d="M16.782 0C7.515 0 0 7.749 0 17.31c0 7.645 4.808 14.132 11.478 16.421.84.158 1.146-.376 1.146-.835 0-.41-.015-1.5-.023-2.943-4.668 1.045-5.653-2.32-5.653-2.32-.764-2-1.864-2.531-1.864-2.531-1.524-1.075.116-1.053.116-1.053 1.684.123 2.57 1.784 2.57 1.784 1.497 2.644 3.928 1.88 4.885 1.438.152-1.119.585-1.881 1.065-2.314-3.726-.437-7.645-1.922-7.645-8.554 0-1.89.655-3.434 1.728-4.644-.173-.438-.749-2.198.164-4.58 0 0 1.41-.466 4.616 1.774a15.619 15.619 0 0 1 4.201-.584c1.425.008 2.861.199 4.202.584 3.204-2.24 4.61-1.775 4.61-1.775.916 2.383.34 4.143.167 4.58 1.076 1.21 1.726 2.756 1.726 4.645 0 6.649-3.924 8.112-7.663 8.54.602.535 1.14 1.59 1.14 3.206 0 2.313-.021 4.18-.021 4.747 0 .463.301 1.002 1.154.833 6.663-2.294 11.468-8.776 11.468-16.42C33.567 7.75 26.052 0 16.782 0"/>
</svg>
